<svg id="404" viewBox="0 0 832 422" fill="none" xmlns="http://www.w3.org/2000/svg" class="mb-20"><path d="M0 357.913v-59.914l137.069-196.241h82.848v191.899h35.569v64.256h-35.569v56.441h-74.173v-56.441H0zM150.949 183.38L78.077 293.657h72.872V183.38zM291.817 251.544c0-49.784 9.543-89.003 28.628-117.658 19.375-28.654 50.461-42.982 93.259-42.982s73.74 14.328 92.825 42.982c19.375 28.655 29.062 67.874 29.062 117.658 0 50.362-9.687 89.871-29.062 118.525-19.085 28.655-50.027 42.982-92.825 42.982s-73.884-14.327-93.259-42.982c-19.085-28.654-28.628-68.163-28.628-118.525zm170.902 0c0-29.234-3.181-51.665-9.543-67.295-6.361-15.919-19.519-23.879-39.472-23.879-19.953 0-33.11 7.96-39.472 23.879-6.362 15.63-9.543 38.061-9.543 67.295 0 19.682 1.157 36.035 3.47 49.06 2.313 12.735 6.94 23.155 13.88 31.259 7.23 7.815 17.785 11.723 31.665 11.723 13.881 0 24.291-3.908 31.231-11.723 7.229-8.104 12.001-18.524 14.314-31.259 2.314-13.025 3.47-29.378 3.47-49.06zM576.514 357.913v-59.914l137.069-196.241h82.848v191.899H832v64.256h-35.569v56.441h-74.173v-56.441H576.514zM727.463 183.38l-72.872 110.277h72.872V183.38z" fill="#F4EDFF"></path><path fill-rule="evenodd" clip-rule="evenodd" d="M511.141 233.21c5.222 3.962 10.228 7.844 15.328 11.603 13.772 10.157 27.178 20.76 39.435 32.715 1.461 1.42 2.976 1.717 4.735 1.244 2.449-.676 4.857-1.501 7.278-2.299 2.652-.866 5.276-1.867 7.955-2.637 3.639-1.055 6.818.081 8.942 3.245 2.462 3.665 3.991 7.655 3.017 12.145-.393 1.771-.92 3.773-2.07 5.071-2.53 2.867-5.168 5.856-8.347 7.885-7.468 4.801-15.26 9.115-22.971 13.51-2.638 1.501-5.357 2.718-8.577 2.84-3.707.149-6.859-.987-9.754-3.07-3.165-2.285-6.169-4.828-9.361-7.073a1151.996 1151.996 0 00-20.739-14.241c-6.25-4.178-12.649-8.141-18.899-12.333-5.669-3.801-11.202-7.817-16.843-11.671-.541-.366-1.407-.244-2.138-.352.082.703-.067 1.555.285 2.083a4888.719 4888.719 0 0019.819 29.806c5.289 7.898 10.592 15.783 15.99 23.599 2.3 3.314 4.938 6.397 7.305 9.656 3.68 5.058 4.451 10.549 1.448 16.121-3.666 6.775-7.738 13.321-11.445 20.069-2.476 4.504-5.236 8.71-9.118 12.158-6.413 5.68-16.207 4.842-21.51-1.934-1.367-1.744-1.664-3.786-1.055-5.815 1.082-3.624 2.313-7.208 3.598-10.778 2.557-7.101 2.692-7.547-2.543-12.929-13.204-13.538-24.189-28.847-35.471-43.912-1.678-2.232-3.531-4.341-5.249-6.546-.636-.811-1.191-.825-2.03-.284-1.934 1.244-3.896 2.448-5.925 3.53-5.547 2.948-10.85 2.367-15.503-1.799-11.378-10.224-22.89-20.299-33.983-30.821-6.034-5.72-11.351-12.185-16.924-18.379-.961-1.068-1.867-1.379-3.234-1.095a1916.398 1916.398 0 01-23.255 4.517c-4.153.784-8.333 1.366-12.486 2.191-.826.162-1.745.825-2.246 1.528-1.001 1.393-2.11 2.313-3.883 2.57-3.368.486-6.764.96-10.078 1.785-6.156 1.528-12.257 3.259-18.345 5.017-1.014.298-1.988 1.001-2.8 1.731-5.479 4.99-11.188 9.67-17.749 13.186-2.313 1.244-4.721 1.88-7.265.379-2.962-1.745-4.315-5.856-2.408-8.696 1.583-2.353 3.599-4.396 5.452-6.573.379-.446.852-.825 1.678-1.596-3.004.149-5.52.474-8.009.338-1.989-.108-4.126-.405-5.871-1.284-2.719-1.366-3.152-3.855-1.583-6.492 1.502-2.515 3.571-4.449 6.25-5.693.717-.338 1.447-.663 2.679-1.218-1.299-.202-2.179-.148-2.896-.473-1.853-.838-3.774-1.65-5.411-2.813-2.611-1.866-3.057-4.584-.866-6.897 1.8-1.893 3.978-3.787 6.359-4.652 3.869-1.42 8.022-2.042 12.08-2.935 1.313-.284 2.665-.351 4.343-.568-.663-.96-1.19-1.636-1.61-2.353-1.055-1.826-2.191-3.611-3.057-5.518-1.042-2.285-1.556-4.665.595-6.721 1.826-1.758 5.235-2.177 7.887-1.055 4.031 1.691 7.346 4.341 10.363 7.465 2.989 3.084 1.961 2.908 6.141 1.231 3.288-1.312 6.44-2.948 9.633-4.49 2.313-1.122 4.613-1.19 6.696.352 1.164.865 2.205.906 3.436.365 6.67-2.881 13.366-5.721 20.009-8.656.405-.175.622-.987.744-1.541.081-.392-.081-.866-.244-1.271-1.542-3.679-.162-6.492 2.584-8.94 2.313-2.069 4.6-4.152 7.075-6.383-.974-1.325-1.988-2.786-3.098-4.179a7945.228 7945.228 0 00-18.506-23.383c-5.723-7.208-8.293-15.593-9.281-24.586-1.163-10.603.704-20.651 5.452-30.199 2.787-5.599 6.588-10.305 11.377-14.335 13.15-5.883 22.43-8.764 35.39-6.1 4.37.893 9.091 1.218 13.299 2.61 9.632 3.192 16.301 9.751 23.12 17.217 4.599 5.044 9.064 9.872 13.514 15.038-.865-.865 1.57.663 1.962 1.096 2.178-2.178 5.479-5.572 7.928-7.574 2.272-1.853 4.68-2.38 7.427-1.001 1.258.636 2.665.988 4.193 1.542.934-1.515 1.881-3.029 2.814-4.544 3.247-5.301 6.48-10.603 9.741-15.89.703-1.15.852-2.164.162-3.449-1.272-2.367-.798-4.625.676-6.83 2.314-3.462 4.465-7.018 6.751-10.494.785-1.204.595-2.11-.271-3.165-2.976-3.624-5.736-7.424-6.764-12.09-.365-1.677-.379-3.61.054-5.274.934-3.611 4.167-4.977 7.454-3.192 2.151 1.177 4.072 2.8 6.048 4.287.73.541 1.352 1.244 2.205 2.029 1.055-3.476 1.988-6.735 3.044-9.954 1.231-3.773 3.111-7.194 6.128-9.859a12.777 12.777 0 012.273-1.609c2.732-1.488 5.059-.838 6.656 1.84 1.515 2.542 2.408 5.287 2.029 8.29 1.65-1.84 3.206-3.652 4.87-5.356.636-.65 1.502-1.11 2.327-1.528 4.329-2.205 8.036-.014 7.914 4.909-.068 2.759-.812 5.518-1.258 8.277-.122.784-.298 1.555-.555 2.812 1.123-.92 1.826-1.609 2.625-2.123 1.975-1.271 3.963-2.556 6.02-3.692 2.949-1.623 5.506-.378 7.575 1.664 1.989 1.947 2.192 4.747.65 7.397-.988 1.718-2.043 3.49-3.436 4.855-4.289 4.22-8.767 8.25-13.136 12.402-.839.797-1.705 1.69-2.138 2.718-3.314 7.763-6.534 15.566-9.781 23.369-.257.622-.595 1.271-.649 1.934-.257 2.691-1.421 4.558-4.153 5.328-.433.122-.798.879-.988 1.42-4.14 12.104-8.266 24.222-12.297 36.366-.23.676.095 1.826.568 2.407 4.343 5.207 9.091 10.089 13.109 15.526 7.332 9.872 14.272 20.056 21.348 30.117 2.462 3.503 4.87 7.06 7.278 10.617 3.22 4.733 3.26 10.048.095 14.849-.88 1.312-1.908 2.623-3.153 4.341zm-195.51-3.638c.581 6.532 1.488 12.428 3.788 18 1.041 2.516 2.07 5.045 3.328 7.452.297.568 1.555 1.014 2.286.906 4.735-.69 9.456-1.488 14.151-2.367 14.11-2.637 28.206-5.342 41.91-9.723 2.476-.785 5.033-1.353 7.589-1.758.772-.122 1.922.419 2.49 1.041 3.368 3.57 6.52 7.33 9.916 10.86 5.601 5.815 11.323 11.522 17.046 17.229 1.948 1.947 2.408 2.056 4.68.541 4.654-3.083 9.375-6.126 13.772-9.561 11.432-8.926 22.227-18.569 32.468-28.833 5.303-5.329 10.606-10.657 14.232-17.406.974-1.825.893-3.137-.311-4.706-3.856-5.031-7.576-10.17-11.486-15.147-4.18-5.314-8.55-10.481-12.784-15.768-.406-.501-.622-1.42-.46-2.042.406-1.677.96-3.341 1.623-4.937 3.518-8.344 7.373-16.566 10.566-25.032 3.761-9.927 6.98-20.056 10.403-30.118.947-2.786.582-3.692-1.907-5.153-6.792-3.976-13.867-7.262-21.591-9.02-1.002-.23-1.556-.081-2.084.893-1.556 2.894-3.152 5.788-4.884 8.587-7.197 11.617-14.285 23.302-21.726 34.77-5.574 8.601-11.323 17.108-17.506 25.263-7.467 9.859-17.356 17.216-27.232 24.491-6.575 4.855-13.501 9.075-21.266 11.847a319.073 319.073 0 00-14.746 5.68c-10.282 4.247-20.509 8.615-30.75 12.956-.649.271-1.191.825-1.515 1.055zm116.329 55.827c11.878 15.295 23.81 30.645 35.823 46.102 1.015-.568 2.03-1.041 2.922-1.677 5.033-3.543 10.174-6.924 14.99-10.751 3.923-3.111 7.427-6.762 11.147-10.143.974-.879.961-1.636.244-2.718-3.64-5.491-7.17-11.049-10.809-16.553-3.572-5.383-7.211-10.725-10.823-16.08-.934-1.38-1.596-2.84-.961-4.544.974-2.61 4.208-3.828 6.562-2.299 3.49 2.272 6.831 4.746 10.295 7.046 8.495 5.639 17.032 11.211 25.514 16.864 1.38.919 2.259.838 3.49-.298 8.78-8.087 15.368-17.865 21.713-27.845.19-.298.271-.65.42-1.015-14.841-11.495-29.614-22.936-44.495-34.472-5.614 7.276-12.189 13.7-19.088 19.785-.366.325-.596 1.109-.501 1.596.338 1.704-.176 3.084-1.393 4.22-3.409 3.178-6.792 6.383-10.295 9.453-2.233 1.961-4.614 3.8-7.035 5.518-.785.554-2.259 1.122-2.882.757-1.961-1.163-2.949.122-4.153 1.122-.771.636-1.501 1.312-2.286 1.907-6.128 4.68-12.257 9.345-18.399 14.025zM318.837 140.003c.027 9.291 1.759 18.177 6.981 26.061 2.394 3.624 5.019 7.114 7.697 10.535 5.006 6.343 10.106 12.618 15.206 18.879 2.909 3.557 5.925 7.033 8.874 10.562.812.974 1.8 1.299 2.977.839 2.367-.933 4.829-1.704 7.075-2.867 13.772-7.141 25.785-16.661 36.553-27.724 8.631-8.858 15.139-19.366 21.659-29.82 1.096-1.745 1.164-3.056-.189-4.639-7.644-8.912-15.03-18.041-22.917-26.736-7.86-8.669-17.546-14.593-29.208-16.865-3.044-.595-6.114-1.082-9.185-1.596-10.106-1.663-19.319.366-27.774 6.262-6.209 4.328-10.268 10.211-13.393 16.864-3.003 6.397-4.586 13.132-4.356 20.245zm-12.96 88.406c-.758.325-1.312.554-1.853.798-2.611 1.163-5.263 2.245-7.806 3.516-2.963 1.474-5.195.609-7.265-1.69-2.719-3.016-5.668-5.789-9.497-7.371-.893-.365-1.907-.622-2.854-.608-2.138.054-2.936 1.136-1.962 3.029 1.556 3.016 3.355 5.91 5.249 8.736 1.705 2.57 1.299 3.787-1.772 4.233-4.18.622-8.388 1.096-12.541 1.826-3.287.581-6.304 1.947-8.726 4.341-1.596 1.582-1.582 2.421.339 3.462 1.596.866 3.395 1.542 5.167 1.785 2.517.339 5.087.23 7.63.257 1.15.014 2.368-.04 2.665 1.407.298 1.447-.865 1.907-1.907 2.353-3.085 1.339-6.264 2.475-9.199 4.071-1.786.973-3.274 2.569-4.735 4.057-.88.892-.487 1.961.676 2.353 1.028.352 2.192.581 3.261.514 4.396-.257 8.793-.636 13.176-1.014 1.164-.095 2.327-.257 2.882 1.054.541 1.272-.433 1.921-1.286 2.57-1.339 1.014-2.759 1.947-3.95 3.11a102.75 102.75 0 00-6.115 6.478c-.527.609-.798 1.745-.663 2.556.366 2.205 2.233 3.124 4.357 2.164 6.196-2.786 11.201-7.276 16.342-11.576 1.61-1.339 3.138-3.151 5.019-3.719 7.549-2.259 15.219-4.125 22.849-6.14.392-.108.758-.257 1.366-.446-7.467-9.427-9.145-20.327-8.847-32.106zm181.36-121.485c3.179-7.262 6.088-14.119 9.199-20.88.771-1.678 2.029-3.233 3.369-4.531 4.166-4.07 8.536-7.952 12.703-12.023 1.217-1.19 2.137-2.745 3.017-4.233 1.15-1.934.094-4.26-2.097-4.517-.907-.108-2.07.19-2.787.73-3.531 2.705-6.927 5.6-10.444 8.331-.69.528-1.826 1.055-2.543.839-1.204-.365-1.069-1.596-.785-2.705.785-3.07 1.583-6.126 2.232-9.223.433-2.056.839-4.152.893-6.248.054-2.178-1.244-2.922-3.017-1.704-1.609 1.095-3.152 2.46-4.275 4.03-1.975 2.772-3.557 5.842-5.451 8.669-.42.622-1.475.824-2.246 1.217-.379-.812-1.096-1.637-1.082-2.448.04-1.853.487-3.692.676-5.545.271-2.583.622-5.18-.676-7.668-1.137-2.177-1.881-2.434-3.829-.852-2.624 2.137-4.37 4.923-5.384 8.114-1.272 4.017-2.341 8.115-3.585 12.145-.798 2.61-2.178 2.84-4.18 1.014-2.435-2.19-4.938-4.328-7.549-6.302-.717-.541-2.462-.92-2.773-.555-.717.839-.934 2.164-1.177 3.327-.109.487.243 1.069.392 1.61 1.082 4.07 3.571 7.343 6.142 10.548 1.677 2.096 2.218 4.233.568 6.64-.947 1.38-1.732 2.868-2.611 4.288-.704 1.135-1.461 2.245-2.259 3.448 11.079 2.8 22.064 5.085 29.559 14.484zm42.046 191.633c2.543 1.88 5.195 3.814 7.833 5.775 4.085 3.043 8.076 6.221 12.256 9.115 3.274 2.272 6.927 2.299 10.485.622 10.376-4.896 19.981-11.117 29.478-17.486 6.034-4.044 7.075-11.739 2.679-17.554-1.353-1.799-3.125-2.867-5.506-2.11-1.123.352-2.246.73-3.342 1.15-4.64 1.744-9.145 3.935-14.205 4.368-1.691.149-3.003-.244-4.234-1.407-2.99-2.813-6.034-5.558-9.064-8.33-.717-.65-1.461-1.272-1.826-1.583-4.018 4.842-7.765 9.629-11.81 14.146-4.099 4.598-8.496 8.899-12.744 13.294zm-52.612 43.493c.447.514.92 1.082 1.407 1.623 3.017 3.3 6.02 6.627 9.078 9.886 1.19 1.271 1.867 2.65 1.434 4.381-.717 2.949-1.367 5.91-2.273 8.805-.906 2.894-2.137 5.693-3.166 8.56-.838 2.34.19 4.152 1.962 5.558 5.628 4.463 13.42 3.395 17.6-2.461 1.8-2.515 3.491-5.139 5.06-7.817 4.126-7.005 8.252-14.024 12.189-21.137 2.273-4.112 1.894-8.291-.906-12.091-2.909-3.949-5.939-7.817-8.902-11.725-1.556-2.056-3.085-4.138-4.681-6.289-8.469 9.088-18.466 15.972-28.802 22.707zm-39.624-44.074c-.203-.501-.23-.704-.338-.839-5.303-6.667-10.593-13.321-15.896-19.975-.149-.189-.325-.392-.527-.527-1.421-.92-3.085-1.609-4.248-2.786a2628.687 2628.687 0 01-25.704-26.453c-1.948-2.028-2.192-2.204-4.978-1.392-4.113 1.203-8.253 2.312-12.365 3.502-1.529.446-3.031.987-4.586 1.501.162.338.203.528.311.663 5.357 5.883 10.376 12.104 16.139 17.554 11.377 10.751 23.174 21.07 34.795 31.551 2.624 2.367 5.803 2.773 8.901 1.609 2.963-1.095 5.682-2.907 8.496-4.408zm32.711-138.025c-.622 1.204-1.163 2.164-1.609 3.165-1.326 3.016-2.598 6.045-3.91 9.061-.676 1.528-1.569 2.989-2.029 4.584-.23.785-.014 2.002.487 2.651 7.224 9.399 14.597 18.69 21.767 28.13 1.542 2.015 2.448 4.503 3.679 6.762.203.365.542.662.866.919 6.21 4.977 12.419 9.94 18.629 14.89.27.216.595.365.865.527 4.56-4.746 6.751-9.845 1.867-16.472-6.29-8.547-12.256-17.351-18.114-26.209-6.575-9.926-14.57-18.676-22.498-28.008zm-22.01 97.737c2.841 2.597 5.56 5.031 8.198 7.546 1.015.974 1.921.947 2.936.136 2.029-1.637 4.139-3.178 6.087-4.909 3.437-3.043 6.778-6.208 10.16-9.318.934-.866 1.353-1.961.555-2.989-2.381-3.057-4.897-6.005-7.332-8.994-6.995 6.303-13.596 12.226-20.604 18.528zm48.458-32.295c-3.341-2.678-6.52-5.22-9.875-7.911-4.221 8.006-10.579 13.902-16.491 19.988l6.98 7.844c7.13-5.991 13.61-12.469 19.386-19.921zm3.788 85.187c-8.712 9.845-19.359 16.77-30.1 23.843 1.001 1.203 1.853 2.258 2.746 3.286 2.029 2.312 2.841 2.488 5.317.771 3.977-2.759 8.049-5.41 11.796-8.466 4.613-3.746 8.97-7.831 13.38-11.82.406-.365.784-1.312.595-1.664-1.109-1.988-2.408-3.867-3.734-5.95zm-46.862-44.588c-2.462-2.34-4.789-4.544-7.183-6.83-7.197 5.545-13.975 11.698-22.403 15.999 1.704 2.11 3.382 4.179 5.046 6.248 1.623 2.015 1.664 2.069 3.801.487 5.29-3.922 10.566-7.871 15.815-11.847 1.664-1.258 3.233-2.651 4.924-4.057zm92.371-2.34c-7.156 10.914-14.083 21.49-23.809 30.104.933.636 1.677 1.163 2.448 1.65 2.706 1.731 2.828 1.826 5.209-.446 3.043-2.921 5.993-5.951 8.888-9.021 4.586-4.882 9.388-9.601 12.527-15.633.27-.528.419-1.582.122-1.88-1.664-1.636-3.491-3.124-5.385-4.774zm-60.62-149.709c1.191-1.393 1.935-4.544 1.177-5.18-4.261-3.651-8.009-8.046-13.745-9.615-1.38-.379-2.692-.947-4.072-1.312-3.585-.96-7.183-1.947-10.809-2.732-.595-.135-1.65.433-2.043.987-1.298 1.894-.432 3.693 1.773 4.409 5.059 1.664 10.186 3.178 15.084 5.248 4.64 1.961 9.307 4.097 12.635 8.195zM321.421 259.23c-1.015-1.501-2.259-2.759-2.828-4.26-1.772-4.761-3.53-9.548-4.816-14.444-.947-3.57-1.204-7.33-1.677-11.022-.19-1.514-1.096-2.38-2.395-2.285-.514.027-.947 1.433-1.393 2.218-.081.149-.054.365-.054.554-.203 10.197 1.393 19.894 7.779 28.292 1.447 1.907 3.016 2.272 5.384.947zm101.408-126.502c2.191 2.759 4.302 5.396 6.507 8.168 2.814-4.49 5.519-8.817 8.374-13.375-1.664-.609-2.976-1.15-4.329-1.555-.676-.203-1.583-.433-2.11-.149-3.22 1.785-6.021 4.098-8.442 6.911zm-74.149 68.268c-2.489 2.259-4.816 4.22-6.94 6.356-2.502 2.516-2.584 3.936-.744 7.398 4.641-2.056 9.294-4.125 14.232-6.329-2.192-2.489-4.234-4.788-6.548-7.425z" fill="#6500FF"></path><path fill-rule="evenodd" clip-rule="evenodd" d="M331.621 418.095c-10.335.121-18.858-1.542-26.285-7.127-.433-.325-1.542-.19-2.111.135-5.235 2.88-10.498 5.747-16.463 6.802-2.49.447-5.06.744-7.576.636-3.152-.122-4.6-2.353-3.166-5.153 2.002-3.895 4.289-7.695 6.859-11.238 2.07-2.854 4.762-5.234 7.102-7.898.379-.433.609-1.406.406-1.92-7.116-17.446-1.488-32.39 9.308-46.117 7.927-10.075 18.493-16.377 30.966-19.149 12.026-2.678 22.754.716 32.332 8.127 1.326 1.028 2.611 2.124 3.748 3.354.933 1.001 1.583.825 2.692.244 5.384-2.827 10.782-5.626 16.301-8.155 1.921-.879 4.194-1.217 6.345-1.339 5.114-.27 8.077 4.206 5.33 8.479-2.962 4.626-6.547 8.886-10.092 13.105-2.313 2.759-4.992 5.207-7.576 7.709-.852.811-1.163 1.582-1.001 2.772 1.529 12.131-.608 23.626-6.859 34.094-7.548 12.672-19.331 19.298-33.563 21.922-2.638.487-5.33.581-6.697.717zm6.778-89.447c-.934 0-1.867-.027-2.8.013-.555.014-1.123.082-1.664.176-16.884 3.097-29.465 12.32-38.028 27.034-3.423 5.883-5.885 12.239-6.237 19.164-.649 12.956 4.924 23.18 14.354 31.578.392.338 1.528.297 2.042-.027 13.962-8.601 28.099-16.946 41.749-26.034 9.077-6.045 17.424-13.199 26.15-19.771 1.731-1.312 1.948-2.651 1.353-4.626-1.854-6.275-5.506-11.36-10.12-15.836-7.467-7.249-16.233-11.549-26.799-11.671zm37.906 33.201c-21.388 18.514-45.171 33.012-69.427 46.941 8.78 8.169 29.871 9.548 45.198 1.677 18.141-9.291 26.786-29.049 24.229-48.618zm1.759-4.585c3.761-4.03 7.319-7.587 10.579-11.4a77.638 77.638 0 006.696-9.142c1.692-2.705.068-5.166-3.152-5.045-1.474.054-3.043.217-4.369.785-4.668 2.015-9.267 4.178-13.84 6.383-1.474.717-2.827 1.69-4.396 2.664 4.18 4.476 6.818 9.548 8.482 15.755zm-86.581 38.557c-3.085 3.651-6.413 7.316-9.402 11.238-1.556 2.042-2.625 4.49-3.748 6.83-.784 1.636-.365 2.204 1.475 2.421.365.04.744.067 1.109.054 7.901-.447 14.841-3.598 21.28-7.52-3.504-4.26-6.94-8.439-10.714-13.023zM447.734 399.056c-.257.121-.622.365-1.028.486-6.426 1.907-9.172 6.789-10.376 12.875-.487 2.434-.757 4.909-1.299 7.33-.162.717-.892 1.312-1.366 1.961-.528-.581-1.299-1.082-1.556-1.772-.96-2.556-1.637-5.22-2.638-7.762-1.407-3.611-3.734-6.641-6.94-8.791-1.555-1.041-3.531-1.433-5.249-2.272-.622-.297-1.041-1.001-1.555-1.528.5-.46.933-1.15 1.528-1.352 4.911-1.731 8.09-5.031 9.078-10.184.663-3.408 1.014-6.883 1.65-10.305.135-.771.893-1.42 1.353-2.123.514.662 1.218 1.244 1.515 1.988 1.745 4.246 3.26 8.587 5.114 12.78 1.109 2.488 3.355 3.949 5.939 4.787 1.528.501 3.125.839 4.653 1.326 1.286.405 1.854 1.582 1.177 2.556zm-14.515 15.822c1.393-6.761 3.098-13.145 10.038-16.674-8.564-1.745-10.674-8.832-13.42-15.526-.758 6.897-2.517 13.105-9.24 16.743 6.696 3.313 10.389 8.763 12.622 15.457zM563.861 166.997c-.933.514-1.366.893-1.853 1.001-6.683 1.528-9.795 6.289-11.35 12.469-.596 2.353-1.055 4.733-1.745 7.046-.203.69-1.001 1.204-1.529 1.799-.46-.582-1.15-1.096-1.353-1.758-.622-2.083-1.096-4.206-1.583-6.316-.811-3.557-2.719-6.519-5.005-9.25-1.772-2.11-4.113-3.327-6.71-4.179-.677-.23-1.164-1.042-1.745-1.596.622-.487 1.163-1.204 1.867-1.42 4.748-1.461 8.049-4.409 9.402-9.223.893-3.219 1.488-6.532 2.218-9.805.081-.365.041-.812.244-1.082.433-.582.987-1.068 1.501-1.596.42.528 1.042 1.001 1.232 1.609 1.285 4.017 2.448 8.061 3.72 12.091 1.109 3.529 3.598 5.72 7.021 6.924 1.231.433 2.53.717 3.68 1.312.703.338 1.177 1.122 1.988 1.974zm-28.152-.703c3.517 1.745 5.952 4.044 7.63 6.992 1.623 2.867 2.895 5.937 4.288 8.858 1.123-2.881 2.26-5.991 3.545-9.034 1.38-3.246 4.275-4.936 7.806-6.735-8.861-2.204-10.471-9.385-12.798-16.215-1.245 6.776-3.369 12.875-10.471 16.134zM788.014 374.065c-.799.112-1.207.265-1.58.21-5.125-.726-8.624 1.821-11.418 5.802-1.066 1.515-2.044 3.086-3.165 4.547-.333.436-1.036.586-1.571.866-.164-.539-.509-1.093-.469-1.62.134-1.653.384-3.294.621-4.93.406-2.755-.123-5.383-.982-7.951-.668-1.984-1.981-3.487-3.576-4.8-.413-.347-.533-1.057-.79-1.611.572-.177 1.15-.541 1.705-.504 3.745.248 6.879-.956 9.155-4.019 1.513-2.051 2.843-4.25 4.256-6.384.158-.238.252-.567.469-.705.465-.297.989-.493 1.496-.729.15.489.458.996.425 1.481-.2 3.211-.492 6.408-.704 9.625-.189 2.817.961 5.054 3.04 6.841.748.642 1.584 1.197 2.23 1.934.403.432.521 1.119.858 1.947zm-19.628-8.147c1.997 2.199 3.08 4.498 3.45 7.055.355 2.483.407 5.016.585 7.476 1.583-1.748 3.237-3.655 4.979-5.475 1.863-1.938 4.366-2.356 7.346-2.679-5.632-3.977-4.792-9.531-4.553-15.029-2.739 4.49-5.911 8.259-11.807 8.652zM351.481 291.849c-5.127-.094-8.144-3.327-8.022-8.641.108-4.531 3.355-7.912 7.521-7.79 4.87.135 8.658 3.908 8.55 8.506-.108 5.139-3.044 8.02-8.049 7.925zm-.041-2.339c3.666.081 5.601-1.785 5.736-5.532.122-3.353-2.692-6.126-6.304-6.193-2.624-.055-5.046 2.596-5.087 5.585-.04 3.814 2.03 6.072 5.655 6.14zM256.282 330.068c-.257-2.84-.541-5.423-.69-8.02-.027-.608.42-1.23.65-1.853.554.528 1.515 1.001 1.61 1.596.405 2.624.554 5.288.838 8.25 2.625-.23 5.182-.501 7.752-.622.636-.027 1.285.487 1.935.743-.569.528-1.083 1.42-1.732 1.515-2.503.392-5.06.528-7.887.785.081 1.568.149 3.151.23 4.733.041.676.122 1.366.122 2.042.013.947.379 2.272-1.042 2.272-.433 0-1.109-1.393-1.272-2.218-.27-1.393-.202-2.84-.297-4.26-.054-.73-.135-1.474-.23-2.488-2.016.108-3.964.216-5.926.324-.554.027-1.149.217-1.664.068-.622-.176-1.176-.622-1.772-.947.555-.46 1.055-1.217 1.664-1.312 1.705-.27 3.463-.257 5.195-.378.744-.041 1.475-.122 2.516-.23zM62.806 241.033c-.257-2.84-.54-5.423-.69-8.019-.027-.609.42-1.231.65-1.853.554.528 1.515 1.001 1.61 1.596.405 2.624.554 5.288.838 8.249 2.625-.229 5.182-.5 7.752-.622.636-.027 1.285.487 1.935.744-.569.528-1.083 1.42-1.732 1.515-2.503.392-5.06.527-7.887.784.081 1.569.149 3.151.23 4.734.04.676.122 1.365.122 2.042.013.946.379 2.272-1.042 2.272-.433 0-1.11-1.393-1.272-2.218-.27-1.393-.203-2.84-.297-4.26-.054-.731-.136-1.474-.23-2.489-2.016.109-3.964.217-5.926.325-.554.027-1.15.216-1.664.068-.622-.176-1.177-.623-1.772-.947.555-.46 1.055-1.217 1.664-1.312 1.705-.27 3.463-.257 5.195-.379.744-.04 1.475-.121 2.516-.23zM337.276 43.484c2.76-.244 5.276-.541 7.806-.65.609-.026 1.258.528 1.88.812-.527.5-1.014 1.352-1.596 1.447-2.57.379-5.168.541-8.022.798.108 2.042.216 4.057.311 6.072.027.555.203 1.15.054 1.664-.149.514-.609.946-.92 1.42-.446-.42-1.218-.798-1.285-1.272-.257-1.771-.284-3.583-.406-5.382-.054-.73-.122-1.474-.203-2.434-2.137.108-4.153.216-6.182.324-.555.027-1.164.217-1.664.054-.555-.176-1.028-.649-1.529-1 .446-.433.852-1.15 1.353-1.231 1.772-.257 3.585-.27 5.384-.392.785-.054 1.569-.136 2.611-.23-.23-2.678-.501-5.193-.609-7.709-.027-.717.311-2.015.677-2.082 1.339-.258 1.542.906 1.65 1.92.217 2.515.433 5.044.69 7.87zM579.311 73.71c2.665 0 5.208-.068 7.738.04.622.027 1.231.609 1.84.933-.569.46-1.11 1.285-1.691 1.312-2.598.149-5.195.068-8.307.068v5.774c0 .555.108 1.163-.067 1.664-.23.608-.704 1.122-1.069 1.677-.42-.582-1.123-1.123-1.191-1.745-.148-1.406.014-2.853.041-4.273.013-.988 0-1.961 0-3.408-2.422 0-4.681.027-6.954-.014-.947-.013-2.299.23-2.178-1.217.041-.433 1.475-1.014 2.314-1.068 1.785-.136 3.598-.028 5.397.08 1.191.068 1.705-.31 1.664-1.555-.067-2.163-.094-4.34.027-6.518.028-.622.623-1.204.961-1.812.446.581 1.245 1.122 1.285 1.73.149 2.408.054 4.842.068 7.263-.014.257.04.5.122 1.069zM634.533 247.653c2.002 0 3.855-.04 5.709.027.473.014.92.42 1.393.636-.446.352-.866.987-1.325 1.014-1.894.122-3.788.054-6.007.054 0 1.745.013 3.368-.014 4.991-.013.69.19 1.69-.879 1.582-.325-.027-.744-1.082-.785-1.69-.108-1.569-.04-3.165-.04-5.126-1.705 0-3.409.014-5.114 0-.352 0-.771.027-1.055-.149-.257-.148-.568-.703-.487-.811.243-.325.649-.703 1.001-.717 1.502-.054 3.003-.054 4.491.054 1.083.081 1.461-.297 1.421-1.366a45.129 45.129 0 010-4.49c.027-.459.433-.906.663-1.366.338.447.96.88.987 1.353.109 1.907.041 3.814.041 6.004zM715.626 178.408c2.002 0 3.856-.041 5.709.027.473.013.92.419 1.393.635-.446.352-.865.988-1.325 1.015-1.894.122-3.788.054-6.007.054 0 1.744.014 3.367-.013 4.99-.014.69.189 1.691-.88 1.582-.324-.027-.744-1.081-.784-1.69-.109-1.569-.041-3.165-.041-5.126-1.705 0-3.409.014-5.114 0-.351 0-.771.027-1.055-.148-.257-.149-.568-.704-.487-.812.244-.324.649-.703 1.001-.716 1.502-.055 3.003-.055 4.492.054 1.082.081 1.461-.298 1.42-1.366a45.129 45.129 0 010-4.49c.027-.46.433-.906.663-1.366.338.446.96.879.987 1.352.109 1.907.041 3.814.041 6.005zM501.698 6.78c1.785 0 3.422-.04 5.073.027.419.014.825.366 1.231.568-.393.311-.771.88-1.177.906-1.678.109-3.369.041-5.33.041 0 1.555.013 2.989 0 4.436-.014.609.162 1.501-.785 1.406-.284-.027-.663-.96-.704-1.5-.094-1.394-.027-2.814-.027-4.545h-4.545c-.325 0-.69.014-.934-.135-.23-.135-.5-.622-.432-.717.216-.284.581-.622.892-.635a35.728 35.728 0 013.991.054c.961.067 1.299-.27 1.258-1.217a43.87 43.87 0 010-3.99c.027-.42.379-.811.582-1.217.311.406.852.784.879 1.203.082 1.677.028 3.381.028 5.315zM206.647 233.251c1.245 0 2.395-.028 3.531.013.284.014.568.257.866.392-.271.217-.541.609-.825.622-1.177.068-2.354.027-3.721.027 0 1.082.014 2.083 0 3.097-.013.42.122 1.042-.541.988-.203-.014-.46-.677-.487-1.042-.067-.973-.027-1.961-.027-3.178h-3.165c-.217 0-.487.014-.65-.095-.162-.094-.351-.432-.297-.5.148-.203.405-.433.622-.446.92-.041 1.853-.027 2.787.04.676.054.906-.189.879-.852a27.542 27.542 0 010-2.786c.014-.284.271-.568.406-.852.216.284.595.555.609.839.054 1.204.013 2.38.013 3.733zM226.236 61.538c1.245 0 2.394-.027 3.531.014.284.013.568.257.866.392-.271.216-.542.608-.826.622-1.177.068-2.354.027-3.72.027 0 1.082.014 2.083 0 3.097-.013.42.122 1.041-.541.987-.203-.013-.46-.676-.487-1.041-.068-.974-.027-1.961-.027-3.178h-3.166c-.216 0-.487.013-.649-.095-.162-.094-.352-.433-.298-.5.149-.203.406-.433.623-.447a23.94 23.94 0 012.786.041c.677.054.907-.19.88-.852a27.25 27.25 0 010-2.786c.013-.284.27-.568.406-.852.216.284.595.555.608.839.055 1.203.014 2.38.014 3.732zM406.446 50.11c.054-3.272 2.259-5.53 5.33-5.504 2.963.027 5.682 2.65 5.628 5.396-.054 3.03-2.827 5.802-5.709 5.72-3.071-.08-5.303-2.474-5.249-5.611zm5.236-3.421c-1.975 0-3.179 1.38-3.166 3.597.014 1.853 1.529 3.354 3.342 3.327 1.691-.027 3.436-1.84 3.449-3.57.027-1.677-1.785-3.354-3.625-3.354zM260.49 181.157c.027-2.854 2.056-5.058 4.613-5.031 2.841.04 4.965 2.15 4.965 4.923 0 2.948-2.314 5.287-5.128 5.22-2.678-.054-4.478-2.123-4.45-5.112zm4.667 2.732c1.407-.041 2.638-1.407 2.516-2.908-.108-1.285-.676-2.286-2.164-2.272-1.8.013-2.693.933-2.652 2.624.041 1.636.906 2.61 2.3 2.556z" fill="#6500FF"></path><path fill-rule="evenodd" clip-rule="evenodd" d="M315.631 229.572c.324-.23.866-.784 1.542-1.068 10.241-4.341 20.468-8.71 30.75-12.956a317.937 317.937 0 0114.746-5.68c7.765-2.773 14.691-6.992 21.266-11.847 9.876-7.276 19.751-14.633 27.232-24.492 6.183-8.155 11.932-16.675 17.506-25.262 7.441-11.469 14.529-23.14 21.726-34.77 1.732-2.8 3.328-5.68 4.884-8.588.528-.974 1.082-1.122 2.084-.892 7.724 1.758 14.8 5.044 21.591 9.02 2.489 1.461 2.854 2.367 1.907 5.153-3.422 10.048-6.642 20.177-10.403 30.117-3.206 8.466-7.048 16.689-10.566 25.033a31.99 31.99 0 00-1.623 4.936c-.149.622.068 1.542.46 2.042 4.221 5.288 8.604 10.454 12.784 15.769 3.923 4.977 7.63 10.129 11.486 15.147 1.204 1.555 1.285 2.88.311 4.706-3.626 6.735-8.915 12.077-14.232 17.405-10.227 10.278-21.036 19.921-32.468 28.833-4.397 3.435-9.118 6.478-13.772 9.561-2.272 1.502-2.732 1.407-4.68-.54-5.723-5.708-11.432-11.415-17.046-17.23-3.396-3.53-6.561-7.303-9.916-10.86-.582-.608-1.718-1.163-2.489-1.041-2.557.406-5.128.974-7.59 1.758-13.704 4.382-27.8 7.087-41.91 9.724a359.546 359.546 0 01-14.151 2.367c-.731.108-1.989-.339-2.286-.907-1.258-2.407-2.287-4.936-3.328-7.451-2.327-5.559-3.234-11.455-3.815-17.987zm146.809-28.4c-.136-.095-.257-.176-.393-.271-.094-.54-.189-1.095-.297-1.649-.623-2.854-2.733-4.653-4.654-6.6-2.665-2.691-5.317-5.396-7.995-8.074-4.965-4.963-9.957-9.899-14.922-14.849-1.515-1.515-3.22-1.677-4.897-.514a60.588 60.588 0 00-5.682 4.49c-7.644 6.816-15.152 13.794-22.89 20.529-6.561 5.707-13.325 11.184-19.034 17.825-1.191 1.379-1.542 2.637-.325 4.124 4.275 5.248 8.401 10.617 12.838 15.729 4.316 4.963 8.916 9.683 13.421 14.484 1.528 1.636 3.368 2.028 5.424 1.041 1.001-.487 2.097-.879 2.95-1.555 2.962-2.353 5.979-4.666 8.739-7.235 7.089-6.627 14.002-13.416 21.05-20.07 4.518-4.26 9.253-8.29 13.717-12.618 1.313-1.271 1.989-3.178 2.95-4.787z" fill="#E8E1F5"></path><path fill-rule="evenodd" clip-rule="evenodd" d="M431.961 285.398c6.141-4.679 12.27-9.345 18.385-14.01.784-.609 1.515-1.272 2.286-1.907 1.204-.987 2.191-2.272 4.153-1.123.609.366 2.097-.202 2.881-.757 2.422-1.717 4.803-3.543 7.035-5.518 3.504-3.07 6.886-6.288 10.295-9.453 1.218-1.136 1.718-2.515 1.394-4.219-.095-.487.135-1.272.5-1.596 6.9-6.086 13.474-12.51 19.089-19.786 14.894 11.536 29.654 22.964 44.494 34.473-.149.365-.23.73-.419 1.014-6.345 9.981-12.933 19.758-21.713 27.846-1.231 1.136-2.111 1.217-3.49.297-8.483-5.666-17.019-11.225-25.515-16.864-3.463-2.299-6.818-4.774-10.295-7.046-2.34-1.528-5.587-.311-6.561 2.299-.636 1.704.027 3.165.96 4.544 3.613 5.356 7.265 10.697 10.823 16.08 3.639 5.491 7.17 11.049 10.809 16.553.717 1.082.731 1.839-.243 2.718-3.721 3.381-7.224 7.033-11.148 10.143-4.816 3.814-9.956 7.209-14.989 10.752-.906.635-1.921 1.109-2.922 1.677-12-15.472-23.932-30.821-35.809-46.117z" fill="#F4EDFF"></path><path fill-rule="evenodd" clip-rule="evenodd" d="M318.837 140.004c-.23-7.127 1.353-13.849 4.356-20.246 3.125-6.667 7.197-12.536 13.393-16.864 8.469-5.896 17.668-7.938 27.774-6.261 3.071.5 6.128 1 9.186 1.595 11.661 2.272 21.334 8.196 29.207 16.865 7.887 8.695 15.274 17.824 22.917 26.736 1.353 1.583 1.272 2.894.189 4.639-6.52 10.454-13.027 20.962-21.658 29.82-10.769 11.049-22.782 20.583-36.554 27.724-2.245 1.163-4.708 1.934-7.075 2.867-1.177.46-2.165.135-2.976-.838-2.949-3.53-5.966-7.006-8.875-10.563-5.114-6.261-10.214-12.523-15.206-18.879-2.692-3.421-5.303-6.911-7.697-10.535-5.222-7.884-6.954-16.77-6.981-26.06zM305.877 228.409c-.298 11.779 1.366 22.666 8.875 32.106-.609.202-.988.351-1.367.446-7.63 2.015-15.3 3.868-22.849 6.14-1.88.568-3.409 2.38-5.019 3.719-5.141 4.287-10.146 8.777-16.342 11.576-2.124.96-3.991.054-4.356-2.164-.136-.811.135-1.947.663-2.556a95.648 95.648 0 016.114-6.478c1.191-1.163 2.625-2.082 3.951-3.11.852-.649 1.826-1.298 1.285-2.57-.555-1.298-1.718-1.149-2.882-1.054-4.396.378-8.78.757-13.176 1.014-1.083.067-2.232-.162-3.261-.514-1.163-.392-1.555-1.461-.676-2.353 1.448-1.488 2.936-3.084 4.735-4.057 2.936-1.596 6.128-2.732 9.199-4.071 1.042-.446 2.205-.906 1.908-2.353-.298-1.447-1.516-1.38-2.665-1.407-2.544-.04-5.128.081-7.63-.257-1.773-.243-3.585-.919-5.168-1.785-1.921-1.041-1.935-1.893-.338-3.462 2.421-2.394 5.424-3.76 8.725-4.341 4.153-.73 8.361-1.217 12.541-1.826 3.071-.46 3.477-1.663 1.772-4.233-1.88-2.826-3.679-5.72-5.249-8.736-.974-1.893-.176-2.989 1.962-3.029.947-.028 1.961.229 2.854.608 3.829 1.582 6.778 4.355 9.497 7.371 2.07 2.299 4.302 3.164 7.265 1.69 2.557-1.271 5.208-2.353 7.806-3.516.527-.244 1.082-.473 1.826-.798zM487.237 106.924c-7.495-9.399-18.48-11.671-29.546-14.443.798-1.218 1.542-2.313 2.259-3.449.88-1.42 1.664-2.908 2.611-4.287 1.651-2.407 1.096-4.544-.568-6.64-2.557-3.219-5.046-6.478-6.142-10.549-.149-.54-.487-1.122-.392-1.61.243-1.162.46-2.488 1.177-3.326.311-.365 2.056.014 2.773.554 2.611 1.975 5.114 4.112 7.549 6.303 2.016 1.825 3.382 1.595 4.18-1.015 1.245-4.03 2.3-8.128 3.585-12.144 1.015-3.192 2.76-5.978 5.384-8.114 1.949-1.583 2.693-1.326 3.829.852 1.299 2.488.96 5.071.676 7.668-.189 1.852-.635 3.692-.676 5.544-.014.812.703 1.637 1.082 2.448.758-.392 1.827-.595 2.246-1.217 1.894-2.84 3.463-5.896 5.452-8.669 1.123-1.569 2.678-2.934 4.275-4.03 1.772-1.217 3.071-.473 3.017 1.704-.055 2.096-.46 4.193-.893 6.248-.663 3.097-1.461 6.154-2.232 9.223-.285 1.11-.42 2.34.784 2.705.704.217 1.854-.31 2.543-.838 3.518-2.732 6.913-5.626 10.444-8.331.717-.541 1.881-.839 2.787-.73 2.192.27 3.233 2.596 2.097 4.517-.879 1.487-1.799 3.043-3.017 4.233-4.166 4.07-8.536 7.952-12.703 12.022-1.339 1.299-2.597 2.854-3.368 4.53-3.125 6.709-6.034 13.565-9.213 20.841z" fill="#E8E1F5"></path><path fill-rule="evenodd" clip-rule="evenodd" d="M529.283 298.557c4.248-4.395 8.645-8.695 12.744-13.266 4.045-4.517 7.779-9.305 11.81-14.146.365.311 1.109.933 1.826 1.582 3.031 2.759 6.075 5.518 9.064 8.331 1.231 1.149 2.544 1.541 4.235 1.406 5.059-.446 9.564-2.624 14.204-4.368 1.096-.419 2.219-.785 3.342-1.15 2.381-.757 4.153.311 5.506 2.11 4.397 5.815 3.355 13.51-2.679 17.554-9.497 6.356-19.102 12.591-29.478 17.486-3.544 1.677-7.21 1.637-10.484-.622-4.181-2.907-8.171-6.072-12.257-9.115a767.15 767.15 0 00-7.833-5.802zM476.671 342.05c10.336-6.735 20.333-13.619 28.816-22.72 1.596 2.137 3.125 4.219 4.68 6.288 2.963 3.909 5.993 7.777 8.902 11.726 2.8 3.813 3.179 7.979.906 12.09-3.936 7.113-8.062 14.132-12.189 21.138-1.569 2.677-3.246 5.301-5.059 7.816-4.18 5.856-11.973 6.925-17.6 2.462-1.786-1.407-2.801-3.219-1.962-5.559 1.015-2.867 2.246-5.653 3.166-8.56.906-2.894 1.555-5.856 2.272-8.804.433-1.745-.243-3.111-1.434-4.382-3.057-3.259-6.06-6.586-9.077-9.886-.514-.527-.974-1.095-1.421-1.609z" fill="#F4EDFF"></path><path fill-rule="evenodd" clip-rule="evenodd" d="M437.047 297.976c-2.814 1.501-5.533 3.313-8.509 4.436-3.085 1.163-6.277.757-8.902-1.61-11.621-10.481-23.417-20.799-34.795-31.551-5.763-5.437-10.795-11.671-16.139-17.554-.108-.122-.162-.324-.311-.663 1.569-.513 3.057-1.054 4.586-1.501 4.113-1.19 8.252-2.299 12.365-3.502 2.8-.825 3.03-.65 4.978 1.393a2798.48 2798.48 0 0025.704 26.452c1.164 1.177 2.828 1.867 4.248 2.786.203.135.365.325.528.528 5.303 6.653 10.606 13.307 15.895 19.974.122.109.149.298.352.812zM469.759 159.951c7.927 9.332 15.936 18.082 22.497 28.008 5.858 8.858 11.824 17.662 18.114 26.209 4.884 6.627 2.693 11.726-1.866 16.472-.271-.162-.596-.311-.866-.527-6.21-4.963-12.419-9.913-18.629-14.89-.324-.257-.676-.568-.865-.919-1.232-2.259-2.151-4.747-3.68-6.762-7.184-9.44-14.543-18.731-21.767-28.13-.501-.649-.717-1.866-.487-2.651.473-1.595 1.366-3.056 2.029-4.584 1.312-3.016 2.584-6.045 3.91-9.061.446-1.001.987-1.961 1.61-3.165z" fill="#D5BAFF"></path><path fill-rule="evenodd" clip-rule="evenodd" d="M447.748 257.688l20.604-18.528c2.448 2.976 4.951 5.937 7.332 8.994.812 1.028.379 2.123-.555 2.989-3.382 3.11-6.723 6.275-10.159 9.318-1.949 1.731-4.059 3.272-6.088 4.909-1.028.825-1.921.838-2.936-.136-2.638-2.515-5.357-4.936-8.198-7.546z" fill="#BB9AF5"></path><path fill-rule="evenodd" clip-rule="evenodd" d="M496.206 225.393c-5.763 7.452-12.256 13.916-19.399 19.921l-6.981-7.844c5.912-6.086 12.27-11.969 16.491-19.988 3.369 2.691 6.534 5.233 9.889 7.911zM499.994 310.58c1.326 2.083 2.625 3.963 3.721 5.951.189.351-.19 1.298-.596 1.663-4.41 3.99-8.766 8.074-13.379 11.82-3.747 3.043-7.819 5.707-11.797 8.466-2.475 1.704-3.287 1.542-5.316-.771-.893-1.014-1.746-2.083-2.747-3.286 10.755-7.073 21.402-13.998 30.114-23.843zM453.132 265.992c-1.691 1.406-3.26 2.799-4.938 4.057a1513.355 1513.355 0 01-15.814 11.847c-2.138 1.582-2.178 1.528-3.802-.487-1.677-2.069-3.341-4.138-5.046-6.248 8.442-4.301 15.22-10.454 22.403-15.999 2.408 2.286 4.735 4.49 7.197 6.83zM545.503 263.652c1.894 1.65 3.72 3.138 5.384 4.774.298.297.149 1.352-.121 1.88-3.139 6.031-7.941 10.765-12.527 15.633-2.896 3.07-5.831 6.1-8.889 9.021-2.381 2.272-2.502 2.191-5.208.446-.771-.5-1.515-1.028-2.449-1.65 9.727-8.615 16.654-19.19 23.81-30.104zM484.883 113.943c-3.328-4.098-7.995-6.248-12.635-8.209-4.884-2.069-10.025-3.584-15.084-5.247-2.192-.717-3.071-2.516-1.773-4.41.379-.554 1.448-1.122 2.043-.986 3.626.797 7.224 1.771 10.809 2.732 1.38.365 2.692.946 4.072 1.311 5.736 1.569 9.484 5.964 13.745 9.616.744.662 0 3.813-1.177 5.193zM321.421 259.23c-2.368 1.325-3.937.96-5.384-.947-6.386-8.398-7.982-18.095-7.779-28.292 0-.189-.027-.405.054-.554.446-.798.879-2.191 1.393-2.218 1.299-.081 2.206.784 2.395 2.286.473 3.692.73 7.451 1.677 11.021 1.299 4.896 3.044 9.684 4.817 14.444.568 1.501 1.812 2.772 2.827 4.26z" fill="#D2BFF5"></path><path fill-rule="evenodd" clip-rule="evenodd" d="M422.829 132.728c2.422-2.813 5.222-5.139 8.455-6.911.528-.284 1.434-.054 2.111.149 1.352.406 2.665.947 4.329 1.555-2.855 4.558-5.56 8.885-8.374 13.375a1725.72 1725.72 0 01-6.521-8.168zM348.68 200.996c2.327 2.637 4.357 4.937 6.548 7.425-4.938 2.191-9.591 4.26-14.232 6.329-1.84-3.462-1.758-4.869.744-7.397 2.124-2.137 4.451-4.085 6.94-6.357zM338.399 328.648c10.566.121 19.332 4.422 26.799 11.671 4.627 4.476 8.266 9.561 10.12 15.836.581 1.975.378 3.314-1.353 4.625-8.739 6.573-17.073 13.727-26.15 19.772-13.65 9.088-27.787 17.419-41.749 26.034-.514.311-1.65.365-2.042.027-9.416-8.398-15.003-18.623-14.354-31.578.352-6.911 2.814-13.267 6.237-19.164 8.55-14.714 21.144-23.937 38.028-27.034a11.586 11.586 0 011.664-.176c.933-.027 1.867-.013 2.8-.013zm4.072 43.33c-.392-2.718-1.908-5.139-4.004-6.086-2.544-1.149-4.546.163-4.478 2.949.067 2.447 1.163 4.381 3.274 5.49.974.514 2.475.785 3.409.379.838-.352 1.217-1.772 1.799-2.732zm-24.54.541c.054-2.907-2.03-5.585-3.788-5.504-1.191.054-1.759.798-1.799 1.947-.082 2.002 2.178 5.112 3.76 4.883.799-.109 1.461-1.042 1.827-1.326zm23.12-23.951c1.041 1.38 1.907 2.949 3.179 4.071 1.204 1.055 2.705.122 2.827-1.528.135-1.785-1.109-3.908-2.733-4.706-1.542-.744-2.908.135-3.273 2.163zM376.305 361.849c2.557 19.569-6.101 39.327-24.229 48.618-15.328 7.871-36.418 6.492-45.198-1.677 24.256-13.929 48.039-28.427 69.427-46.941z" fill="#D5BAFF"></path><path fill-rule="evenodd" clip-rule="evenodd" d="M433.219 414.878c-2.233-6.694-5.926-12.144-12.622-15.444 6.723-3.651 8.468-9.845 9.24-16.742 2.746 6.68 4.856 13.78 13.42 15.525-6.954 3.516-8.645 9.899-10.038 16.661zM535.709 166.294c7.089-3.259 9.213-9.359 10.457-16.134 2.314 6.83 3.937 14.011 12.798 16.215-3.517 1.799-6.426 3.489-7.806 6.735-1.298 3.043-2.421 6.153-3.544 9.034-1.393-2.921-2.665-5.991-4.289-8.858-1.65-2.948-4.099-5.261-7.616-6.992zM768.611 366.041c5.759-.384 8.859-4.063 11.535-8.447-.239 5.367-1.048 10.795 4.466 14.684-2.906.317-5.364.72-7.186 2.612-1.711 1.772-3.32 3.638-4.866 5.344-.177-2.403-.229-4.877-.578-7.304-.346-2.49-1.412-4.75-3.371-6.889zM351.44 289.51c-3.625-.081-5.695-2.326-5.655-6.14.041-2.989 2.449-5.64 5.087-5.585 3.612.067 6.426 2.826 6.304 6.194-.135 3.746-2.07 5.612-5.736 5.531zM411.682 46.689c1.826 0 3.652 1.677 3.625 3.354-.013 1.731-1.758 3.543-3.449 3.57-1.813.027-3.328-1.474-3.342-3.327-.013-2.218 1.191-3.584 3.166-3.597zM265.157 183.889c-1.393.04-2.259-.934-2.3-2.57-.04-1.69.853-2.597 2.652-2.624 1.488-.013 2.07.988 2.164 2.272.122 1.529-1.109 2.881-2.516 2.922z" fill="#FFEAA9"></path><path fill-rule="evenodd" clip-rule="evenodd" d="M223.151 387.152c.028-2.853 2.057-5.058 4.614-5.031 2.841.041 4.964 2.151 4.964 4.923 0 2.948-2.313 5.288-5.127 5.22-2.678-.054-4.478-2.123-4.451-5.112zm4.668 2.732c1.407-.041 2.638-1.406 2.516-2.908-.108-1.284-.676-2.285-2.165-2.272-1.799.014-2.692.934-2.651 2.61.027 1.65.906 2.611 2.3 2.57z" fill="#6500FF"></path><path fill-rule="evenodd" clip-rule="evenodd" d="M227.819 389.884c-1.394.04-2.259-.933-2.3-2.57-.041-1.69.852-2.596 2.651-2.61 1.489-.013 2.07.987 2.165 2.272.122 1.515-1.109 2.867-2.516 2.908z" fill="#FFEAA9"></path><path fill-rule="evenodd" clip-rule="evenodd" d="M639.228 331.366c.027-2.853 2.056-5.058 4.613-5.031 2.841.041 4.965 2.151 4.965 4.923 0 2.948-2.314 5.288-5.128 5.22-2.678-.054-4.478-2.137-4.45-5.112zm4.667 2.732c1.407-.04 2.638-1.406 2.516-2.908-.108-1.284-.676-2.285-2.178-2.272-1.799.014-2.692.934-2.652 2.611.041 1.636.92 2.61 2.314 2.569z" fill="#6500FF"></path><path fill-rule="evenodd" clip-rule="evenodd" d="M643.895 334.098c-1.394.04-2.259-.933-2.3-2.57-.041-1.69.852-2.596 2.652-2.61 1.488-.013 2.069.987 2.178 2.272.108 1.501-1.123 2.867-2.53 2.908z" fill="#FFEAA9"></path><path fill-rule="evenodd" clip-rule="evenodd" d="M462.44 201.172c-.961 1.609-1.637 3.503-2.936 4.76-4.464 4.328-9.199 8.358-13.718 12.618-7.061 6.64-13.974 13.443-21.05 20.069-2.759 2.583-5.776 4.896-8.739 7.236-.866.676-1.948 1.082-2.949 1.555-2.056.987-3.883.595-5.425-1.041-4.491-4.815-9.104-9.521-13.42-14.484-4.437-5.112-8.563-10.481-12.838-15.729-1.204-1.487-.866-2.732.324-4.124 5.709-6.627 12.46-12.118 19.035-17.825 7.738-6.721 15.246-13.7 22.89-20.529a60.41 60.41 0 015.681-4.49c1.678-1.163 3.382-.987 4.898.514 4.965 4.963 9.956 9.899 14.921 14.849 2.679 2.678 5.33 5.383 7.996 8.074 1.921 1.947 4.031 3.746 4.653 6.599.122.541.203 1.096.298 1.65.122.122.257.217.379.298zm-79.858 12.807c2.652 3.354 4.816 6.383 7.265 9.169 6.061 6.911 12.189 13.767 18.439 20.516 2.327 2.515 3.044 2.529 5.898.514 2.977-2.11 5.858-4.423 8.523-6.911 7.035-6.586 13.894-13.362 20.901-19.961 4.654-4.395 9.484-8.601 14.192-12.943 2.205-2.028 2.408-4.246.662-6.64-.879-1.19-1.934-2.272-2.962-3.34a1258.816 1258.816 0 00-8.537-8.601c-4.518-4.531-9.091-9.007-13.541-13.605-1.462-1.515-2.76-1.447-4.167-.203-2.327 2.055-4.546 4.233-6.873 6.275-8.495 7.465-17.059 14.849-25.5 22.368-4.776 4.26-9.348 8.723-14.3 13.362zM381.257 110.102c.554.23 1.637.406 2.299 1.028 3.599 3.34 7.184 6.694 10.58 10.238 5.1 5.314 10.146 10.71 15.002 16.228 1.259 1.42 2.057 3.408 2.557 5.274.298 1.123-.013 2.827-.73 3.733-3.802 4.882-7.576 9.832-11.838 14.308a395.612 395.612 0 01-19.372 19.055c-4.803 4.423-10.025 8.439-16.058 11.171-2.029.92-3.829.906-5.398-.865-4.288-4.869-8.726-9.616-12.852-14.606-3.084-3.733-5.83-7.763-8.617-11.739-1.407-2.001-2.638-4.152-3.829-6.288-1.041-1.894-.974-3.909-.379-5.964 1.543-5.302 4.681-9.684 8.036-13.889 6.129-7.655 12.852-14.728 21.064-20.219 5.817-3.867 12.026-6.735 19.535-7.465zm-.19 2.367c-5.33.351-9.388 2.042-13.285 4.098-8.428 4.422-15.192 10.859-21.415 17.919-3.95 4.476-7.643 9.142-10.403 14.511-1.867 3.638-1.813 7.032.541 10.373 2.57 3.624 4.965 7.384 7.752 10.846 4.87 6.058 9.97 11.914 14.948 17.878 1.191 1.42 2.503 1.826 4.113.758 3.977-2.651 8.239-4.977 11.878-8.034a223.428 223.428 0 0016.193-15.011c5.506-5.64 10.539-11.752 15.869-17.581 2.422-2.651 2.909-5.342.798-8.344-.473-.663-.933-1.339-1.488-1.948-3.314-3.624-6.615-7.276-10.011-10.832-4.126-4.314-8.293-8.588-12.541-12.78-.947-.961-2.34-1.488-2.949-1.853zM342.471 371.978c-.582.961-.947 2.381-1.786 2.732-.933.392-2.435.135-3.409-.378-2.11-1.109-3.206-3.043-3.274-5.491-.067-2.786 1.935-4.098 4.478-2.948 2.084.946 3.585 3.367 3.991 6.085zM317.931 372.519c-.366.284-1.042 1.218-1.827 1.326-1.583.23-3.828-2.881-3.761-4.882.041-1.15.609-1.894 1.8-1.948 1.758-.081 3.855 2.597 3.788 5.504zM341.051 348.569c.351-2.015 1.731-2.908 3.26-2.151 1.637.798 2.868 2.921 2.733 4.707-.122 1.65-1.624 2.583-2.828 1.528-1.258-1.136-2.124-2.705-3.165-4.084z" fill="#6500FF"></path><path fill-rule="evenodd" clip-rule="evenodd" d="M382.582 213.979c4.952-4.639 9.524-9.101 14.286-13.348 8.442-7.519 17.005-14.903 25.501-22.368 2.327-2.056 4.546-4.22 6.872-6.275 1.407-1.245 2.706-1.299 4.167.202 4.451 4.599 9.023 9.075 13.542 13.605 2.854 2.854 5.709 5.707 8.536 8.602 1.042 1.068 2.084 2.136 2.963 3.34 1.759 2.38 1.542 4.598-.663 6.64-4.708 4.341-9.524 8.561-14.191 12.943-7.008 6.613-13.867 13.388-20.901 19.961-2.665 2.502-5.547 4.801-8.523 6.91-2.841 2.015-3.572 2.002-5.898-.513-6.25-6.735-12.379-13.605-18.439-20.516-2.436-2.786-4.6-5.815-7.252-9.183zm60.201-27.291c-.595-.947-.96-1.826-1.583-2.475-1.149-1.217-2.394-2.339-3.693-3.421-2.07-1.731-2.53-1.65-4.613.094-6.561 5.504-13.149 10.982-19.724 16.486-7.238 6.045-14.462 12.117-21.727 18.135-1.325 1.109-1.474 2.259-.392 3.517a174.953 174.953 0 005.006 5.517c.852.906 1.853.947 2.827.135a77.981 77.981 0 002.273-1.933c2.557-2.259 4.965-4.72 7.67-6.776 11.337-8.601 22.362-17.581 32.563-27.534.5-.487.879-1.109 1.393-1.745zm-7.467 15.742c.027 3.989 3.152 7.83 6.331 7.762 3.855-.094 7.643-4.124 7.589-8.087-.04-3.11-4.288-6.397-8.252-6.397-2.976 0-5.695 3.233-5.668 6.722zm-23.607 18.825c-3.978.041-7.008 2.705-7.008 6.153 0 3.746 3.964 7.195 8.293 7.209 3.26.013 6.128-3.179 6.047-6.735-.081-3.665-3.396-6.654-7.332-6.627zm16.112.392c3.761-.027 6.494-2.556 6.453-5.964-.041-3.854-3.734-7.614-7.481-7.614-2.922 0-6.575 3.503-6.548 6.248.054 4.071 3.45 7.357 7.576 7.33z" fill="#D2BFF5"></path><path fill-rule="evenodd" clip-rule="evenodd" d="M381.067 112.469c.609.365 2.002.892 2.976 1.853 4.248 4.192 8.415 8.466 12.541 12.78 3.396 3.556 6.683 7.208 10.011 10.832.555.595 1.015 1.272 1.488 1.948 2.111 3.002 1.624 5.693-.798 8.344-5.317 5.829-10.349 11.941-15.869 17.581a222.99 222.99 0 01-16.193 15.011c-3.639 3.057-7.887 5.383-11.878 8.034-1.61 1.068-2.922.662-4.113-.758-4.978-5.964-10.092-11.82-14.948-17.878-2.774-3.462-5.182-7.222-7.752-10.846-2.367-3.341-2.408-6.722-.541-10.373 2.746-5.369 6.453-10.035 10.403-14.511 6.223-7.06 12.987-13.511 21.415-17.919 3.87-2.056 7.928-3.747 13.258-4.098z" fill="#F4EDFF"></path><path fill-rule="evenodd" clip-rule="evenodd" d="M442.783 186.688c-.514.635-.893 1.257-1.393 1.744-10.201 9.94-21.226 18.92-32.563 27.535-2.705 2.056-5.113 4.517-7.67 6.775a76.483 76.483 0 01-2.273 1.934c-.974.798-1.975.771-2.827-.135a173.883 173.883 0 01-5.006-5.518c-1.082-1.257-.933-2.407.392-3.516 7.265-6.032 14.489-12.09 21.727-18.135 6.575-5.491 13.163-10.968 19.724-16.486 2.083-1.745 2.543-1.812 4.613-.095 1.285 1.069 2.544 2.205 3.693 3.422.609.649.988 1.528 1.583 2.475zm-2.868-.46c-1.298-1.19-2.53-2.434-3.882-3.476-.339-.27-1.286-.162-1.691.136-1.096.797-2.016 1.839-3.085 2.691-9.835 7.992-19.711 15.931-29.505 23.951-3.057 2.501-5.939 5.233-9.064 8.006 1.664 1.812 3.166 3.448 4.735 5.152 13.785-12.631 29.573-22.598 42.492-36.46zM435.316 202.43c-.027-3.489 2.692-6.722 5.654-6.722 3.964 0 8.212 3.287 8.253 6.397.054 3.963-3.734 7.993-7.59 8.087-3.152.082-6.29-3.759-6.317-7.762zm2.367-.108c-.013 2.569 1.989 5.409 3.842 5.477 2.381.081 5.249-2.813 5.33-5.356.054-1.92-3.003-4.327-5.519-4.341-1.705-.013-3.653 2.245-3.653 4.22zM411.708 221.255c3.951-.041 7.252 2.948 7.333 6.64.081 3.557-2.787 6.748-6.047 6.735-4.316-.014-8.28-3.476-8.293-7.208 0-3.462 3.03-6.127 7.007-6.167zm.068 2.339c-2.462.014-4.667 1.84-4.694 3.882-.027 2.272 2.976 4.733 5.803 4.774 1.989.027 3.829-2.056 3.788-4.274-.054-2.339-2.34-4.395-4.897-4.382zM427.821 221.647c-4.126.027-7.522-3.259-7.562-7.316-.027-2.759 3.625-6.248 6.548-6.248 3.733 0 7.427 3.746 7.481 7.613.04 3.395-2.706 5.924-6.467 5.951zm-.081-2.353c2.408.013 4.14-1.474 4.167-3.557.027-2.394-2.638-5.261-4.898-5.261-1.731 0-4.383 2.408-4.356 3.949.041 2.678 2.314 4.855 5.087 4.869z" fill="#6500FF"></path><path fill-rule="evenodd" clip-rule="evenodd" d="M439.915 186.228c-12.933 13.862-28.707 23.829-42.492 36.461-1.569-1.704-3.057-3.327-4.735-5.153 3.125-2.772 6.007-5.504 9.064-8.006 9.808-8.033 19.67-15.972 29.505-23.951 1.055-.865 1.975-1.893 3.085-2.691.405-.298 1.339-.392 1.691-.135 1.366 1.041 2.584 2.272 3.882 3.475zM437.683 202.322c0-1.975 1.948-4.233 3.653-4.22 2.516.014 5.573 2.421 5.519 4.341-.081 2.556-2.949 5.437-5.33 5.356-1.853-.054-3.855-2.894-3.842-5.477zM411.776 223.595c2.557-.014 4.843 2.042 4.898 4.381.04 2.218-1.8 4.301-3.788 4.274-2.828-.041-5.831-2.502-5.804-4.774.014-2.028 2.232-3.868 4.694-3.881zM427.74 219.294c-2.774-.014-5.046-2.191-5.087-4.882-.027-1.555 2.625-3.949 4.356-3.949 2.259 0 4.924 2.867 4.897 5.261-.027 2.096-1.758 3.57-4.166 3.57z" fill="#BB9AF5"></path><path fill-rule="evenodd" clip-rule="evenodd" d="M398.221 107.763a7767.97 7767.97 0 0020.333 21.814c1.218 1.298 2.517 2.529 3.666 3.692l.203-.162a19.076 19.076 0 002.246 2.583c-.041.027-.081.067-.122.094.677.812 1.326 1.596 1.975 2.353.109 1.407 1.177 4.599.46 5.964-1.948-4.476-5.709-6.694-7.9-9.115-5.425-5.991-10.85-11.982-16.369-17.878-2.977-3.178-6.034-6.289-9.254-9.21-7.007-6.356-15.53-9.385-24.716-10.832-7.008-1.312-13.893-.744-20.671 1.257-5.682 1.677-10.944 4.057-15.504 7.763a71.06 71.06 0 01-2.394-2.543c4.329-3.502 9.091-6.153 14.435-7.857 10.159-3.246 20.373-3.57 30.695-.825 8.74 2.353 16.654 6.167 22.917 12.902z" fill="#6500FF"></path><path d="M361.505 152.175c1.691 1.934 2.273 4.192 1.299 5.045-.974.852-3.139-.014-4.83-1.948-1.691-1.934-2.272-4.192-1.298-5.044.987-.852 3.138.027 4.829 1.947zM378.984 136.528c1.691 1.934 2.273 4.192 1.298 5.044-.974.852-3.138-.013-4.829-1.947-1.691-1.934-2.273-4.192-1.299-5.044.988-.866 3.139.013 4.83 1.947zM381.689 153.5c-.473-.135-.811-.108-.852-.108a.648.648 0 00-.595.69.648.648 0 00.69.595c.013 0 .216 0 .487.081.27.081.595.244.906.595.122.135.257.392.352.69.135.46.162 1.055 0 1.677-.176.622-.528 1.258-1.204 1.853-.095.081-.189.148-.284.229-1.136.866-2.07 1.272-2.827 1.407a3.44 3.44 0 01-1.042.041 3.466 3.466 0 01-.907-.244.636.636 0 00-.838.352.647.647 0 00.351.838c.379.162.799.271 1.245.338.676.081 1.407.014 2.205-.257.798-.27 1.651-.73 2.584-1.447.122-.094.244-.189.352-.284.568-.5.987-1.055 1.271-1.623.42-.852.542-1.731.474-2.501a3.892 3.892 0 00-.257-1.069 3.001 3.001 0 00-.514-.852 3.269 3.269 0 00-1.597-1.001z" fill="#6500FF"></path><path fill-rule="evenodd" clip-rule="evenodd" d="M382.325 155.353a1.928 1.928 0 00-.906-.595c-.271-.081-.474-.081-.487-.081a.649.649 0 01-.69-.595.648.648 0 01.595-.69h.018c.084-.003.403-.015.834.108.46.122 1.069.406 1.597 1.001.216.243.379.528.514.852.135.325.216.69.257 1.068a4.73 4.73 0 01-.474 2.502 5.374 5.374 0 01-1.271 1.623c-.108.095-.23.189-.352.284-.933.717-1.786 1.177-2.584 1.447-.798.271-1.529.338-2.205.257a5.096 5.096 0 01-1.245-.338.647.647 0 01-.351-.838.636.636 0 01.838-.352c.298.122.582.203.907.243a3.4 3.4 0 001.041-.04c.758-.135 1.692-.541 2.828-1.407.047-.04.095-.077.142-.115.047-.037.095-.074.142-.114.676-.596 1.028-1.231 1.204-1.853a3.196 3.196 0 000-1.677c-.095-.298-.23-.555-.352-.69zm-.104.829c-.084-.261-.192-.445-.25-.51l-.003-.003a1.452 1.452 0 00-1.016-.514l-.009-.001a1.126 1.126 0 01-1.177-1.036 1.126 1.126 0 011.035-1.202l.018-.001h.018c-.014 0 .127-.007.296.005a3.735 3.735 0 012.509 1.264c.261.294.449.627.598.986.158.377.247.789.291 1.201l.001.009c.075.85-.06 1.818-.521 2.754l-.001.003a5.864 5.864 0 01-1.383 1.767l-.001.001a7.84 7.84 0 01-.367.297l-.008.007c-.967.742-1.865 1.23-2.722 1.52-.861.292-1.664.369-2.415.279l-.007-.001-.007-.001a5.563 5.563 0 01-1.36-.371 1.124 1.124 0 01-.607-1.458c.238-.589.9-.845 1.462-.612.265.108.507.177.784.211.269.034.558.024.899-.037.66-.118 1.521-.479 2.612-1.308.051-.044.101-.083.143-.116l.003-.003a2.8 2.8 0 00.124-.1c.603-.53.905-1.083 1.057-1.617.139-.537.112-1.04.004-1.413z" fill="#6500FF"></path><path d="M356.879 140.68s.73-.636 2.002.825c1.271 1.46-.541 3.056-.541 3.056s-6.967 6.437-7.441 8.439c-.473 2.028-.338 2.556-.893 3.029-.365.325-1.096.96-2.367-.5-1.285-1.461-.663-5.545 2.259-8.101 2.922-2.542 6.981-6.748 6.981-6.748zM364.725 133.809s-.731.636.554 2.097c1.286 1.46 3.098-.136 3.098-.136s7.306-6.058 9.362-6.261c2.083-.203 2.584 0 3.125-.487.365-.325 1.096-.96-.189-2.421-1.286-1.46-5.412-1.393-8.334 1.163-2.908 2.583-7.616 6.045-7.616 6.045zM390.577 165.591a2.891 2.891 0 00-4.099 0 2.889 2.889 0 000 4.097l4.099-4.097z" fill="#6500FF"></path></svg>