<svg id="angela" viewBox="0 0 72 72" fill="none" xmlns="http://www.w3.org/2000/svg">
							<g clip-path="url(#6_svg__clip0)">
								<path d="M47.067 70.164l-22.122-2.373c-8.369 0-12.668-6.874-15.216-15.219L5.62 29.998c-2.145-12.24 5.185-18.292 13.551-18.292l32.429 2.647c8.37 0 15.216 6.848 15.216 15.216L62.283 54.95c-2.122 8.328-5.986 14.986-15.216 15.214z" fill="#B2F2BF"></path>
								<path d="M63.697 71.58s-.236-10.65-12.06-15.05c0 0-4.495 6.946-15.61 11.577C24.914 63.477 20.42 56.53 20.42 56.53 8.594 60.93 8.357 71.58 8.357 71.58h55.34z" fill="#fff"></path>
								<path d="M62.623 65.456a17.67 17.67 0 00-3.714-5.136c-1.741-1.672-4.045-3.207-7.071-4.332a.58.58 0 00-.688.227c-.014.02-1.128 1.727-3.6 3.994-2.439 2.237-6.197 5.015-11.522 7.268-5.368-2.271-9.144-5.075-11.58-7.321a28.583 28.583 0 01-2.705-2.837 16.559 16.559 0 01-.792-1.037.906.906 0 01-.034-.053l-.007-.012-.003-.002c-.148-.227-.433-.322-.687-.227-3.027 1.125-5.33 2.66-7.072 4.332a17.74 17.74 0 00-4.645 7.484c-.687 2.174-.724 3.723-.724 3.765a.577.577 0 00.579.59h55.34a.582.582 0 00.414-.174.573.573 0 00.164-.416c-.002-.054-.064-2.793-1.653-6.113zm-48.639-4.337c1.544-1.473 3.566-2.839 6.222-3.886.477.649 1.59 2.057 3.457 3.775 2.554 2.354 6.516 5.288 12.142 7.634a.57.57 0 00.445 0c5.626-2.343 9.586-5.28 12.142-7.634 1.866-1.72 2.98-3.126 3.457-3.775 2.68 1.056 4.71 2.436 6.259 3.923a16.595 16.595 0 014.34 6.997 15.52 15.52 0 01.576 2.499c.018.13.032.245.044.352H8.985c.109-.943.451-2.904 1.526-5.12a16.481 16.481 0 013.473-4.765z" fill="#409952"></path>
								<path d="M30.007 41.132s.695 6.483-.463 8.335c-1.98 3.166-9.125 7.063-9.125 7.063s4.494 6.946 15.608 11.577c11.115-4.631 15.61-11.577 15.61-11.577s-7.147-3.897-9.126-7.063c-1.158-1.852-.463-8.335-.463-8.335h-12.04z" fill="#E1FFE7"></path>
								<path d="M52.085 56.416a.458.458 0 00-.227-.291l-.018-.012a53.78 53.78 0 01-3.955-2.438c-.982-.67-2.008-1.424-2.899-2.193-.892-.769-1.646-1.558-2.082-2.258a2.65 2.65 0 01-.273-.673c-.12-.429-.204-.973-.255-1.568a22.243 22.243 0 01-.071-1.866c0-1.012.05-1.999.102-2.73.025-.366.05-.67.069-.878.01-.104.019-.187.023-.243.005-.056.01-.083.01-.083a.464.464 0 00-.461-.512h-12.04a.464.464 0 00-.46.512 41.313 41.313 0 01.204 3.934c-.002.843-.039 1.704-.136 2.443a7.465 7.465 0 01-.192.99 2.651 2.651 0 01-.274.674c-.451.723-1.24 1.54-2.17 2.332-1.393 1.19-3.095 2.339-4.443 3.184a52.653 52.653 0 01-2.167 1.29l-.13.071a.464.464 0 00-.21.68c.032.052 4.591 7.075 15.82 11.754.112.05.24.05.356 0 11.227-4.68 15.787-11.702 15.82-11.753.068-.109.09-.24.06-.366zM36.027 67.602c-5.406-2.278-9.206-5.103-11.658-7.36a28.83 28.83 0 01-2.716-2.849c-.239-.29-.422-.528-.558-.71a56.979 56.979 0 003.404-2.112c1.028-.693 2.118-1.484 3.086-2.311.968-.829 1.813-1.686 2.353-2.547.164-.266.285-.574.38-.915.143-.514.229-1.104.284-1.734.056-.63.074-1.297.074-1.947 0-1.438-.1-2.807-.162-3.52h11.024a42.212 42.212 0 00-.162 3.52c0 .868.037 1.764.141 2.563.054.4.123.778.218 1.118.095.343.215.65.38.915.54.859 1.384 1.718 2.352 2.547 1.452 1.241 3.182 2.403 4.555 3.265.822.514 1.512.917 1.936 1.16-1.123 1.514-5.676 7.016-14.93 10.917z" fill="#409952"></path>
								<path d="M35.67 7.453s-12.744.81-12.744 17.25 10.448 20.724 12.976 20.724c2.526 0 12.745-4.284 12.745-20.724S35.902 7.453 35.902 7.453h-.231z" fill="#E1FFE7"></path>
								<path d="M58.488 32.564s-3.474.232-3.705-6.946c0 0 2.779 2.084 4.631.926 0 0-2.547-1.39-3.473-7.178-.927-5.789-4.4-12.503-8.568-11.114 0 0-2.315-6.252-11.577-6.252s-14.124 4.863-16.671 8.799c-2.547 3.936-3.242 6.715-6.484 7.64 0 0 1.853 2.085 5.094-.694 0 0 0 5.094-7.41 11.346 0 0 3.01 1.39 7.873-3.01 0 0 0 8.567-6.483 11.114 0 0 3.242 2.547 6.715-1.157 0 0-.695 3.241-3.242 3.473 0 0 2.316 1.158 5.094-1.39 0 0-.231 4.863-4.63 6.947 0 0 3.473 3.705 8.335 3.705 4.863 0 6.02-3.304 6.02-3.304l.028-2.182a15.02 15.02 0 002.568 1.628c.692.34 1.331.584 1.89.741.557.158 1.03.234 1.41.234.38 0 .847-.076 1.4-.234.964-.275 2.18-.81 3.464-1.683.378-.257.762-.544 1.146-.862-.048.436-.097 1.08-.097 1.96 0 1.852 1.39 5.556 6.715 5.556 5.326 0 9.03-3.241 9.494-4.862 0 0-2.779 2.084-5.789-3.473 0 0 3.242.694 5.326-1.39 0 0-4.631-.463-4.4-5.788 0-.003 3.473.692 5.326-2.55zM38.75 44.086a9.847 9.847 0 01-1.705.679c-.488.14-.893.199-1.146.199-.252 0-.66-.058-1.157-.2-.871-.245-2.024-.74-3.254-1.56-1.845-1.232-3.864-3.198-5.427-6.18-1.563-2.982-2.672-6.988-2.672-12.32 0-.154.002-.304.004-.454.352-.454 1.179-1.274 2.79-1.758 2.316-.695 12.157-2.431 14.935-4.747 0 0-1.389 2.547-2.547 3.01-1.158.463 3.705-.926 5.789-5.557 0 0 .232 1.158 1.158 2.084 2.12 2.686 2.494 7.713 2.461 11.221-.646 5.946-2.778 9.88-5.103 12.413-1.392 1.52-2.86 2.536-4.126 3.17z" fill="#409952"></path>
								<path d="M40.89 34.648s-1.158.927-1.39 1.39c-.462.926-1.822 2.547-3.241 2.547-.875 0-2.065-.128-3.705-2.084-.194-.232-1.176-.799-1.176-.799s4.881 3.346 9.512-1.054z" fill="#fff"></path>
								<path d="M41.152 34.42a.348.348 0 00-.48-.045 14.86 14.86 0 00-.625.535c-.023.02-.048.046-.072.067-1.549 1.218-3.068 1.59-4.395 1.593a7.723 7.723 0 01-2.88-.583 7.447 7.447 0 01-.81-.387c-.19-.118-.336-.201-.338-.204a.348.348 0 00-.37.588c.006.005.136.093.363.218a9.613 9.613 0 01.58.382c.045.032.084.065.114.088a.312.312 0 01.049.046c.843 1.008 1.59 1.568 2.262 1.869.67.303 1.255.34 1.709.338.421 0 .824-.12 1.195-.303.556-.278 1.046-.702 1.45-1.144.402-.445.715-.908.907-1.292a1.66 1.66 0 01.26-.331c.101-.11.22-.225.34-.338.24-.19.481-.396.72-.626a.338.338 0 00.02-.472zM38.005 37.4a3.901 3.901 0 01-.861.605 2.01 2.01 0 01-.887.231c-.422 0-.869-.027-1.424-.278-.394-.178-.85-.479-1.366-.979.615.167 1.329.287 2.111.287a7.383 7.383 0 003.196-.727c-.211.292-.473.595-.77.861zM37.403 40.722a3.08 3.08 0 01-.456.1 4.08 4.08 0 01-1.32-.017.229.229 0 01-.185-.264.226.226 0 01.229-.187h.005a3.51 3.51 0 001.468-.278.346.346 0 01.465.16.345.345 0 01-.16.465l-.046.021zM31.19 25.277a.631.631 0 00-.092.01c-.148-.5.164-.815.164-.815-.81.115-.694 1.157-.694 1.157-.695 0-.81-.578-.81-.578-.149.745.18 1.201.434 1.433a4.046 4.046 0 00-.125 1.012c0 1.225.503 2.218 1.121 2.218.62 0 1.12-.993 1.12-2.218.003-1.227-.5-2.218-1.118-2.218z" fill="#409952"></path>
								<path d="M31.598 26.986c0 .334-.136.605-.305.605-.17 0-.306-.271-.306-.605 0-.333.136-.604.306-.604.169 0 .305.271.305.604z" fill="#fff"></path>
								<path d="M42.803 25.05s-.116.58-.81.58c0 0 .115-1.043-.696-1.158 0 0 .313.315.165.815-.028-.005-.056-.01-.084-.01-.618 0-1.12.994-1.12 2.219 0 1.225.502 2.218 1.12 2.218.621 0 1.121-.993 1.121-2.218 0-.366-.046-.713-.125-1.017.252-.236.577-.69.428-1.428z" fill="#409952"></path>
								<path d="M41.786 26.986c0 .334-.136.605-.306.605-.169 0-.305-.271-.305-.605 0-.333.136-.604.305-.604.17 0 .306.271.306.604z" fill="#fff"></path>
								<path d="M37.785 30.95c.049.056.062.077.088.114.02.032.042.065.06.097.037.065.065.134.088.202.046.136.074.275.083.412l.005.102-.005.116c-.009.074-.018.148-.037.215a1.806 1.806 0 01-.674 1.007c-.22.162-.47.269-.722.331-.255.063-.5.081-.755.063a1.76 1.76 0 01-.757-.209 1.634 1.634 0 01-.757-.873 1.534 1.534 0 01-.093-.375.21.21 0 01.186-.234.214.214 0 01.222.13l.011.028c.063.155.17.333.29.463.12.134.266.227.421.292.158.062.33.097.51.092.183.003.377-.014.546-.065a1.23 1.23 0 00.774-.6.938.938 0 00.085-.222c.012-.037.014-.074.021-.106l.005-.046v-.063a.932.932 0 00-.035-.231c-.012-.035-.023-.07-.037-.102l-.02-.044-.01-.019a.348.348 0 01.018-.49.34.34 0 01.489.016zM34.388 23.043c-.618.276-1.239.359-1.86.403-.31.02-.62.04-.932.04-.313-.003-.626 0-.936.002-.313.002-.623.018-.938.011l-.472-.01c-.157 0-.313.01-.47.012-.625.044-1.25.112-1.857.262h-.002a.122.122 0 01-.149-.09.124.124 0 01.072-.144c.595-.24 1.207-.449 1.827-.634.308-.095.618-.2.93-.29.314-.097.63-.15.946-.215.634-.125 1.27-.236 1.912-.252.642-.021 1.285.016 1.931.284.17.072.25.267.181.438a.335.335 0 01-.171.176l-.012.007zM37.995 22.193c.647-.268 1.29-.305 1.932-.285.643.017 1.28.128 1.912.253.317.065.635.12.945.215.313.09.62.197.93.29.621.185 1.23.393 1.828.634a.123.123 0 01.067.16.123.123 0 01-.144.074h-.002c-.61-.15-1.234-.218-1.857-.262-.158-.004-.315-.011-.47-.011l-.473.009c-.314.007-.625-.007-.937-.012a41.122 41.122 0 00-.936-.002c-.312 0-.623-.018-.933-.04-.62-.046-1.241-.127-1.86-.402l-.008-.005c-.17-.074-.246-.273-.17-.44a.327.327 0 01.176-.176z" fill="#409952"></path>
								<path d="M44.196 41.88a2.303 2.303 0 001.123.875c.227.079.466.113.711.111.253 0 .51-.046.762-.097.505-.12.984-.34 1.399-.644.414-.303.757-.7 1.011-1.148.267-.445.406-.961.505-1.48l.056-.396c.02-.132.016-.269.025-.4.003-.133.019-.274.012-.399-.014-.123-.002-.25-.035-.37-.141-.984-.945-1.825-1.84-2.272l-.021-.011a.347.347 0 01.303-.623c.3.143.54.303.785.488.24.185.465.394.664.63.406.463.693 1.054.794 1.677.037.155.028.312.042.467.007.155-.01.297-.014.445-.009.148-.004.294-.028.442l-.062.44c-.111.584-.273 1.172-.584 1.7a4.317 4.317 0 01-1.206 1.366 4.571 4.571 0 01-1.648.76 4.574 4.574 0 01-.91.115 2.728 2.728 0 01-.95-.15 2.865 2.865 0 01-.836-.464 2.864 2.864 0 01-.347-.322 2.578 2.578 0 01-.303-.389.345.345 0 11.581-.373l.011.022zM23.183 34.088c-.053.016-.472.176-.868.736s-.76 1.51-.757 3.066c-.002 1.595.62 2.797 1.438 3.58.407.391.861.683 1.313.875.451.194.898.292 1.301.292.773 0 1.41-.257 1.85-.51.442-.252.695-.505.71-.518a.345.345 0 000-.491.345.345 0 00-.49 0l.023.023-.02-.023.023.023-.021-.023a3.058 3.058 0 01-.6.428c-.373.202-.88.396-1.477.396a2.68 2.68 0 01-1.028-.236 3.783 3.783 0 01-1.586-1.302c-.44-.63-.744-1.454-.744-2.514 0-1.454.334-2.244.63-2.665.15-.21.292-.334.391-.403a.813.813 0 01.111-.067l.024-.01h.002l-.053-.136.046.139.007-.002-.053-.137.046.139a.35.35 0 00.22-.44.346.346 0 00-.438-.22z" fill="#fff"></path>
							</g>
							<defs>
								<clipPath id="6_svg__clip0">
									<path fill="#fff" d="M0 0h72v72H0z"></path>
								</clipPath>
							</defs>
						</svg>