<svg id="contact-sad" viewBox="0 0 56 56" fill="none" xmlns="http://www.w3.org/2000/svg">
                        <g clip-path="url(#sad_svg__clip0)">
                            <path d="M37.734 56l-18.728-2.008c-7.085 0-10.726-5.817-12.88-12.88l-3.48-19.11C.827 11.636 7.025 6.507 14.111 6.507l27.454 2.242c7.085 0 12.88 5.796 12.88 12.881l-3.838 21.49C48.82 50.175 45.544 55.81 37.733 56z" fill="#97D7F6"></path>
                            <path d="M49.648 33.367c-1.524 1.73-3.906 2.564-6.067 2.132h-.059l-.066-.022a.757.757 0 00-.285.022.852.852 0 00-.257.132.67.67 0 00-.183.22.688.688 0 00-.08.27c-.623 6.002-6.844 10.698-14.156 10.698-7.313 0-13.387-4.513-14.134-10.5a.714.714 0 00-.11-.292.741.741 0 00-.315-.44.706.706 0 00-.528-.095c-2.161.432-4.542-.403-6.066-2.132-1.165-1.32-1.561-2.91-1.085-4.353.293-.894.799-1.48 1.539-1.802 1.575-.689 3.759.007 4.587.322.124.425.403 1.165.784 1.063.527-.132.725-1.326.688-1.92-.044-.593-.483-3.935-.637-4.594-.154-.667-.205-1.993-.095-2.586.102-.55 3.4-6.463 3.89-7.335 3.26 1.993 15.204 8.58 25.952 5.496.491.938.858 1.663.894 1.839.11.593.066 1.92-.095 2.586-.161.66-.593 4-.637 4.594-.044.6.16 1.788.688 1.92.381.102.652-.638.777-1.063.835-.315 3.019-1.01 4.587-.322.74.322 1.245.916 1.538 1.802.491 1.458.096 3.041-1.07 4.36z" fill="#D3F1FF"></path>
                            <path d="M24.274 40.276s-.242-2.542 4.199-2.681c4.44-.14 4.11.263 4.901 1.89.14.33.403 1.385-.652.528-.666-.653-.82-1.275-1.875-1.224-1.056.044-3.767-.14-4.96.733-.55.403-.895.644-1.18 1.033-.279.38-.447.154-.433-.279z" fill="#1663A7"></path>
                            <path d="M27.322 40.936s.894-1.04 2.426-.374c.241.14.44.374.337.645-.103.278-.213.44-.645.44-.432 0-1.033-.242-1.62-.228-.593.022-.842-.132-.498-.483zM11.943 29.183s-1.238-.835-2.652.3c-1.422 1.136-.88 2.895-.88 2.895.066.168.213.088.213.088s.095-.044.139-.227c.176-.69.476-1.143.813-1.444 1.26.77 1.693 1.978 1.693 1.978.102.25.271.206.271.206s.161-.037.19-.25c.052-.498-.036-.74-.227-1.443-.11-.403-.41-.784-.644-1.033.395-.044.732-.007.879-.015.417-.022.557-.241.571-.534.022-.294-.366-.52-.366-.52zM47.75 29.476c-1.422-1.135-2.653-.3-2.653-.3s-.395.235-.38.528c.014.3.153.512.571.542.147.007.484-.03.88.014-.235.25-.536.63-.646 1.034-.19.703-.278.945-.227 1.443.03.212.198.249.198.249s.169.051.271-.205c0 0 .432-1.216 1.693-1.978.337.3.637.747.813 1.443.044.183.14.227.14.227s.146.073.212-.088c.007-.007.55-1.773-.872-2.909z" fill="#1663A7"></path>
                            <path d="M52.168 28.582c-.432-1.296-1.224-2.198-2.352-2.689-1.348-.586-2.916-.446-4.132-.175l1.04-3.605s1.077-2.491 1.092-6.741c1.517-1.128 3.04-2.93 3.846-6.352.125-.645.088-1.495-.732-1.056-.813.44-1.59 1.363-7.18.645 2.622-1.385 4.154-4.792 4.154-4.792s.33-.578 0-.666c-.264-.074-.506.183-.704.278-2.982 1.297-6.242 1.114-7.51.975 1.612-.96 1.707-2.492 1.751-2.719.044-.249-.007-.469-.19-.55-.183-.08-.425.06-.425.06s-.997.483-2.645.82c-1.649.337-3.54-.564-3.971-.71-.433-.155-4.69-1.708-8.338-1.202-6.302.754-10.559 5.04-11.409 5.964-.674-.403-1.655-1.224-1.655-1.224s-.557-.747-.345.22c.154.681.557 1.539.828 2.066-.014 0-.022-.007-.037-.007-.249-.066-1.487-.484-1.487-.484s-.66-.256-.205.183c.256.25.82.63 1.34.953-1.003.813-3.604 3.282-3.677 7.004-.088 4.61 1.084 7.327 1.084 7.327l1.04 3.605c-1.216-.278-2.784-.417-4.132.176-1.128.491-1.92 1.4-2.352 2.69-.652 1.948-.146 4.058 1.378 5.788 1.538 1.743 3.795 2.74 6.037 2.74.242 0 .49-.015.733-.037 1.12 6.455 7.664 11.269 15.51 11.269 7.892 0 14.398-4.8 15.512-11.269.242.022.491.037.733.037 2.234 0 4.498-.997 6.03-2.74 1.517-1.722 2.015-3.832 1.37-5.781zm-2.477 4.814c-1.524 1.73-3.912 2.565-6.074 2.133-.021-.008-.036 0-.058 0l-.066-.023a.728.728 0 00-.806.653c-.623 6.008-6.85 10.712-14.17 10.712S15.116 42.35 14.368 36.356a.678.678 0 00-.11-.293.725.725 0 00-.842-.535c-2.162.433-4.55-.402-6.074-2.132-1.165-1.319-1.561-2.909-1.085-4.352.293-.894.799-1.487 1.539-1.81 1.575-.688 3.766.008 4.594.323.124.425.403 1.165.784 1.062.527-.14.733-1.326.689-1.92-.044-.593-.484-3.941-.645-4.6-.161-.668-.205-1.994-.088-2.587.102-.55 3.407-6.47 3.898-7.35 3.268 1.994 15.225 8.595 25.989 5.503.49.938.857 1.664.893 1.847.118.593.067 1.92-.087 2.586-.162.667-.594 4.008-.645 4.602-.044.593.161 1.787.689 1.92.38.094.652-.646.784-1.063.835-.315 3.018-1.011 4.593-.323.74.323 1.246.916 1.547 1.81.469 1.444.073 3.026-1.1 4.352z" fill="#1663A7"></path>
                            <path d="M36.342 28.969c.029-.313.044-.639.044-.973 0-2.469-.836-4.47-1.854-4.47-1.026 0-1.854 2.001-1.854 4.47 0 2.47.828 4.47 1.854 4.47.664 0 1.246-.839 1.573-2.1a.784.784 0 01-.584.283c-.498 0-.901-.528-.901-1.187 0-.652.403-1.187.901-1.187.365 0 .679.283.82.694zM29.381 31.447s1.707-.117 1.502 1.664c-.205 1.78-1.758 2.095-2.74 1.89-.982-.205-1.4-1.143-1.546-1.45-.147-.309 0-.367 0-.367s.102-.117.33.146c.234.264 1.033 1.085 2.425.587.308-.147.798-.718.359-1.04-.44-.33-1.466-1.29-.33-1.43zM22.56 32.466c-1.026 0-1.854-2-1.854-4.47 0-2.469.828-4.47 1.854-4.47 1.026 0 1.854 2.001 1.854 4.47 0 .39-.021.766-.06 1.126-.11-.492-.455-.847-.864-.847-.498 0-.9.535-.9 1.187 0 .66.402 1.187.9 1.187.267 0 .506-.153.67-.395-.321 1.324-.917 2.212-1.6 2.212z" fill="#1663A7"></path>
                            <path d="M32.202 21.124s3.085 3.23 6.77 4.44c.432.176.865.293.586 1.201-.278.909-.989.608-.989.608s-3.319-.205-7.686-5.033c-.337-.418-.176-.718.242-1.107.418-.373.762-.425 1.077-.11zM17.93 25.08s4.256-1.34 6.974-4.11c.345-.315.645-.645 1.334 0 .689.652.11 1.157.11 1.157s-1.649 2.887-7.906 4.668c-.52.117-.725-.162-.887-.704-.153-.542-.043-.872.374-1.01zM37.99 33.382l-.007-.008c-.007-.007-.154-.242-.418-.513-.256-.263-.608-.564-1.062-.71a.832.832 0 00-.352-.088.44.44 0 00-.322.139.463.463 0 00-.103.315l.015.147s.015.11.022.27c.015.162.022.374.022.58 0 .16-.007.314-.03.402-.014.096-.029.198-.029.33 0 .271.044.616.198.923.08.154.19.3.345.41.153.11.358.176.578.176.132 0 .264-.021.41-.065.367-.103.63-.293.792-.528a1.29 1.29 0 00.22-.733 2.199 2.199 0 00-.279-1.047zm-.38 1.472c-.081.118-.228.235-.499.315a.985.985 0 01-.256.044.452.452 0 01-.264-.073.693.693 0 01-.235-.366 1.894 1.894 0 01-.058-.748c.03-.154.036-.322.036-.505 0-.36-.029-.733-.044-.857l.008.007.014.007c.323.096.63.345.858.579.11.117.198.227.264.308l.065.095.015.022v.007c.037.074.213.44.205.77a.616.616 0 01-.11.395z" fill="#1663A7"></path>
                        </g>
                        <defs>
                            <clipPath id="sad_svg__clip0">
                                <path fill="#fff" d="M0 0h56v56H0z"></path>
                            </clipPath>
                        </defs>
                    </svg>