<svg id="contact-angry" viewBox="0 0 56 56" fill="none" xmlns="http://www.w3.org/2000/svg">
                        <path d="M38.834 55.902l-18.893-2.029c-7.148 0-10.822-5.869-12.997-12.996L3.435 21.596C1.601 11.142 7.861 5.973 15.01 5.973l27.697 2.26c7.148 0 12.996 5.85 12.996 12.996L51.83 42.905c-1.813 7.117-5.113 12.803-12.996 12.997z" fill="#FFB5CA"></path>
                        <path d="M50.215 33.665c-1.539 1.741-3.943 2.583-6.121 2.148h-.059c-.02 0-.042-.018-.066-.02a.732.732 0 00-.812.657c-.632 6.05-6.903 10.791-14.28 10.791-7.376 0-13.503-4.554-14.256-10.594a.723.723 0 00-.108-.295.733.733 0 00-.856-.54c-2.178.436-4.581-.406-6.121-2.147-1.176-1.333-1.575-2.935-1.09-4.387.298-.9.807-1.496 1.553-1.822 1.59-.694 3.79.007 4.632.326.122.427.405 1.173.786 1.073.53-.139.734-1.338.692-1.939-.041-.6-.489-3.967-.646-4.636-.155-.669-.207-2.007-.092-2.607.107-.554 3.432-6.52 3.925-7.402 3.3 2.011 15.343 8.659 26.187 5.546.497.943.863 1.678.897 1.856.115.599.07 1.938-.093 2.607-.163.67-.6 4.035-.646 4.636-.047.602.162 1.8.692 1.939.383.1.662-.646.788-1.073.84-.319 3.043-1.02 4.632-.326.745.326 1.254.923 1.554 1.822.482 1.456.085 3.054-1.092 4.387z" fill="#FFDFE8"></path>
                        <path d="M26.22.122c3.668-.516 7.957 1.05 8.394 1.205.437.154 2.338 1.062 4 .72 1.529-.315 2.5-.754 2.646-.823l.019-.008s.242-.139.427-.058c.184.08.242.3.195.554a3.562 3.562 0 01-1.754 2.736c1.277.142 4.557.325 7.563-.978.2-.091.442-.347.707-.276.335.089 0 .67 0 .67S46.873 7.299 44.23 8.69c5.626.723 6.406-.206 7.233-.652.827-.446.856.416.734 1.061-.808 3.452-2.35 5.263-3.875 6.404-.016 4.283-1.1 6.792-1.1 6.792l-1.048 3.631c1.23-.276 2.807-.416 4.165.175 1.137.497 1.935 1.408 2.368 2.712.657 1.968.148 4.092-1.395 5.828a8.225 8.225 0 01-6.08 2.762 7.24 7.24 0 01-.734-.039c-1.122 6.523-7.678 11.354-15.625 11.354-7.9 0-14.498-4.846-15.626-11.354a7.364 7.364 0 01-.733.04 8.225 8.225 0 01-6.081-2.762c-1.535-1.737-2.04-3.862-1.384-5.83.432-1.301 1.228-2.214 2.375-2.708 1.353-.591 2.943-.451 4.166-.175l-1.05-3.632s-1.192-2.735-1.1-7.382c.075-3.756 2.7-6.239 3.708-7.058-.515-.327-1.085-.718-1.345-.962-.458-.446.207-.185.207-.185s1.246.42 1.5.49l.036.01c-.272-.537-.678-1.4-.832-2.087-.22-.972.345-.218.345-.218s.988.821 1.667 1.222C15.582 5.2 19.875.877 26.22.123zm-8.925 12.149c-.492.883-3.817 6.848-3.924 7.402-.115.599-.064 1.938.093 2.607.156.67.604 4.037.646 4.636.04.601-.162 1.8-.693 1.939-.38.1-.664-.646-.786-1.073-.841-.319-3.042-1.02-4.632-.326-.746.326-1.255.923-1.554 1.822-.484 1.452-.085 3.054 1.09 4.386 1.54 1.742 3.943 2.584 6.122 2.149a.734.734 0 01.856.54c.057.089.094.19.108.294.753 6.04 6.88 10.594 14.256 10.594 7.377 0 13.648-4.74 14.28-10.791a.733.733 0 01.812-.658c.024.003.047.02.066.02h.059c2.178.436 4.582-.406 6.12-2.148 1.178-1.332 1.576-2.93 1.093-4.386-.3-.9-.809-1.496-1.554-1.822-1.59-.694-3.792.007-4.632.326-.127.427-.404 1.173-.788 1.073-.53-.139-.739-1.337-.692-1.939.047-.6.483-3.967.646-4.636.163-.669.208-2.007.093-2.607-.034-.179-.4-.913-.896-1.857-10.845 3.114-22.888-3.534-26.188-5.545zm12.78 29.188c.245.139.444.373.34.65-.106.278-.217.444-.651.444-.434 0-1.043-.245-1.633-.226-.591.017-.848-.143-.501-.494 0 0 .904-1.052 2.445-.374zm3.656-1.088c.139.335.404 1.396-.658.53-.668-.657-.83-1.28-1.891-1.234-1.061.045-3.79-.138-4.995.734-.554.403-.9.645-1.187 1.037-.288.393-.455.167-.439-.271 0 0-.245-2.561 4.233-2.699 4.478-.138 4.142.264 4.937 1.903zM31.75 33c-.208 1.797-1.774 2.11-2.762 1.902-.986-.208-1.41-1.15-1.555-1.457-.146-.308 0-.367 0-.367s.1-.123.334.144c.235.266 1.04 1.1 2.446.588.307-.145.805-.723.367-1.05-.438-.327-1.483-1.298-.342-1.433 0 0 1.72-.122 1.511 1.673zm13.828-3.578s1.246-.842 2.677.3c1.43 1.141.891 2.918.891 2.918a.149.149 0 01-.214.091.328.328 0 01-.143-.229c-.18-.698-.48-1.152-.821-1.451a4.28 4.28 0 00-1.712 1.996c-.103.255-.272.207-.272.207a.28.28 0 01-.196-.252c-.052-.504.035-.747.225-1.457.11-.407.41-.785.647-1.037a8.626 8.626 0 00-.886-.014c-.42-.026-.56-.243-.576-.542-.015-.298.381-.53.381-.53zm-36.08.3c1.43-1.142 2.676-.3 2.676-.3s.403.233.388.53c-.016.297-.157.516-.576.542a8.657 8.657 0 00-.888.014c.237.252.537.63.647 1.037.192.71.278.953.226 1.457a.28.28 0 01-.195.252s-.17.047-.272-.207a4.28 4.28 0 00-1.711-1.996c-.342.3-.643.752-.822 1.451a.332.332 0 01-.145.23.149.149 0 01-.182-.034.15.15 0 01-.032-.058s-.543-1.777.887-2.919zm8.074-7.467c.455-1.183 1.882-1.085 2.507-.966.624.12 3.83 1.877 4.618 2.19.789.312 2.5.792 2.5.792.428.238.827.505.872 1.488.045.985-.278 1.277-.986 1.385-.47-.01-1.04-.153-1.657-.378.177.591.28 1.29.28 2.04 0 2.133-.837 3.862-1.867 3.862s-1.866-1.73-1.866-3.863c0-1.373.346-2.577.868-3.263-1.769-.976-3.35-2.07-3.632-2.254-.524-.337-.891-.264-.891-.264s-1.2.411-.746-.77zm23.707-.003c.456 1.179-.747.769-.747.769l-.019-.003c-.08-.009-.412-.024-.87.268-.287.182-1.867 1.278-3.634 2.255.521.683.868 1.89.868 3.264 0 2.134-.836 3.863-1.866 3.863-1.03 0-1.867-1.73-1.867-3.863 0-.75.104-1.451.283-2.045-.618.23-1.19.372-1.66.381-.708-.107-1.033-.4-.986-1.384.047-.984.451-1.248.877-1.486 0 0 1.712-.48 2.5-.793.789-.313 3.993-2.069 4.619-2.189.626-.12 2.044-.216 2.501.963zm-17.44 4.627c-.374 0-.677.672-.677 1.498 0 .827.303 1.498.677 1.498.374.005.676-.67.676-1.498 0-.827-.303-1.498-.676-1.498zm11.206 0c-.374 0-.678.672-.678 1.498 0 .827.304 1.498.677 1.498.373.005.677-.67.677-1.498 0-.827-.302-1.498-.677-1.498z" fill="#9F031D"></path>
                    </svg>