<svg id="contact-inlove" viewBox="0 0 56 56" fill="none" xmlns="http://www.w3.org/2000/svg">
                        <g clip-path="url(#inlove_svg__clip0)">
                            <path d="M37.734 56l-18.728-2.008c-7.085 0-10.726-5.817-12.88-12.88l-3.48-19.11C.827 11.636 7.025 6.507 14.111 6.507l27.454 2.242c7.085 0 12.88 5.796 12.88 12.881l-3.838 21.49C48.82 50.175 45.544 55.81 37.733 56z" fill="#F7CCE8"></path>
                            <path d="M49.736 33.367c-1.524 1.722-3.906 2.564-6.067 2.132h-.059l-.066-.022a.943.943 0 00-.286.022.714.714 0 00-.52.623c-.623 6-6.843 10.697-14.155 10.697-7.313 0-13.387-4.513-14.134-10.5a.714.714 0 00-.11-.292.741.741 0 00-.315-.44.706.706 0 00-.528-.095c-2.161.432-4.542-.403-6.066-2.132-1.165-1.32-1.561-2.91-1.085-4.353.293-.894.799-1.48 1.539-1.802 1.575-.689 3.759.007 4.594.322.124.425.403 1.165.784 1.063.527-.14.725-1.326.689-1.92-.044-.593-.484-3.935-.638-4.594-.154-.667-.205-1.993-.095-2.586.102-.55 3.4-6.463 3.89-7.335 3.261 1.993 15.204 8.58 25.953 5.496.49.938.857 1.663.894 1.839.11.593.066 1.92-.096 2.586-.16.66-.593 4-.637 4.594-.044.6.161 1.788.688 1.92.382.102.653-.638.777-1.063.836-.315 3.019-1.01 4.594-.322.74.322 1.246.916 1.539 1.802.476 1.458.08 3.041-1.084 4.36z" fill="#FFEBF8"></path>
                            <path d="M17.731 22.494s2.147-3.73 7.54-2.887c.806.146.82 1.282.652 1.641-.169.36-.425.923-1.539.674-1.114-.256-3.539-.022-5.876 1.414-.513.213-.645.132-.777 0-.132-.124-.132-.637 0-.842zM40.467 22.494s-2.147-3.73-7.547-2.887c-.806.146-.82 1.282-.652 1.641.169.36.425.923 1.539.674 1.113-.256 3.538-.022 5.876 1.414.513.213.645.132.776 0 .147-.124.14-.637.008-.842zM12.03 29.183s-1.237-.835-2.652.3C7.957 30.62 8.5 32.379 8.5 32.379c.066.168.213.088.213.088s.095-.044.139-.227c.176-.69.476-1.143.813-1.444 1.26.77 1.693 1.986 1.693 1.986.102.249.27.205.27.205s.162-.037.191-.25c.052-.497-.036-.74-.227-1.442-.11-.404-.403-.785-.644-1.034.395-.044.732-.007.879-.014.417-.022.556-.242.571-.535.03-.3-.366-.528-.366-.528zM47.838 29.476c-1.422-1.135-2.653-.3-2.653-.3s-.395.235-.38.528c.014.293.153.512.57.542.147.007.484-.03.88.014-.234.25-.535.623-.645 1.034-.19.703-.278.945-.227 1.443.03.22.198.249.198.249s.168.051.271-.205c0 0 .432-1.216 1.693-1.986.337.3.637.748.813 1.444.044.183.14.227.14.227s.146.073.212-.088c.014 0 .55-1.766-.872-2.902z" fill="#AB1171"></path>
                            <path d="M52.256 28.582c-.432-1.296-1.224-2.198-2.352-2.689-1.348-.586-2.916-.446-4.133-.175l1.041-3.605s1.077-2.491 1.092-6.741c1.516-1.128 3.04-2.93 3.846-6.352.125-.645.088-1.495-.732-1.056-.814.44-1.59 1.363-7.18.645 2.622-1.385 4.154-4.792 4.154-4.792s.33-.578 0-.666c-.264-.074-.506.183-.704.278-2.982 1.29-6.242 1.114-7.51.975 1.612-.96 1.707-2.492 1.751-2.719.044-.249-.007-.469-.19-.55-.183-.08-.425.06-.425.06s-.997.483-2.645.82c-1.649.337-3.54-.564-3.971-.71-.433-.155-4.69-1.708-8.339-1.202-6.3.747-10.558 5.04-11.408 5.956-.674-.395-1.656-1.216-1.656-1.216s-.556-.747-.344.22c.154.681.557 1.539.828 2.066-.015 0-.022-.007-.037-.007a56.119 56.119 0 01-1.487-.484s-.66-.256-.205.183c.256.25.82.63 1.34.953-1.003.813-3.604 3.282-3.677 7.004-.088 4.61 1.084 7.327 1.084 7.327l1.04 3.605c-1.216-.278-2.784-.417-4.132.176-1.128.491-1.92 1.4-2.352 2.69-.652 1.948-.147 4.058 1.377 5.788 1.54 1.743 3.796 2.74 6.038 2.74.242 0 .49-.015.733-.037 1.12 6.455 7.664 11.269 15.51 11.269 7.892 0 14.398-4.8 15.512-11.269.242.022.49.037.733.037 2.234 0 4.498-.997 6.03-2.74 1.524-1.722 2.022-3.832 1.37-5.781zm-2.47 4.814c-1.523 1.73-3.912 2.565-6.073 2.133-.022-.008-.037 0-.059 0-.022-.008-.044-.023-.066-.023a.728.728 0 00-.806.653c-.623 6.008-6.85 10.712-14.17 10.712S15.21 42.35 14.463 36.356a.678.678 0 00-.11-.293.72.72 0 00-.842-.535c-2.162.433-4.55-.402-6.074-2.132-1.165-1.319-1.56-2.909-1.085-4.352.294-.894.8-1.487 1.54-1.81 1.574-.688 3.765.008 4.593.323.125.425.403 1.165.784 1.062.528-.14.733-1.326.689-1.92-.044-.593-.484-3.941-.645-4.6-.161-.668-.205-1.994-.088-2.587.103-.55 3.407-6.47 3.898-7.35 3.268 1.994 15.226 8.595 25.989 5.503.49.938.857 1.67.894 1.847.117.593.066 1.92-.088 2.586-.161.667-.594 4.008-.645 4.602-.044.593.161 1.787.689 1.92.38.102.652-.646.784-1.063.835-.315 3.018-1.011 4.594-.323.74.323 1.245.916 1.546 1.81.461 1.444.066 3.026-1.1 4.352z" fill="#AB1171"></path>
                            <path d="M29.623 31.19s1.707-.116 1.502 1.664c-.205 1.78-1.759 2.096-2.74 1.883-.982-.205-1.4-1.143-1.546-1.443-.147-.308 0-.367 0-.367s.102-.117.33.147c.234.256 1.032 1.084 2.424.586.308-.14.8-.718.36-1.04-.433-.337-1.459-1.297-.33-1.43zM34.085 36.298s-5.459 3.231-12.236-1.502c0 0-.374-.286-.608-.088-.235.198.117.505.117.505s.117.125.33.323c.154 1.04 1.216 6.719 6.081 6.902h.198c2.44 0 3.597-1.803 3.641-1.869.836-1.26 2.191-3.29 2.462-3.663.22-.147.345-.242.345-.242s.388-.293.373-.542c-.014-.264-.703.176-.703.176zm-3.407 3.67c-.007.015-.923 1.444-2.872 1.363-3.114-.117-4.345-3.026-4.8-4.784a11.36 11.36 0 004.734 1.736 9.691 9.691 0 004.352-.425c-.55.806-1.136 1.693-1.414 2.11zM20.918 28.758c.616 2.023 1.913 3.422 2.895 3.122.974-.3 1.267-2.184.652-4.206-.623-2.022-1.913-3.422-2.895-3.121-.981.3-1.267 2.183-.652 4.205zM32.048 28.758c.616 2.023 1.913 3.422 2.894 3.122.975-.3 1.268-2.184.652-4.206-.622-2.022-1.912-3.422-2.894-3.121-.982.3-1.275 2.183-.652 4.205z" fill="#AB1171"></path>
                            <path fill-rule="evenodd" clip-rule="evenodd" d="M23.27 31.88c.982.3 2.272-1.1 2.895-3.122.615-2.022.322-3.905-.653-4.205-.981-.3-2.27 1.099-2.894 3.121-.615 2.022-.322 3.905.652 4.206zm2.008-5.034c.315 0 .572-.381.572-.85s-.257-.85-.572-.85c-.315 0-.572.381-.572.85s.257.85.572.85zM34.393 31.88c.981.3 2.271-1.1 2.894-3.122.623-2.022.33-3.905-.652-4.205-.982-.3-2.272 1.099-2.894 3.121-.616 2.022-.323 3.905.652 4.206zm2-4.968c.315 0 .572-.381.572-.85s-.257-.85-.572-.85c-.315 0-.572.381-.572.85s.257.85.572.85z" fill="#AB1171"></path>
                        </g>
                        <defs>
                            <clipPath id="inlove_svg__clip0">
                                <path fill="#fff" d="M0 0h56v56H0z"></path>
                            </clipPath>
                        </defs>
                    </svg>