<svg id="contact-happy" viewBox="0 0 56 56" fill="none" xmlns="http://www.w3.org/2000/svg">
                        <g clip-path="url(#happy_svg__clip0)">
                            <path d="M37.409 55.998l-18.728-2.007c-7.085 0-10.726-5.818-12.88-12.881L2.32 22C.502 11.633 6.7 6.505 13.786 6.505L41.24 8.747c7.085 0 12.88 5.795 12.88 12.88l-3.839 21.49c-1.787 7.049-5.062 12.69-12.873 12.881z" fill="#FFEB9E"></path>
                            <path d="M49.323 33.365c-1.524 1.73-3.905 2.565-6.067 2.132h-.058l-.066-.022a.762.762 0 00-.726.381.688.688 0 00-.08.271c-.623 6.001-6.844 10.698-14.156 10.698s-13.386-4.514-14.134-10.5a.714.714 0 00-.11-.293.704.704 0 00-.315-.432.706.706 0 00-.527-.095c-2.162.432-4.543-.403-6.067-2.133-1.165-1.318-1.56-2.908-1.084-4.352.293-.894.798-1.48 1.538-1.802 1.576-.689 3.759.007 4.587.322.124.425.403 1.165.784 1.063.527-.14.725-1.327.689-1.92-.044-.594-.484-3.935-.638-4.594-.154-.667-.205-1.993-.095-2.586.102-.55 3.4-6.463 3.89-7.335 3.261 1.993 15.204 8.587 25.953 5.495.49.938.857 1.664.894 1.84.11.593.066 1.92-.096 2.586-.16.66-.593 4-.637 4.594-.044.593.161 1.788.689 1.92.38.102.652-.638.776-1.063.836-.315 3.019-1.01 4.587-.322.74.322 1.246.916 1.539 1.802.49 1.444.095 3.026-1.07 4.345z" fill="#FFF7D8"></path>
                            <path d="M11.618 29.181s-1.238-.835-2.652.3c-1.422 1.137-.88 2.895-.88 2.895.066.169.213.095.213.095s.095-.044.14-.227c.175-.689.475-1.143.812-1.443 1.26.77 1.693 1.985 1.693 1.985.102.25.271.206.271.206s.161-.037.19-.25c.052-.498-.036-.74-.227-1.443-.11-.403-.41-.777-.644-1.033.395-.044.732-.007.879-.015.418-.022.557-.242.571-.535.022-.307-.366-.535-.366-.535zM47.425 29.475c-1.421-1.136-2.652-.3-2.652-.3s-.396.234-.381.527c.015.3.154.513.572.542.146.007.483-.03.879.015-.235.249-.535.622-.645 1.033-.19.703-.279.945-.227 1.443.03.213.198.25.198.25s.168.043.27-.206c0 0 .433-1.216 1.693-1.978.337.3.638.747.814 1.443.044.183.139.227.139.227s.146.074.212-.095c.008 0 .55-1.766-.872-2.901z" fill="#D99328"></path>
                            <path d="M51.843 28.573c-.432-1.297-1.223-2.198-2.352-2.689-1.348-.586-2.916-.447-4.132-.175l1.04-3.605s1.077-2.491 1.092-6.741c1.517-1.128 3.04-2.93 3.847-6.353.124-.644.088-1.494-.733-1.055-.813.44-1.59 1.363-7.18.645 2.623-1.385 4.154-4.792 4.154-4.792s.33-.579 0-.667c-.264-.073-.506.184-.703.279-2.982 1.297-6.243 1.114-7.51.974 1.611-.96 1.707-2.49 1.75-2.718.045-.249-.007-.469-.19-.55-.183-.08-.425.06-.425.06s-.996.483-2.645.827c-1.648.344-3.539-.564-3.971-.71-.432-.154-4.69-1.708-8.338-1.202-6.301.747-10.558 5.04-11.408 5.964-.674-.396-1.656-1.224-1.656-1.224s-.557-.747-.345.22c.154.682.557 1.539.828 2.066-.014 0-.022-.007-.036-.007-.25-.066-1.488-.484-1.488-.484s-.659-.256-.205.184c.257.249.82.63 1.341.952-1.004.813-3.605 3.283-3.678 7.005-.088 4.608 1.084 7.327 1.084 7.327l1.04 3.605c-1.216-.279-2.783-.41-4.132.175-1.128.491-1.92 1.4-2.352 2.69-.652 1.948-.146 4.058 1.378 5.788 1.539 1.743 3.795 2.74 6.037 2.74.242 0 .491-.015.733-.037 1.121 6.455 7.664 11.27 15.511 11.27 7.891 0 14.398-4.8 15.511-11.27.242.022.491.037.733.037 2.235 0 4.499-.996 6.03-2.74 1.517-1.722 2.015-3.832 1.37-5.789zm-2.476 4.822c-1.524 1.729-3.913 2.564-6.074 2.132-.022-.008-.037 0-.059 0l-.066-.022a.728.728 0 00-.806.652c-.623 6.008-6.85 10.712-14.17 10.712s-13.401-4.52-14.149-10.514a.678.678 0 00-.11-.293.725.725 0 00-.842-.535c-2.161.432-4.55-.403-6.074-2.133-1.165-1.318-1.56-2.908-1.084-4.352.293-.894.798-1.487 1.538-1.81 1.575-.688 3.766.008 4.594.323.125.425.403 1.165.784 1.062.528-.139.733-1.326.689-1.92-.044-.593-.484-3.941-.645-4.6-.161-.667-.205-1.994-.088-2.587.103-.55 3.407-6.47 3.898-7.349 3.268 1.993 15.226 8.595 25.989 5.502.49.938.857 1.664.894 1.847.117.593.066 1.92-.088 2.586-.161.667-.594 4.008-.645 4.602-.044.593.161 1.787.689 1.92.38.102.652-.638.784-1.063.835-.315 3.018-1.011 4.594-.322.74.322 1.245.915 1.546 1.81.469 1.443.073 3.025-1.1 4.352z" fill="#D99328"></path>
                            <path d="M11.618 29.181s-1.238-.835-2.652.3c-1.422 1.137-.88 2.895-.88 2.895.066.169.213.095.213.095s.095-.044.14-.227c.175-.689.475-1.143.812-1.443 1.26.77 1.693 1.985 1.693 1.985.102.25.271.206.271.206s.161-.037.19-.25c.052-.498-.036-.74-.227-1.443-.11-.403-.41-.777-.644-1.033.395-.044.732-.007.879-.015.418-.022.557-.242.571-.535.022-.307-.366-.535-.366-.535zM47.425 29.475c-1.421-1.136-2.652-.3-2.652-.3s-.396.234-.381.527c.015.3.154.513.572.542.146.007.483-.03.879.015-.235.249-.535.622-.645 1.033-.19.703-.279.945-.227 1.443.03.213.198.25.198.25s.168.043.27-.206c0 0 .433-1.216 1.693-1.978.337.3.638.747.814 1.443.044.183.139.227.139.227s.146.074.212-.095c.008 0 .55-1.766-.872-2.901zM17.319 22.492s2.146-3.73 7.539-2.887c.806.14.82 1.282.652 1.641-.169.36-.425.93-1.539.675-1.12-.257-3.539-.023-5.876 1.414-.513.212-.645.131-.776 0-.14-.125-.132-.638 0-.843z" fill="#D99328"></path>
                            <path fill-rule="evenodd" clip-rule="evenodd" d="M22.784 32.405c1.026 0 1.854-1.714 1.854-3.832 0-2.117-.828-3.832-1.854-3.832-1.025 0-1.853 1.715-1.853 3.832 0 2.118.828 3.832 1.853 3.832zm-.373-3.605c.315 0 .571-.38.571-.85 0-.468-.256-.85-.571-.85-.315 0-.572.382-.572.85 0 .47.257.85.572.85z" fill="#D99328"></path>
                            <path d="M40.054 22.492s-2.147-3.73-7.547-2.887c-.805.14-.82 1.282-.652 1.641.169.36.425.93 1.539.675 1.114-.257 3.539-.023 5.876 1.414.513.212.645.131.777 0 .146-.125.14-.638.007-.843zM29.21 31.19s1.707-.118 1.502 1.662c-.205 1.78-1.758 2.096-2.74 1.883-.982-.205-1.4-1.143-1.546-1.443-.147-.308 0-.366 0-.366s.103-.118.33.146c.234.264 1.033 1.084 2.425.586.308-.146.799-.718.359-1.04-.44-.337-1.465-1.297-.33-1.429z" fill="#D99328"></path>
                            <path fill-rule="evenodd" clip-rule="evenodd" d="M34.589 32.405c-1.026 0-1.854-1.714-1.854-3.832 0-2.117.828-3.832 1.854-3.832 1.025 0 1.853 1.715 1.853 3.832 0 2.118-.828 3.832-1.853 3.832zm-.374-3.605c.315 0 .571-.38.571-.85 0-.468-.256-.85-.571-.85-.316 0-.572.382-.572.85 0 .47.257.85.572.85z" fill="#D99328"></path>
                            <path d="M23.576 38.501s2.872 3.825 9.056.88c.506-.169.974-1.011.344-1.048-.63-.037-3.465 2.718-8.8-.22-.607-.44-.952.007-.6.388z" fill="#D99328"></path>
                        </g>
                        <defs>
                            <clipPath id="happy_svg__clip0">
                                <path fill="#fff" d="M0 0h56v56H0z"></path>
                            </clipPath>
                        </defs>
                    </svg>