<svg id="contact-surprise" viewBox="0 0 56 56" fill="none" xmlns="http://www.w3.org/2000/svg">
                        <g clip-path="url(#surprised_svg__clip0)">
                            <path d="M37.734 56.005l-18.728-2.007c-7.085 0-10.727-5.818-12.88-12.88l-3.481-19.11C.828 11.641 7.026 6.512 14.112 6.512l27.454 2.242c7.085 0 12.88 5.796 12.88 12.88l-3.839 21.49c-1.788 7.057-5.063 12.691-12.873 12.881z" fill="#FDC7AF"></path>
                            <path d="M49.728 33.373c-1.524 1.721-3.905 2.564-6.067 2.132h-.058l-.066-.022a.757.757 0 00-.286.022.853.853 0 00-.256.131.669.669 0 00-.183.22.685.685 0 00-.081.271c-.623 6.001-6.843 10.698-14.156 10.698-7.312 0-13.386-4.514-14.133-10.5a.715.715 0 00-.11-.293.741.741 0 00-.316-.44.7.7 0 00-.527-.095c-2.162.433-4.543-.403-6.067-2.132-1.165-1.319-1.56-2.909-1.084-4.352.293-.894.799-1.48 1.539-1.803 1.575-.688 3.758.008 4.586.323.125.425.403 1.165.784 1.062.528-.139.726-1.326.682-1.92-.044-.593-.484-3.934-.638-4.593-.154-.667-.205-1.993-.095-2.587.103-.55 3.4-6.462 3.89-7.334 3.261 1.993 15.204 8.58 25.953 5.495.49.938.857 1.663.886 1.84.117.593.066 1.919-.095 2.586-.161.659-.593 4-.637 4.594-.052.6.16 1.787.68 1.92.382.102.653-.638.785-1.063.835-.315 3.019-1.011 4.587-.323.74.323 1.245.916 1.538 1.803.506 1.458.11 3.04-1.055 4.36z" fill="#FFF0E9"></path>
                            <path d="M12.024 29.189s-1.238-.835-2.653.3c-1.421 1.136-.879 2.894-.879 2.894.066.169.213.088.213.088s.095-.044.139-.227c.176-.689.476-1.143.813-1.443 1.26.77 1.693 1.978 1.693 1.978.102.25.27.205.27.205s.162-.036.191-.249c.052-.498-.036-.74-.227-1.443-.11-.403-.41-.784-.645-1.033.396-.044.733-.008.88-.015.417-.022.556-.242.571-.535.03-.293-.366-.52-.366-.52zM47.83 29.482c-1.42-1.136-2.652-.3-2.652-.3s-.395.234-.38.527c.014.3.153.513.57.542.147.008.484-.03.88.015-.234.249-.535.623-.645 1.033-.19.703-.278.945-.227 1.443.03.22.19.25.19.25s.17.05.272-.206c0 0 .432-1.216 1.692-1.978.337.3.638.747.813 1.444.044.183.14.227.14.227s.146.073.212-.088c.022-.008.557-1.773-.864-2.91z" fill="#DA6038"></path>
                            <path d="M52.249 28.588c-.433-1.297-1.224-2.198-2.352-2.689-1.349-.586-2.916-.447-4.133-.176l1.04-3.605s1.078-2.49 1.092-6.74c1.517-1.129 3.048-2.931 3.847-6.353.125-.645.088-1.495-.733-1.055-.813.44-1.597 1.363-7.18.645 2.623-1.385 4.154-4.792 4.154-4.792s.33-.579 0-.667c-.264-.073-.505.183-.703.279-2.982 1.296-6.243 1.113-7.51.974 1.612-.96 1.707-2.491 1.75-2.718.045-.25-.006-.47-.19-.55-.183-.08-.425.059-.425.059s-.996.483-2.645.82c-1.648.337-3.539-.564-3.97-.718-.433-.153-4.69-1.707-8.339-1.201-6.301.754-10.558 5.04-11.408 5.964-.674-.396-1.656-1.216-1.656-1.216s-.557-.748-.344.22c.154.68.557 1.538.828 2.066-.015 0-.022-.008-.037-.008a56.092 56.092 0 01-1.487-.483s-.66-.257-.206.183c.257.249.829.63 1.341.952-1.003.814-3.605 3.283-3.678 7.005-.088 4.609 1.085 7.327 1.085 7.327l1.04 3.605c-1.216-.279-2.784-.418-4.132.176-1.129.49-1.92 1.4-2.352 2.689-.652 1.949-.147 4.059 1.377 5.788 1.539 1.744 3.795 2.74 6.038 2.74.249 0 .49-.014.732-.036 1.121 6.455 7.664 11.269 15.511 11.269 7.892 0 14.39-4.792 15.512-11.27.241.023.49.037.732.037 2.242 0 4.5-.996 6.038-2.74 1.51-1.722 2.015-3.832 1.363-5.781zm-2.47 4.814c-1.524 1.729-3.912 2.564-6.074 2.132-.022-.007-.036 0-.058 0l-.066-.022a.728.728 0 00-.806.652c-.63 6.008-6.85 10.712-14.17 10.712s-13.402-4.52-14.149-10.514a.678.678 0 00-.11-.293.725.725 0 00-.842-.535c-2.162.432-4.55-.403-6.074-2.132-1.165-1.319-1.561-2.909-1.085-4.352.3-.894.799-1.488 1.546-1.81 1.575-.689 3.766.007 4.594.322.125.425.403 1.165.784 1.063.528-.14.733-1.326.689-1.92-.044-.593-.484-3.942-.645-4.601-.161-.667-.205-1.993-.088-2.587.103-.55 3.407-6.47 3.898-7.349 3.268 1.993 15.226 8.595 25.989 5.503.49.938.857 1.67.886 1.846.118.594.066 1.92-.087 2.587-.162.666-.594 4.008-.645 4.601-.044.594.16 1.788.688 1.92.381.102.66-.645.784-1.063.836-.315 3.02-1.01 4.594-.322.74.322 1.246.916 1.54 1.81.468 1.443.072 3.026-1.093 4.352z" fill="#DA6038"></path>
                            <path d="M32.078 39.864a3.086 3.086 0 00-1.62-2.344l-.029-.015-.03-.008a4.206 4.206 0 00-1.487-.292c-.696 0-1.275.234-1.714.578-.66.52-1.004 1.246-1.202 1.832-.19.55-.242.974-.249 1.048v.022a4.03 4.03 0 00-.051.564c0 .41.088.777.315 1.062.227.286.6.425.938.418.293 0 .586-.073.9-.198.309-.124.69-.168 1.1-.161.396 0 .82.037 1.23.037.309 0 .609-.022.91-.118.359-.117.659-.337.835-.637.176-.3.22-.623.22-.953 0-.278-.03-.542-.066-.835zm-.938 1.304c-.052.088-.125.162-.345.235-.132.051-.351.073-.615.073-.352 0-.777-.037-1.231-.037-.462 0-.96.037-1.436.235a1.587 1.587 0 01-.557.132c-.154-.008-.19-.037-.234-.08-.044-.052-.11-.199-.11-.484 0-.125.014-.279.036-.447v-.044c.015-.14.132-.85.477-1.48.175-.315.395-.608.681-.814a1.777 1.777 0 011.092-.337c.315 0 .696.066 1.135.227.491.272 1.011.814 1.114 1.642.037.27.059.513.059.696.022.242-.015.395-.066.483zM17.724 21.056s2.147-3.73 7.54-2.887c.805.146.82 1.282.652 1.641-.17.36-.425.93-1.54.674-1.12-.256-3.538-.022-5.875 1.414-.513.213-.645.132-.777 0-.132-.124-.132-.637 0-.842z" fill="#DA6038"></path>
                            <path fill-rule="evenodd" clip-rule="evenodd" d="M23.19 32.413c1.025 0 1.853-1.715 1.853-3.832 0-2.118-.828-3.832-1.853-3.832-1.026 0-1.854 1.714-1.854 3.832 0 2.117.828 3.832 1.854 3.832zm-.564-2.982c.315 0 .571-.381.571-.85 0-.47-.256-.843-.571-.85-.315 0-.572.38-.572.85 0 .469.257.85.572.85z" fill="#DA6038"></path>
                            <path d="M40.46 21.056s-2.147-3.73-7.547-2.887c-.806.146-.82 1.282-.652 1.641.168.36.425.93 1.538.674 1.121-.256 3.54-.022 5.877 1.414.512.213.644.132.776 0 .147-.124.14-.637.008-.842zM29.616 31.196s1.707-.117 1.502 1.664c-.206 1.78-1.759 2.095-2.74 1.883-.983-.206-1.4-1.143-1.547-1.444-.146-.307 0-.366 0-.366s.103-.117.33.146c.234.264 1.033 1.085 2.425.587.308-.147.799-.718.36-1.04-.433-.338-1.459-1.298-.33-1.43z" fill="#DA6038"></path>
                            <path fill-rule="evenodd" clip-rule="evenodd" d="M34.993 32.413c-1.025 0-1.853-1.715-1.853-3.832 0-2.118.828-3.832 1.853-3.832 1.026 0 1.854 1.714 1.854 3.832 0 2.117-.828 3.832-1.854 3.832zm-.57-2.982c.314 0 .57-.381.57-.85 0-.47-.256-.843-.57-.85-.316 0-.572.38-.572.85 0 .469.256.85.571.85z" fill="#DA6038"></path>
                        </g>
                        <defs>
                            <clipPath id="surprised_svg__clip0">
                                <path fill="#fff" d="M0 0h56v56H0z"></path>
                            </clipPath>
                        </defs>
                    </svg>