<svg id="dissapointed" viewBox="0 0 56 56" fill="none" xmlns="http://www.w3.org/2000/svg"><g clip-path="url(#disappointed_svg__clip0)"><path d="M37.734 56l-18.728-2.008c-7.085 0-10.726-5.817-12.88-12.88l-3.48-19.11C.827 11.636 7.025 6.507 14.111 6.507l27.454 2.242c7.085 0 12.88 5.796 12.88 12.881l-3.838 21.49C48.82 50.175 45.544 55.81 37.733 56z" fill="#97D7F6"></path><path d="M49.728 33.367c-1.524 1.73-3.905 2.564-6.067 2.132h-.058a16.962 16.962 0 01-.066-.022.757.757 0 00-.286.022.853.853 0 00-.256.132.669.669 0 00-.183.22.685.685 0 00-.081.27c-.623 6.002-6.843 10.698-14.156 10.698-7.312 0-13.386-4.513-14.133-10.5a.716.716 0 00-.11-.292.741.741 0 00-.316-.44.7.7 0 00-.527-.095c-2.162.432-4.543-.403-6.067-2.132-1.165-1.32-1.56-2.91-1.084-4.353.293-.894.799-1.48 1.539-1.802 1.575-.689 3.758.007 4.586.322.125.425.403 1.165.784 1.063.528-.132.726-1.326.682-1.92-.044-.593-.484-3.935-.638-4.594-.154-.667-.205-1.993-.095-2.586.103-.55 3.4-6.463 3.89-7.335 3.261 1.993 15.204 8.58 25.953 5.496.49.938.857 1.663.886 1.839.117.593.066 1.92-.095 2.586-.161.66-.593 4-.637 4.594-.052.6.16 1.788.68 1.92.382.102.653-.638.785-1.063.835-.315 3.019-1.01 4.587-.322.74.322 1.245.916 1.538 1.802.506 1.458.11 3.041-1.055 4.36z" fill="#D3F1FF"></path><path d="M12.024 29.183s-1.239-.835-2.653.3c-1.421 1.136-.88 2.895-.88 2.895.067.168.213.088.213.088s.096-.044.14-.227c.175-.69.476-1.143.813-1.444 1.26.77 1.692 1.978 1.692 1.978.103.25.271.206.271.206s.162-.037.191-.25c.051-.498-.037-.74-.227-1.443-.11-.403-.41-.784-.645-1.033.396-.044.733-.007.88-.015.417-.022.556-.241.57-.534.03-.294-.365-.52-.365-.52zM47.83 29.476c-1.421-1.135-2.652-.3-2.652-.3s-.396.235-.381.528c.015.3.154.512.572.542.146.007.483-.03.879.014-.235.25-.535.63-.645 1.034-.19.703-.278.945-.227 1.443.03.212.19.249.19.249s.169.051.271-.205c0 0 .433-1.216 1.693-1.978.337.3.637.747.813 1.443.044.183.14.227.14.227s.146.073.212-.088c.022-.007.557-1.773-.865-2.909z" fill="#1A78BE"></path><path d="M52.249 28.582c-.433-1.296-1.224-2.198-2.352-2.689-1.349-.586-2.916-.446-4.133-.175l1.04-3.605s1.078-2.491 1.092-6.741c1.517-1.128 3.048-2.93 3.847-6.352.125-.645.088-1.495-.733-1.056-.813.44-1.597 1.363-7.18.645 2.623-1.385 4.154-4.792 4.154-4.792s.33-.578 0-.666c-.264-.074-.505.183-.703.278-2.982 1.297-6.243 1.114-7.51.975 1.612-.96 1.707-2.492 1.75-2.719.045-.249-.006-.469-.19-.55-.183-.08-.425.06-.425.06s-.996.483-2.645.82c-1.648.337-3.539-.564-3.97-.71-.433-.155-4.69-1.708-8.339-1.202-6.301.754-10.558 5.04-11.408 5.964-.674-.403-1.656-1.224-1.656-1.224s-.557-.747-.344.22c.154.681.557 1.539.828 2.066-.015 0-.022-.007-.037-.007a56.092 56.092 0 01-1.487-.484s-.66-.256-.206.183c.257.25.829.63 1.341.953-1.003.813-3.605 3.282-3.678 7.004-.088 4.61 1.085 7.327 1.085 7.327l1.04 3.605c-1.216-.278-2.784-.417-4.132.176-1.129.491-1.92 1.4-2.352 2.69-.652 1.948-.147 4.058 1.377 5.788 1.539 1.743 3.795 2.74 6.038 2.74.249 0 .49-.015.732-.037 1.121 6.455 7.664 11.269 15.511 11.269 7.892 0 14.39-4.8 15.512-11.269.241.022.49.037.732.037 2.242 0 4.5-.997 6.038-2.74 1.51-1.722 2.015-3.832 1.363-5.781zm-2.47 4.814c-1.524 1.73-3.912 2.565-6.074 2.133-.022-.008-.036 0-.058 0l-.066-.023a.728.728 0 00-.806.653c-.63 6.008-6.85 10.712-14.17 10.712S15.202 42.35 14.455 36.356a.678.678 0 00-.11-.293.725.725 0 00-.842-.535c-2.162.433-4.55-.402-6.074-2.132-1.165-1.319-1.561-2.909-1.085-4.352.3-.894.799-1.487 1.546-1.81 1.575-.688 3.766.008 4.594.323.125.425.403 1.165.784 1.062.528-.14.733-1.326.689-1.92-.044-.593-.484-3.941-.645-4.6-.161-.668-.205-1.994-.088-2.587.103-.55 3.407-6.47 3.898-7.35 3.268 1.994 15.226 8.595 25.989 5.503.49.938.857 1.664.886 1.847.118.593.066 1.92-.087 2.586-.162.667-.594 4.008-.645 4.602-.044.593.16 1.787.688 1.92.381.094.66-.646.784-1.063.836-.315 3.02-1.011 4.594-.323.74.323 1.246.916 1.54 1.81.468 1.444.072 3.026-1.093 4.352z" fill="#1A78BE"></path><path d="M36.422 28.969c.03-.313.044-.639.044-.973 0-2.469-.828-4.47-1.854-4.47-1.025 0-1.853 2.001-1.853 4.47 0 2.47.828 4.47 1.853 4.47.665 0 1.246-.839 1.573-2.1a.784.784 0 01-.583.283c-.499 0-.902-.528-.902-1.187 0-.652.403-1.187.902-1.187.365 0 .679.283.82.694zM29.462 31.447s1.707-.117 1.502 1.664c-.205 1.78-1.759 2.095-2.74 1.89-.982-.205-1.4-1.143-1.547-1.45-.146-.309 0-.367 0-.367s.103-.117.33.146c.235.264 1.033 1.085 2.425.587.308-.147.799-.718.36-1.04-.44-.33-1.466-1.29-.33-1.43zM22.64 32.466c-1.025 0-1.853-2-1.853-4.47 0-2.469.828-4.47 1.853-4.47 1.026 0 1.854 2.001 1.854 4.47 0 .381-.02.751-.057 1.104-.115-.48-.456-.825-.859-.825-.498 0-.901.535-.901 1.187 0 .66.403 1.187.901 1.187.26 0 .495-.146.659-.378-.322 1.314-.916 2.195-1.597 2.195z" fill="#1A78BE"></path><path d="M32.283 21.124s3.084 3.23 6.77 4.44c.432.176.864.293.586 1.201-.279.909-.99.608-.99.608s-3.318-.205-7.678-5.033c-.337-.418-.176-.718.242-1.107.41-.373.755-.425 1.07-.11zM18.01 25.08s4.257-1.34 6.975-4.11c.344-.315.645-.645 1.334 0 .688.652.11 1.157.11 1.157s-1.65 2.887-7.906 4.668c-.52.117-.726-.162-.887-.704-.154-.542-.044-.872.374-1.01zM24.648 38.68s2.374-3.159 7.488-.726c.418.139.806.835.286.864-.52.03-2.865-2.249-7.276.184-.505.366-.791-.008-.498-.323z" fill="#1A78BE"></path></g><defs><clipPath id="disappointed_svg__clip0"><path fill="#fff" d="M0 0h56v56H0z"></path></clipPath></defs></svg>