<svg id="dylan" viewBox="0 0 72 72" fill="none" xmlns="http://www.w3.org/2000/svg">
							<path d="M46.823 70.164l-22.122-2.373c-8.368 0-12.667-6.874-15.216-15.219L5.378 29.998c-2.146-12.24 5.184-18.292 13.55-18.292l32.43 2.647c8.37 0 15.216 6.848 15.216 15.216L62.039 54.95c-2.121 8.328-5.986 14.986-15.216 15.214z" fill="#A6F2EE"></path>
							<path d="M28.892 49.474c-2.338-.213-2.349 2.369-2.55 2.975l-.85 2.55c-.213.637-.213 1.7-.213 1.7-5.95.85-10.838 2.125-12.75 3.188-1.913 1.062-3.4 4.25-3.4 4.25-1.59 3.406-1.7 5.312-1.7 5.312l56.22.005s-.611-2.489-1.394-4.68c-1.062-2.975-2.975-4.888-4.887-5.525-1.913-.638-11.476-2.763-11.476-2.763 0-.637-.212-1.275-.85-2.975-.637-1.7-.425-1.487-.85-2.975s-1.912-1.063-1.912-1.063V48.2H28.892v1.275z" fill="#13A093"></path>
							<path d="M25.313 55.493c-.215.64-.215 1.706-.215 1.706-6.033.853-10.988 2.133-12.927 3.2-1.94 1.066-3.447 4.265-3.447 4.265C7.112 68.083 7 69.996 7 69.996L64 70s-.62-2.498-1.413-4.696c-1.078-2.986-3.017-4.906-4.956-5.546-1.939-.64-11.634-2.772-11.634-2.772 0-.64-.216-1.28-.862-2.986l-19.822 1.493z" fill="#fff"></path>
							<path d="M29.104 49.048l-.212 7.013 5.1 5.313h3.4l4.781-6.907-.212-5.737-12.857.319z" fill="#F3FFFE"></path>
							<path d="M44.192 50.536c.425 1.488.213 1.275.85 2.975.638 1.7.85 2.338.85 2.975 0 0-3.825 5.526-5.95 8.076 0 0-2.125-3.4-2.975-5.95 1.275-2.126 7.225-8.076 7.225-8.076zM25.279 56.699s0-1.063.212-1.7l.85-2.55c.115-.347.168-1.337.63-2.083 0 0 5.32 5.908 7.233 8.458 0 0-.85 2.338-3.188 5.738 0 0-3.612-4.675-5.737-7.863z" fill="#fff"></path>
							<path d="M64.576 70.695c0-.002-.257-.971-.612-2.217-.355-1.245-.807-2.764-1.207-3.882-.552-1.55-1.33-2.833-2.233-3.82-.904-.985-1.93-1.678-2.986-2.03-.26-.088-.623-.19-1.073-.31-1.57-.422-4.18-1.038-6.401-1.548a596.5 596.5 0 00-3.668-.833 5.022 5.022 0 00-.176-.806c-.14-.48-.357-1.07-.676-1.923a18.974 18.974 0 01-.334-.945c-.108-.345-.148-.536-.208-.808a17.47 17.47 0 00-.295-1.18 2.295 2.295 0 00-.357-.745 1.82 1.82 0 00-.812-.619c-.262-.1-.51-.131-.723-.138v-1.224h-14.45v1.275c-.506.045-.94.223-1.269.487a2.589 2.589 0 00-.66.805c-.237.438-.358.893-.439 1.273-.04.192-.07.364-.095.502a2.482 2.482 0 01-.06.27l-.85 2.55c-.066.202-.11.412-.144.62a8.165 8.165 0 00-.081.789c-2.818.416-5.387.924-7.504 1.46a38.229 38.229 0 00-2.94.858c-.84.29-1.527.576-2.047.865-.55.306-1.04.744-1.473 1.22-.65.714-1.182 1.526-1.556 2.161-.374.636-.59 1.099-.595 1.11-1.632 3.502-1.85 6.63-1.855 6.668l-.04.567 58 .217-.18-.67zM25.81 56.699v-.009c0-.05.005-.31.03-.622.013-.155.032-.325.058-.483.025-.157.059-.308.097-.416l.85-2.55c.04-.121.062-.236.087-.364.043-.223.085-.482.153-.748a3.93 3.93 0 01.081-.282c.633.71 1.777 1.995 2.982 3.383 1.33 1.532 2.73 3.185 3.574 4.288-.247.602-1.06 2.444-2.726 4.945-.931-1.215-3.473-4.57-5.186-7.108v-.034zm17.942-5.113l.132-.134c.056.234.092.412.136.612.043.183.094.38.174.633.081.255.19.57.351 1.001.319.848.527 1.426.652 1.85.126.426.164.681.164.938v.02a250.5 250.5 0 01-2.46 3.461c-.97 1.337-2.04 2.782-2.908 3.86-.238-.4-.589-1.006-.967-1.71-.571-1.06-1.198-2.341-1.59-3.455.141-.214.324-.467.543-.748.977-1.256 2.611-3.034 3.995-4.488.69-.727 1.322-1.375 1.779-1.84zM27.984 50.12a1.49 1.49 0 01.642-.126c.068 0 .14.005.217.01l.58.054V48.73h12.326v1.45l.673-.194.004-.002a1.46 1.46 0 01.321-.037c.175 0 .37.034.525.128.079.047.151.108.221.202.045.06.087.136.128.23-.504.507-1.643 1.668-2.873 2.977a82.569 82.569 0 00-2.436 2.69c-.372.431-.712.844-1.003 1.218-.29.374-.531.71-.705.998a.42.42 0 00-.039.353c.058.174.122.35.19.53a2.973 2.973 0 00-2.261-.028c.072-.177.108-.272.11-.277a.427.427 0 00-.06-.4c-.486-.65-1.181-1.5-1.952-2.415-1.87-2.223-4.187-4.822-5.003-5.734.113-.127.238-.227.395-.3zM9.611 64.362l.002-.006c.036-.08.414-.863.999-1.739.29-.438.635-.897 1.007-1.3.372-.404.774-.75 1.167-.967.433-.242 1.075-.514 1.876-.789 2.37-.816 6.133-1.676 10.479-2.305 1.043 1.542 2.367 3.355 3.462 4.824a219.853 219.853 0 002.076 2.74.423.423 0 00.686-.02c.461-.668.863-1.297 1.214-1.877.13.593.416 1.129.818 1.545.013.013.025.024.04.036a56.284 56.284 0 00-.085 3.239c0 1.218.028 2.14.028 2.144l.008.296-25.473-.096c.14-1.02.559-3.294 1.696-5.725zm28.835 5.842c-.217-1.781-.565-4.148-.79-5.625.038-.036.078-.07.114-.109.377-.39.65-.884.789-1.43.57 1.024 1.018 1.743 1.02 1.747a.424.424 0 00.686.047c1.078-1.292 2.565-3.313 3.791-5.018.867-1.207 1.6-2.25 1.953-2.758.051.01.11.026.179.04.926.209 3.273.736 5.593 1.282 1.16.272 2.314.548 3.281.792.483.122.918.234 1.284.334.363.1.659.185.852.249.856.284 1.74.867 2.54 1.74.796.874 1.506 2.034 2.016 3.46.383 1.073.833 2.582 1.186 3.817.172.599.319 1.134.427 1.527l-24.92-.095z" fill="#21B7A9"></path>
							<path d="M49.838 35.676c.009.301.022.61.034.913.051 1.248.105 2.538-.117 3.314-.006.025-.584 2.159-2.69 4.447-.227.249-.476.527-.74.825-2.216 2.495-5.924 6.67-10.823 6.67-4.46 0-7.78-3.553-9.565-5.463-.259-.279-.484-.519-.68-.714-1.889-1.887-3.905-4.65-3.905-6.74 0-1.002 0-2.09-.003-3.276l.107-1.268-.213.85s-4.887 0-4.887-4.463 4.675-4.038 4.675-4.038-.213-2.975-.213-4.887c0-1.913.85-15.939 14.663-15.939S50.57 19.296 50.57 21.846c0 2.55-.212 4.887-.212 4.887s4.462-.212 4.462 4.038-4.887 4.463-4.887 4.463l-.213-.85.12 1.292z" fill="#F3FFFE"></path>
							<path d="M38.042 35.565c-.117-.178-.234-.268-.253-.283a.28.28 0 00-.393.058.287.287 0 00.053.395c.002.002.072.06.138.166a.852.852 0 01.128.46.826.826 0 01-.085.33c-.09.192-.251.396-.485.55a1.67 1.67 0 01-.935.262c-.05 0-.104-.002-.16-.006-.624-.045-1.05-.18-1.34-.353a1.484 1.484 0 01-.353-.287 1.557 1.557 0 01-.227-.34.28.28 0 00-.377-.127.285.285 0 00-.125.38c.08.161.183.32.315.467.197.221.46.413.8.553.34.14.755.234 1.27.272.068.004.133.006.2.006.33 0 .628-.061.885-.167.387-.158.678-.413.876-.687.098-.138.174-.282.225-.427.051-.145.079-.29.079-.43a1.455 1.455 0 00-.236-.792z" fill="#21B7A9"></path>
							<path d="M40.792 40.336l-2.337 2.327c-.753.746-1.488 1.583-2.87 1.583-.85 0-1.27-.198-2.868-1.785-.213-.21-2.125-1.7-2.125-1.7s4.675 3.187 10.2-.425z" fill="#fff"></path>
							<path d="M41.04 40.134a.32.32 0 00-.422-.066c-1.95 1.273-3.766 1.67-5.307 1.673-1.358 0-2.499-.315-3.3-.627a8.147 8.147 0 01-.927-.43c-.106-.057-.187-.106-.24-.138l-.06-.038-.012-.008-.002-.002a.32.32 0 00-.376.514l.302.236c.274.214.688.54 1.053.83.183.147.353.283.487.394l.168.14c.045.036.076.068.085.074.805.8 1.318 1.258 1.775 1.535.227.138.444.227.662.278.22.051.432.064.655.064a3.215 3.215 0 001.849-.566c.49-.329.873-.741 1.245-1.109l2.338-2.327c.119-.114.13-.3.027-.427zm-2.811 2.302c-.38.378-.74.756-1.152 1.032a2.556 2.556 0 01-1.494.457c-.2 0-.359-.012-.51-.046-.223-.054-.448-.16-.782-.41-.331-.251-.759-.642-1.354-1.235a2.684 2.684 0 00-.172-.151l-.091-.077c.737.21 1.628.372 2.633.372a9.705 9.705 0 003.738-.758c-.3.303-.595.597-.816.816zM34.6 45.291a.98.98 0 00.376.22c.148.05.308.07.47.067.16.002.327-.034.488-.074.08-.024.162-.053.242-.079l.238-.102.021-.008a.318.318 0 11.251.586l-.023.009-.293.1c-.102.025-.202.053-.304.074a2.545 2.545 0 01-.638.047 1.869 1.869 0 01-.64-.147 1.587 1.587 0 01-.293-.164 1.27 1.27 0 01-.265-.244.233.233 0 01.342-.315l.027.03z" fill="#21B7A9"></path>
							<path d="M54.68 28.227a3.882 3.882 0 00-1.12-1.141c-.625-.42-1.297-.635-1.86-.752a6.808 6.808 0 00-.769-.11c.03-.411.07-1.023.104-1.754.151-1.547.236-3.298-.042-4.96 0 0 .425-3.188.85-4.25 0 0 .425-.85-.213-.638-.637.213-.85.213-.85.213s.213-1.913.213-3.188c0-1.275-1.063.425-1.275.425-.213 0-.213-.637 0-1.062.212-.425.212-.85-1.488-.85 0 0 1.7-1.913 1.913-2.55.212-.638.212-.85-.425-.85-.638 0-2.55.85-3.613.85-1.063 0-1.913-.213-1.913-.213s4.038-3.613 4.463-4.675c.425-1.063-.425-.85-.85-.638-.425.213-6.375 3.4-8.925 2.763 0 0 1.062-2.325 1.062-4.25 0-1.063-.85-.425-1.062-.213 0 0-3.188 3.4-5.526 4.675v-1.7c0-.425-.212-1.062-1.275-.212-1.062.85-2.55 2.762-3.612 3.4l-.638-1.913c-.212-.637-.637-.425-.85 0l-2.55 5.1-.637-1.275c-.213-.425-.213-.85-.638-.85-.637 0-.637 2.126-.85 2.763-.212.638-.425 1.7-.425 2.125l-.85-.85s-.638-.425-.638.213c0 .637.425 2.337.425 3.4 0 0-.425-.213-.85-.638-.425-.425-.425 0-.425.425 0 .402.761 4.233.842 5.18a16.288 16.288 0 00-.098 1.62c0 .976.053 2.202.106 3.19l.068 1.16c-.267.011-.603.039-.977.111-.748.143-1.654.45-2.395 1.152-.37.348-.69.797-.916 1.35-.225.552-.35 1.204-.35 1.965-.003 1.211.337 2.174.864 2.892.393.54.882.94 1.384 1.233.754.442 1.534.652 2.133.76.238.043.444.069.612.084.002 1.15.002 2.21.002 3.185 0 .608.145 1.23.379 1.857.352.938.911 1.885 1.562 2.784.65.9 1.394 1.75 2.12 2.476.188.187.409.423.668.701.894.956 2.195 2.353 3.861 3.52.833.582 1.762 1.109 2.778 1.491a9.379 9.379 0 003.313.618c1.3 0 2.52-.278 3.644-.728 1.687-.678 3.162-1.743 4.425-2.87 1.264-1.125 2.318-2.313 3.151-3.25.264-.298.51-.576.733-.819a13.874 13.874 0 002.219-3.196c.214-.43.359-.788.455-1.043.046-.128.08-.23.104-.304l.025-.087.013-.045c.074-.264.117-.546.142-.852.028-.308.036-.64.036-.98 0-.531-.023-1.092-.044-1.636-.01-.283-.024-.565-.032-.844a7.598 7.598 0 002.231-.648c.668-.319 1.354-.79 1.879-1.498.525-.706.871-1.643.869-2.807.004-1.046-.253-1.892-.667-2.542zm-7.087-.727c-.232-.338-.5-.65-.8-.933A6.102 6.102 0 0042.6 24.93a6.102 6.102 0 00-4.195 1.638 5.661 5.661 0 00-1.218 1.656h-2.988a5.598 5.598 0 00-1.218-1.656 6.102 6.102 0 00-4.194-1.638 6.101 6.101 0 00-4.195 1.638c-.3.283-.568.595-.8.933v-.021H22.26c.107-1.868.262-3.846.47-4.569.425-1.488 1.913-2.55 1.913-3.188 0-.425-.425-.425-.425-1.912 0-1.488 2.975-4.888 4.037-4.888 1.063 0 7.438 2.55 8.076 2.55.637 0 5.525-2.55 6.375-2.55 1.275 0 4.675 2.55 4.675 4.25 0 1.275-.638 2.338-.638 2.763 0 .85 1.7 1.275 1.913 2.763.145 1.011.487 2.518.689 4.781h-1.752v.021zm-.107 3.06c0 1.254-.537 2.387-1.42 3.22a5.045 5.045 0 01-3.468 1.35 5.049 5.049 0 01-3.468-1.35c-.882-.833-1.42-1.966-1.42-3.22 0-1.253.538-2.386 1.42-3.22a5.045 5.045 0 013.468-1.349c1.36 0 2.585.519 3.469 1.35.882.833 1.42 1.966 1.42 3.22zm-13.813 0c0 1.254-.538 2.387-1.42 3.22a5.045 5.045 0 01-3.468 1.35 5.049 5.049 0 01-3.468-1.35c-.882-.833-1.42-1.966-1.42-3.22 0-1.253.538-2.386 1.42-3.22a5.045 5.045 0 013.468-1.349c1.36 0 2.585.519 3.469 1.35.882.833 1.42 1.966 1.42 3.22zm19.955 2.387a3.709 3.709 0 01-1.071.952c-.606.365-1.278.572-1.794.682-.161.034-.304.06-.43.076l-.099-.401a.532.532 0 00-1.046.178l.12 1.278c.008.3.02.601.033.9.024.547.045 1.095.045 1.594 0 .321-.008.623-.032.889a3.682 3.682 0 01-.11.665l-.005.01c-.025.096-.603 2.09-2.569 4.223-.231.253-.482.536-.746.831-1.107 1.245-2.565 2.884-4.326 4.197-.88.657-1.834 1.233-2.852 1.64-1.018.409-2.1.653-3.247.653a8.35 8.35 0 01-2.94-.55c-1.372-.515-2.6-1.341-3.65-2.221-1.05-.88-1.92-1.809-2.586-2.523-.26-.278-.487-.52-.693-.726-.92-.92-1.875-2.057-2.586-3.2a9.742 9.742 0 01-.855-1.684c-.204-.54-.312-1.045-.31-1.483 0-.995 0-2.076-.002-3.252l.104-1.247a.528.528 0 00-.442-.567.528.528 0 00-.602.395l-.104.419c-.44-.047-1.168-.175-1.868-.506-.541-.255-1.058-.625-1.438-1.156-.379-.534-.642-1.237-.644-2.242 0-.86.187-1.48.459-1.945a2.76 2.76 0 01.752-.829c.436-.318.948-.507 1.426-.614a5.446 5.446 0 011.267-.125c.053.43.078.914.087 1.394a1.278 1.278 0 00-.327-.047c-.655 0-2.294.52-2.34 2.176a.882.882 0 00.42.806s-.08-.457 0-.852c.075-.36.247-.568.515-.568.56 0 .56 1.373.467 1.847 0 0 .468-.096.468-1.326 0-.567-.187-.946-.187-.946s.234-.142.608-.142c.116 0 .246.03.374.076-.015.861-.064 1.524-.064 1.524s.425.425 1.063.425c0 0 .212 0 .212-.212 0-.073.023-.9.072-2.02h.8c-.086.377-.13.768-.13 1.17 0 1.561.675 2.979 1.755 3.993a6.105 6.105 0 004.195 1.638 6.101 6.101 0 004.195-1.639c1.077-1.013 1.755-2.43 1.755-3.992 0-.217-.015-.43-.038-.638h1.991a5.24 5.24 0 00-.038.637c0 1.562.676 2.98 1.755 3.994a6.101 6.101 0 004.195 1.638 6.101 6.101 0 004.195-1.639c1.077-1.013 1.755-2.43 1.755-3.992 0-.402-.044-.793-.13-1.17h1.048c.024.566.039 1.165.039 1.807 0 0 0 .213.212.213.213 0 .85 0 1.063-.213.104-.104.055-.712.004-1.53.123-.045.246-.07.359-.07.374 0 .608.142.608.142s-.187.378-.187.946c0 1.23.467 1.326.467 1.326-.093-.474-.093-1.847.468-1.847.268 0 .442.208.514.568.08.395 0 .852 0 .852s.438-.23.42-.806c-.046-1.655-1.684-2.176-2.339-2.176-.125 0-.248.022-.365.056-.015-.451-.02-.925.004-1.386.161.01.365.03.595.07.603.104 1.36.349 1.934.852.289.253.537.568.72.982.183.415.3.933.3 1.594.01.96-.255 1.643-.646 2.174z" fill="#21B7A9"></path>
							<path d="M24.733 23.284s-.157-.863.712-.801c.871.061 6.577-.179 6.577-.179s1.111-.242 1.073.29l-.074 1.06s-.045.635-.48.605c-.436-.03-7.215-.08-7.215-.08s-.653-.047-.623-.47l.03-.425zM47.086 24.122s.168-.861-.702-.81c-.869.05-6.553-.25-6.553-.25s-1.105-.256-1.074.275c.039.636.062 1.06.062 1.06s.038.636.472.61c.433-.025 7.191.003 7.191.003s.653-.038.627-.463l-.023-.425zM30.712 29.736c0 1.124-.46 2.036-1.028 2.036-.568 0-1.029-.912-1.029-2.036s.461-2.034 1.029-2.034c.567 0 1.028.91 1.028 2.034z" fill="#21B7A9"></path>
							<path d="M30.058 29.27c0 .306-.125.555-.28.555-.155 0-.28-.248-.28-.555 0-.305.124-.554.28-.554.155 0 .28.248.28.554z" fill="#fff"></path>
							<path d="M42.69 30.044c0 1.124-.461 2.036-1.029 2.036-.57 0-1.028-.912-1.028-2.036s.461-2.034 1.028-2.034c.568-.002 1.029.91 1.029 2.034z" fill="#21B7A9"></path>
							<path d="M42.035 29.579c0 .306-.125.554-.28.554-.156 0-.28-.248-.28-.554 0-.306.124-.555.28-.555.153 0 .28.249.28.555z" fill="#fff"></path>
						</svg>