<svg id="family-universal" viewBox="0 0 65 64" fill="none" xmlns="http://www.w3.org/2000/svg">
						<g clip-path="url(#icon_teacher_svg__clip0)">
							<path fill-rule="evenodd" clip-rule="evenodd" d="M13.337 8.306l20.334-5.67C42.37.211 51.413 5.17 54.044 13.809l8.19 26.897c2.676 8.784-2.277 18.075-11.063 20.75a16.626 16.626 0 01-5.905.687l-29.2-1.869C7.09 59.7.196 52.091.51 43.101l.675-19.358A16.628 16.628 0 0113.337 8.306z" fill="#D5BAFF"></path>
							<path d="M18.188 23.066a.148.148 0 00-.006.02c-.002.018-.007.036-.009.055v.003l-.055.28c-.304 1.15-1.517 2.009-2.926 2.009-1.443 0-2.659-.867-2.94-2.054l-.008-.042a2.11 2.11 0 01-.036-.209.16.16 0 00-.011-.033 2.728 2.728 0 01-.056-.487c0-.248.094-3.14.094-3.14l.038-.603.42-.033s.07.027.115-.08c.044-.106.353-1.079.353-1.079l.39 1.021s-.012.08.121.08 2.939-.16 4.313.153l.127.017.032.523s.094 2.893.094 3.14c-.003.155-.02.308-.05.46z" fill="#F4EDFF"></path>
							<path d="M15.06 15.456s.047 0 .128.003l.107-.003h.022l.005.01c.931.067 4.064.56 4.438 4.165.068 1.053.137 4.77.137 4.77s.05.354-.22.557c-.268.202-.991.791-1.57.867-.579.075-.61-.199-.361-.725l-.315.035a3.34 3.34 0 01-2.238.852 3.334 3.334 0 01-2.254-.853l-.305-.034c.248.526.218.8-.361.725-.58-.075-1.303-.665-1.571-.867-.269-.203-.22-.558-.22-.558s.068-3.716.136-4.77c.374-3.605 3.506-4.097 4.437-4.163l.006-.01zm-1.805 2.378s-.293.981-.335 1.089c-.032.08-.078.085-.098.083l-.011-.003-.401.034-.036.607s-.09 2.919-.09 3.169c.004.165.021.33.053.491a.197.197 0 01.011.034c.007.072.02.141.035.21l.008.042c.268 1.198 1.425 2.073 2.8 2.073 1.341 0 2.497-.868 2.786-2.027l.052-.283.009-.059a2.81 2.81 0 00.054-.482c0-.25-.09-3.168-.09-3.168l-.03-.528-.122-.017c-1.308-.316-3.982-.154-4.108-.154-.126 0-.114-.08-.114-.08l-.373-1.031zm.204 4.9c.053-.044.137.02.137.02 1.53 1.047 2.762.332 2.762.332s.155-.096.158-.04c.002.056-.085.12-.085.12s-.027.022-.077.055c-.061.081-.367.53-.556.81a.998.998 0 01-.82.412h-.046c-1.1-.04-1.338-1.297-1.373-1.527a1.772 1.772 0 01-.074-.07s-.078-.067-.026-.111zm.398.407c.104.388.38 1.034 1.084 1.059a.752.752 0 00.648-.3c.063-.093.195-.29.319-.47a2.224 2.224 0 01-.983.094 2.587 2.587 0 01-1.068-.383zm1.833-.817c-.046.394-.397.463-.618.418-.22-.046-.316-.253-.349-.32-.032-.068 0-.08 0-.08s.022-.027.075.03a.477.477 0 00.548.13c.069-.032.18-.16.082-.23-.098-.072-.332-.286-.076-.316 0 0 .385-.027.338.368zm-1.883-1.978c-.009.03-.055.139-.003.208a.216.216 0 01.098-.024c.231 0 .418.38.418.848 0 .469-.187.848-.418.848-.23 0-.418-.38-.418-.848 0-.23.045-.438.118-.59-.07-.029-.198-.115-.123-.343.022-.039.055-.078.063-.033.007.04.026.208.15.23-.038-.054-.085-.163.056-.296.032-.02.072-.036.06 0zm2.9.025c-.011-.037.028-.02.059.003.134.137.083.243.041.295.127-.017.153-.182.163-.222.01-.044.041-.004.06.036.067.241-.08.32-.15.343.065.148.103.34.103.552 0 .469-.187.848-.418.848-.231 0-.419-.38-.419-.848 0-.468.188-.848.419-.848.048 0 .093.016.136.046.053-.066.014-.176.005-.205zm-2.888.68c-.073 0-.13.083-.13.187s.058.188.129.188c.072 0 .13-.084.13-.188s-.059-.188-.13-.188zm2.663 0c-.071 0-.129.083-.129.187s.058.188.13.188c.07 0 .128-.084.128-.188s-.057-.188-.129-.188zm-2.189-1.692c.181.026.186.24.148.306-.039.066-.096.172-.348.125-.252-.047-.799-.004-1.326.263-.117.04-.146.024-.176 0-.031-.024-.03-.12 0-.157 0 0 .485-.695 1.702-.538zm1.857 0c1.217-.158 1.702.537 1.702.537.029.037.031.133 0 .157-.031.024-.06.04-.176 0-.528-.267-1.075-.31-1.327-.263-.252.047-.309-.059-.347-.125-.038-.067-.033-.28.148-.306z" fill="#6500FF"></path>
							<path d="M51.439 26.777a.192.192 0 00-.007.02c-.002.02-.007.04-.01.06v.003l-.06.3c-.33 1.232-1.654 2.153-3.19 2.153-1.575 0-2.9-.93-3.207-2.2l-.01-.046a2.2 2.2 0 01-.04-.223.18.18 0 00-.012-.036 2.87 2.87 0 01-.06-.522c0-.266.102-3.365.102-3.365l.04-.646.46-.034s.077.028.125-.086c.048-.114.385-1.156.385-1.156l.427 1.094s-.014.085.13.085c.145 0 3.207-.171 4.706.165l.138.017.035.56s.102 3.1.102 3.366c-.004.165-.022.33-.054.491z" fill="#F4EDFF"></path>
							<path d="M47.747 18.227s.051 0 .143.004c.055-.003.095-.003.119-.004h.024l.006.011c1.041.075 4.542.618 4.96 4.604.076 1.164.153 5.27.153 5.27s.056.393-.245.617c-.3.224-1.108.875-1.755.958-.647.083-.682-.219-.404-.801l-.352.039c-.69.61-1.58.945-2.501.942a3.747 3.747 0 01-2.519-.944l-.34-.037c.276.582.242.884-.405.801-.647-.083-1.455-.734-1.756-.958-.3-.224-.246-.616-.246-.616s.076-4.107.153-5.271c.418-3.986 3.918-4.53 4.959-4.603l.006-.012zm-2.017 2.629s-.33 1.084-.376 1.203c-.047.119-.12.089-.12.089l-.45.036-.04.672s-.1 3.226-.1 3.502c.004.183.024.364.06.544.005.012.009.024.011.037.009.079.024.156.04.233l.008.046c.3 1.324 1.593 2.29 3.13 2.29 1.498 0 2.79-.958 3.113-2.24l.06-.312v-.003l.008-.063a.172.172 0 01.007-.02c.032-.17.05-.34.053-.512 0-.277-.1-3.502-.1-3.502L51 22.272l-.135-.017c-1.463-.35-4.45-.172-4.592-.172-.14 0-.127-.089-.127-.089l-.416-1.138zm.227 5.416c.059-.049.153.021.153.021 1.71 1.158 3.087.367 3.087.367s.174-.105.176-.044c.003.062-.094.134-.094.134s-.03.023-.087.059c-.068.09-.41.587-.62.896a1.12 1.12 0 01-.918.456h-.05c-1.23-.045-1.497-1.434-1.536-1.688a1.952 1.952 0 01-.082-.078s-.087-.074-.029-.123zm.445.449c.115.429.425 1.143 1.211 1.171a.845.845 0 00.725-.332c.052-.078.149-.218.252-.368l.103-.15c-.353.115-.728.15-1.097.103a2.914 2.914 0 01-1.194-.424zm2.049-.903c-.053.436-.444.512-.691.462-.247-.05-.354-.28-.39-.354-.036-.075 0-.089 0-.089s.025-.03.084.035c.059.065.26.267.612.143.077-.035.202-.176.092-.255-.11-.079-.371-.316-.085-.349 0 0 .43-.03.378.407zm-2.104-2.186c-.011.033-.063.154-.004.23a.238.238 0 01.11-.027c.258 0 .467.42.467.938s-.21.937-.468.937-.467-.42-.467-.937c0-.254.05-.484.132-.652-.078-.032-.221-.128-.137-.38.024-.043.06-.086.069-.036.008.045.029.229.17.254-.045-.06-.096-.18.06-.327.037-.022.081-.04.067 0zm3.24.027c-.012-.04.031-.02.066.003.15.152.092.27.046.328.142-.019.172-.202.182-.246.011-.05.046-.005.067.04.075.266-.09.353-.166.378.07.164.113.377.113.61 0 .519-.208.938-.467.938-.258 0-.467-.42-.467-.937 0-.517.21-.937.467-.937.055 0 .108.018.152.05.06-.073.016-.194.006-.227zm-3.229.751c-.079 0-.144.093-.144.208 0 .115.065.208.144.208.08 0 .144-.093.144-.208 0-.115-.064-.208-.144-.208zm2.978 0c-.08 0-.144.093-.144.208 0 .115.065.208.144.208.078 0 .145-.093.145-.208 0-.115-.065-.208-.145-.208zm-2.447-1.87c.203.03.208.265.165.339-.043.073-.107.19-.388.138-.282-.051-.893-.004-1.483.291-.13.045-.162.027-.197 0-.034-.026-.033-.133 0-.174 0 0 .543-.768 1.903-.593zm2.075 0c1.36-.174 1.903.594 1.903.594.032.042.035.148 0 .174-.035.027-.067.045-.197 0-.59-.295-1.201-.342-1.483-.29-.281.051-.345-.066-.388-.139-.042-.074-.037-.309.165-.338z" fill="#6500FF"></path>
							<path fill-rule="evenodd" clip-rule="evenodd" d="M27.947 20.203c-.321.387-.821.573-1.275.477h-.012c-.004 0-.009-.005-.014-.005a.147.147 0 00-.113.035.166.166 0 00-.056.111c-.132 1.343-1.437 2.395-2.973 2.395-1.536 0-2.812-1.01-2.968-2.35a.163.163 0 00-.023-.066.153.153 0 00-.178-.12c-.453.096-.953-.09-1.274-.477-.245-.296-.328-.65-.227-.973.062-.2.168-.332.323-.405.331-.154.837-.19 1.012-.12.025.096.265.324.344.302.111-.03-.075-.168-.084-.301-.008-.133-.101-.88-.134-1.029a2.003 2.003 0 01-.02-.579c.023-.123.715-1.446.818-1.642.685.446 3.193 1.922 5.45 1.23.104.21.18.373.187.412.024.133.014.43-.02.579-.033.149-.124.895-.134 1.029-.009.133-.144.27-.033.3.08.023.161-.206.187-.3.175-.071.788-.035 1.119.12.155.072.26.204.323.404.102.323.018.677-.226.973z" fill="#F4EDFF"></path>
							<path fill-rule="evenodd" clip-rule="evenodd" d="M22.983 13.26c.717-.105 1.555.216 1.64.247.086.031.458.219.782.148a2.4 2.4 0 00.521-.171s.047-.028.083-.011c.037.016.048.06.04.113a.731.731 0 01-.345.56c.25.03.89.067 1.478-.2.039-.019.086-.071.138-.056.066.018 0 .137 0 .137s-.301.704-.818.988c1.1.149 1.253-.042 1.415-.133.161-.092.167.085.144.217-.158.707-.46 1.078-.758 1.312-.003.877-.215 1.391-.215 1.391l-.205.745c.24-.057.549-.086.814.035.222.102.378.289.462.556.129.403.03.838-.272 1.194a1.575 1.575 0 01-1.188.565c-.048 0-.096-.002-.143-.007-.22 1.336-1.501 2.326-3.054 2.326-1.544 0-2.833-.993-3.053-2.326a1.375 1.375 0 01-.144.007 1.577 1.577 0 01-1.188-.565c-.3-.356-.398-.791-.27-1.194.085-.267.24-.455.463-.555.265-.121.575-.092.814-.036l-.205-.744s-.233-.56-.215-1.512c.015-.77.527-1.278.725-1.446a2.153 2.153 0 01-.263-.197c-.09-.091.04-.038.04-.038s.244.086.293.1l.007.002a2.15 2.15 0 01-.163-.427c-.043-.2.068-.045.068-.045s.193.168.326.25c.167-.19 1.005-1.075 2.246-1.23zm-1.744 2.489c-.096.181-.746 1.403-.766 1.517-.022.122-.013.397.018.534.03.136.118.826.126.95.008.122-.032.368-.135.396-.075.02-.13-.132-.154-.22-.164-.064-.595-.209-.905-.066-.146.067-.245.189-.304.373-.094.297-.016.626.213.899.301.356.77.53 1.196.44a.143.143 0 01.168.11.149.149 0 01.02.06c.148 1.238 1.346 2.171 2.787 2.171 1.441 0 2.667-.971 2.79-2.21a.152.152 0 01.053-.103.137.137 0 01.106-.033c.005.001.01.005.013.005h.011c.427.089.896-.083 1.197-.44.23-.273.307-.6.212-.9-.059-.183-.158-.305-.304-.372-.31-.143-.74.002-.905.066-.025.088-.079.24-.153.22-.104-.028-.144-.274-.136-.396.01-.124.095-.814.126-.95.032-.137.041-.412.019-.534a3.195 3.195 0 00-.176-.381c-2.12.638-4.473-.724-5.117-1.136zm.813 4.653c.046-.041.12.018.12.018 1.334.978 2.41.31 2.41.31s.135-.09.138-.038c.002.052-.074.113-.074.113s-.024.02-.068.05c-.164.25-.325.502-.485.756a.858.858 0 01-.716.385h-.04c-.96-.037-1.168-1.21-1.198-1.424a6.873 6.873 0 01-.054-.054l-.016-.017c-.014-.015-.055-.064-.016-.099h-.001zm.347.38c.09.361.331.964.946.988a.64.64 0 00.565-.281l.279-.437a1.822 1.822 0 01-.858.088 2.165 2.165 0 01-.932-.359zm1.6-.763c-.04.368-.347.433-.54.39-.193-.043-.276-.236-.304-.299-.028-.063 0-.075 0-.075s.02-.025.065.03a.4.4 0 00.478.12c.06-.03.158-.148.072-.215-.086-.066-.29-.266-.066-.294h.016c.066 0 .314.024.279.343zm-4.283-.695c.28-.234.523-.061.523-.061s.078.047.075.108c-.003.06-.03.106-.112.11-.058-.001-.116 0-.174.004.058.06.101.133.127.212.037.146.054.195.044.299a.057.057 0 01-.038.052s-.033.009-.053-.043a.866.866 0 00-.335-.41.585.585 0 00-.16.299.067.067 0 01-.029.047.028.028 0 01-.024 0 .03.03 0 01-.017-.02s-.107-.363.173-.597zm7.05-.061s.244-.173.524.06c.28.235.174.599.174.599a.03.03 0 01-.006.012.03.03 0 01-.023.01.028.028 0 01-.013-.003.068.068 0 01-.027-.047.58.58 0 00-.161-.298.87.87 0 00-.335.409c-.02.052-.053.043-.053.043a.057.057 0 01-.038-.052c-.01-.104.006-.153.044-.299a.547.547 0 01.126-.212 1.594 1.594 0 00-.173-.003c-.082-.005-.11-.05-.113-.11-.003-.062.075-.11.075-.11zm-2.004-.918c.202 0 .365.354.365.791 0 .437-.163.791-.365.791-.201 0-.364-.354-.364-.79 0-.438.163-.792.364-.792zm-2.323 0c.201 0 .364.355.364.793 0 .436-.163.79-.364.79-.202 0-.365-.355-.365-.792 0-.437.163-.791.365-.791zm2.25.486c-.062 0-.113.079-.113.175 0 .097.05.176.113.176.062 0 .113-.078.113-.176 0-.097-.05-.175-.113-.175zm-2.324 0c-.062 0-.112.079-.112.175 0 .097.05.176.112.176.063 0 .113-.078.113-.176 0-.097-.05-.175-.113-.175zm.482-1.545c.158.03.162.266.129.34-.033.074-.083.191-.303.139-.22-.053-.697-.004-1.157.291-.102.044-.127.027-.154 0-.027-.027-.026-.133 0-.174 0 0 .423-.77 1.485-.596zm1.506 0c1.061-.174 1.485.596 1.485.596.026.042.026.147 0 .174-.027.027-.053.044-.154 0-.46-.295-.938-.344-1.157-.291-.22.052-.27-.065-.303-.139-.034-.074-.03-.31.129-.34z" fill="#6500FF"></path>
							<path fill-rule="evenodd" clip-rule="evenodd" d="M21.628 30.712c-.351.4-.682.503-1.18.403h-.013c-.005 0-.01-.004-.015-.005a.166.166 0 00-.185.152c-.144 1.393-1.577 2.485-3.261 2.485-1.684 0-3.302-.958-3.475-2.349a.166.166 0 00-.024-.067.167.167 0 00-.196-.125c-.497.1-1.046-.094-1.397-.494-.27-.307-.36-.676-.25-1.01.069-.208.403-.436.573-.511.363-.16.866.001 1.058.075.028.098.032.203.12.18.121-.032.01-.15 0-.289-.01-.137-.112-.912-.148-1.067a1.947 1.947 0 01-.02-.6c.023-.127.87-1.854.984-2.057.751.463 3.62 1.983 6.097 1.266.113.217.209.659.216.7.027.138.017.446-.02.6a16.39 16.39 0 00-.148 1.068c-.01.138.037.414.158.446.088.023.15-.149.18-.247.192-.074.695-.235 1.058-.075.17.075.286.213.354.42.111.335-.197.794-.465 1.1z" fill="#F4EDFF"></path>
							<path fill-rule="evenodd" clip-rule="evenodd" d="M16.27 23.24c.803-.118 1.74.238 1.835.273.095.036.511.243.874.164.2-.04.395-.104.582-.189 0 0 .053-.031.093-.013.04.018.053.068.043.126a.813.813 0 01-.385.623c.279.032.996.074 1.652-.223.044-.02.096-.079.155-.063.073.021 0 .153 0 .153s-.337.781-.915 1.098c1.229.166 1.401-.046 1.581-.148.18-.102.188.095.161.242-.177.785-.514 1.198-.847 1.457-.004.975-.24 1.547-.24 1.547l-.23.826c.27-.063.614-.095.91.04.249.113.423.32.518.617.143.448.033.931-.305 1.327a1.767 1.767 0 01-1.328.628c-.053 0-.106-.003-.16-.009-.245 1.485-1.677 2.585-3.412 2.585-1.726 0-3.167-1.103-3.413-2.585a1.547 1.547 0 01-.16.01 1.767 1.767 0 01-1.328-.63c-.335-.394-.445-.878-.303-1.326.096-.297.27-.505.519-.616.295-.135.643-.104.91-.04l-.23-.827s-.26-.623-.24-1.68c.016-.855.59-1.42.81-1.607a2.404 2.404 0 01-.294-.219c-.1-.101.045-.042.045-.042s.272.096.327.111l.008.002a2.357 2.357 0 01-.181-.474c-.048-.222.075-.05.075-.05s.216.187.364.278c.187-.21 1.124-1.195 2.51-1.366zm-1.947 2.765c-.108.2-.835 1.558-.858 1.685-.025.136-.014.44.02.593.035.152.133.919.142 1.055.009.137-.035.41-.151.441-.084.023-.146-.147-.172-.244-.184-.072-.665-.232-1.012-.074-.163.074-.274.21-.34.415-.105.33-.018.695.239.998.336.397.86.588 1.337.49a.16.16 0 01.187.122c.012.02.02.043.024.067.164 1.375 1.503 2.412 3.113 2.412 1.611 0 2.981-1.08 3.12-2.456a.169.169 0 01.113-.145.155.155 0 01.063-.006c.006 0 .011.005.015.005h.013c.476.1 1-.092 1.337-.488.256-.304.343-.668.237-1-.066-.204-.177-.34-.34-.414-.346-.158-.828.002-1.012.074-.027.097-.088.267-.171.244-.116-.03-.161-.304-.151-.44.01-.138.105-.904.14-1.056.036-.152.046-.457.02-.593a3.426 3.426 0 00-.195-.423c-2.368.709-5-.804-5.718-1.262zm.908 5.17c.05-.046.133.02.133.02 1.491 1.086 2.693.345 2.693.345s.152-.1.155-.043c.003.058-.083.125-.083.125s-.026.022-.075.056c-.184.278-.364.558-.542.84a.955.955 0 01-.801.428h-.044c-1.072-.042-1.306-1.344-1.34-1.583l-.06-.06-.016-.017c-.015-.015-.064-.072-.02-.111zm.387.421c.101.402.37 1.071 1.057 1.098a.716.716 0 00.632-.312c.061-.096.19-.299.312-.485a2.049 2.049 0 01-.959.097 2.429 2.429 0 01-1.042-.398zm1.788-.847c-.045.41-.387.48-.603.433-.215-.047-.308-.261-.34-.332-.031-.07 0-.083 0-.083s.022-.028.073.033a.45.45 0 00.535.134c.066-.033.175-.165.08-.24-.096-.073-.324-.295-.075-.326 0 0 .375-.028.33.381zm-4.786-.772c.313-.26.585-.069.585-.069l.006.004c.02.015.08.061.077.117-.003.068-.034.118-.125.123a1.794 1.794 0 00-.194.004.607.607 0 01.14.236c.043.161.062.216.05.331a.063.063 0 01-.042.057s-.037.011-.06-.046a.965.965 0 00-.373-.455.637.637 0 00-.18.33.075.075 0 01-.031.053.031.031 0 01-.028 0 .033.033 0 01-.019-.021s-.119-.405.194-.664zm7.884-.07c.033-.022.289-.173.58.07.274.227.218.565.2.646l-.005.018a.034.034 0 01-.018.022.032.032 0 01-.028-.001.075.075 0 01-.032-.052.633.633 0 00-.18-.33.965.965 0 00-.373.454c-.022.057-.06.046-.06.046a.064.064 0 01-.042-.057c-.011-.114.007-.17.05-.331a.601.601 0 01.14-.236 1.794 1.794 0 00-.193-.004c-.092-.005-.123-.055-.126-.123-.004-.068.083-.12.083-.12l.004-.003zm-2.244-1.018c.225 0 .407.394.407.88 0 .485-.182.878-.407.878-.225 0-.408-.393-.408-.879 0-.485.183-.879.408-.879zm-2.597 0c.225 0 .407.395.407.88 0 .486-.182.878-.407.878-.226 0-.408-.393-.408-.879 0-.485.183-.879.408-.879zm2.515.54c-.07 0-.126.087-.126.195 0 .108.056.195.126.195.069 0 .126-.087.126-.195 0-.108-.057-.195-.126-.195zm-2.597 0c-.07 0-.127.087-.127.195 0 .108.057.195.127.195s.126-.087.126-.195c0-.108-.057-.195-.126-.195zm.539-1.717c.176.034.18.295.143.377-.034.076-.083.19-.276.167l-.063-.012c-.245-.058-.778-.005-1.293.324-.113.049-.142.03-.172 0s-.029-.147 0-.193c0 0 .473-.855 1.66-.663zm1.682 0c1.186-.192 1.66.663 1.66.663.03.046.03.164 0 .193-.03.03-.058.049-.173 0-.514-.329-1.047-.382-1.293-.324-.245.058-.301-.072-.338-.155-.038-.082-.033-.343.144-.377z" fill="#6500FF"></path>
							<path fill-rule="evenodd" clip-rule="evenodd" d="M62.058 40.9c-.623.717-1.593 1.064-2.474.885h-.024c-.007 0-.016-.007-.027-.008a.292.292 0 00-.219.065.304.304 0 00-.108.205c-.255 2.495-2.79 4.448-5.77 4.448-2.981 0-5.458-1.877-5.762-4.366a.296.296 0 00-.044-.122.297.297 0 00-.346-.222c-.881.18-1.852-.168-2.473-.885-.476-.55-.637-1.21-.442-1.808.122-.37.327-.616.628-.75.643-.287 1.532.002 1.872.134.05.176.163.483.318.442.215-.057.297-.551.28-.799-.017-.247-.198-1.635-.262-1.91-.063-.276-.083-.828-.036-1.075.042-.228 1.386-2.686 1.586-3.05 1.33.829 6.198 3.568 10.58 2.285.201.389.348.692.362.765.047.247.028.799-.037 1.075-.065.275-.242 1.663-.26 1.91-.019.248.065.742.279.798.154.042.266-.266.318-.441.34-.132 1.23-.421 1.871-.134.302.134.508.38.628.75.198.6.037 1.258-.438 1.808z" fill="#F4EDFF"></path>
							<path fill-rule="evenodd" clip-rule="evenodd" d="M52.115 27.137c1.436-.206 3.113.418 3.283.48.17.06.914.424 1.563.287a4.891 4.891 0 001.043-.332s.094-.055.166-.023c.072.033.094.12.076.221a1.419 1.419 0 01-.688 1.09c.499.057 1.781.13 2.956-.39.078-.036.173-.138.276-.11.106.029.042.183.013.243l-.013.024s-.603 1.369-1.636 1.923c2.2.288 2.508-.082 2.83-.26.323-.178.334.166.287.423-.316 1.375-.919 2.096-1.515 2.55-.007 1.706-.43 2.706-.43 2.706l-.41 1.447c.481-.11 1.097-.166 1.628.07.445.197.756.56.926 1.08.255.783.058 1.63-.546 2.321a3.188 3.188 0 01-2.376 1.1 2.8 2.8 0 01-.286-.015c-.44 2.598-3.001 4.523-6.107 4.523-3.089 0-5.667-1.93-6.108-4.523a2.8 2.8 0 01-.286.015 3.188 3.188 0 01-2.376-1.1c-.6-.691-.797-1.538-.542-2.322.172-.518.481-.882.927-1.079.529-.235 1.15-.18 1.628-.07l-.41-1.446s-.466-1.09-.43-2.94c.03-1.497 1.055-2.486 1.45-2.812a4.317 4.317 0 01-.527-.383c-.179-.178.08-.074.08-.074s.488.168.587.195l.014.004c-.106-.213-.265-.558-.325-.831-.086-.387.135-.087.135-.087s.386.327.652.487c.334-.37 2.011-2.09 4.491-2.392zm-3.486 4.839c-.193.352-1.492 2.728-1.533 2.949-.045.238-.026.772.036 1.038.061.266.236 1.608.252 1.847.017.24-.063.717-.27.772-.15.04-.26-.257-.308-.427-.328-.127-1.189-.407-1.81-.13-.291.13-.49.367-.607.726-.189.578-.034 1.216.426 1.747.602.694 1.54 1.03 2.393.856a.287.287 0 01.334.214.28.28 0 01.042.118c.294 2.406 2.69 4.22 5.572 4.22 2.883 0 5.335-1.888 5.582-4.298a.293.293 0 01.204-.252.284.284 0 01.112-.01c.01 0 .02.008.026.008h.024c.851.173 1.79-.162 2.392-.856.46-.53.615-1.167.424-1.747-.117-.358-.316-.596-.607-.726-.62-.276-1.482.003-1.81.13-.05.17-.159.467-.308.427-.207-.055-.288-.532-.27-.772.017-.24.19-1.58.252-1.847.063-.266.081-.8.036-1.038-.013-.071-.156-.364-.35-.74-4.238 1.24-8.947-1.408-10.233-2.209zm1.625 9.048c.092-.08.24.035.24.035 2.668 1.9 4.819.604 4.819.604s.271-.177.277-.075c.004.101-.148.219-.148.219s-.048.039-.135.097c-.106.148-.64.963-.97 1.47a1.721 1.721 0 01-1.434.749h-.08c-1.917-.072-2.334-2.352-2.395-2.77l-.13-.127s-.135-.121-.044-.202zm.695.737c.18.704.663 1.875 1.89 1.921a1.291 1.291 0 001.132-.545l.412-.63.145-.22c-.551.19-1.139.248-1.716.17a4.403 4.403 0 01-1.863-.696zm3.199-1.482c-.082.716-.693.84-1.08.757-.385-.083-.55-.458-.608-.58-.05-.108-.013-.139-.002-.145.002-.001.042-.05.133.056a.815.815 0 00.956.235c.12-.058.315-.288.144-.419-.172-.129-.58-.517-.134-.57 0 0 .672-.05.59.666zm-8.565-1.352c.559-.455 1.046-.12 1.046-.12s.155.094.15.212c-.006.119-.061.206-.225.216a3.293 3.293 0 00-.347.006c.092.1.21.25.253.413.074.282.108.38.087.58a.11.11 0 01-.075.1s-.066.019-.106-.083a1.695 1.695 0 00-.67-.795c-.133.12-.25.3-.32.578a.13.13 0 01-.057.092.058.058 0 01-.083-.036s-.212-.708.347-1.163zm14.101-.12s.487-.335 1.046.12c.559.454.35 1.163.35 1.163a.059.059 0 01-.034.038.057.057 0 01-.051-.002.13.13 0 01-.057-.092c-.07-.277-.187-.458-.32-.578-.301.189-.535.467-.67.795-.04.102-.105.083-.105.083a.112.112 0 01-.077-.1c-.02-.2.013-.298.089-.58.042-.162.16-.314.252-.414a3.293 3.293 0 00-.347-.006c-.164-.01-.219-.096-.225-.215-.006-.119.15-.211.15-.211h-.001zm-4.009-1.783c.402 0 .73.688.73 1.538 0 .85-.328 1.539-.73 1.539-.403 0-.73-.69-.73-1.539s.327-1.538.73-1.538zm-4.647 0c.403 0 .728.69.728 1.54 0 .85-.325 1.537-.728 1.537-.403 0-.73-.69-.73-1.539s.327-1.538.73-1.538zm4.5.945c-.124 0-.225.152-.225.34 0 .19.101.342.225.342.124.002.226-.152.226-.341 0-.19-.102-.34-.226-.34zm-4.647 0c-.124 0-.225.152-.225.34 0 .19.1.342.225.342.124.002.225-.152.225-.341 0-.19-.1-.34-.225-.34zm.964-3.004c.316.058.323.516.257.66-.067.144-.166.373-.606.27-.44-.101-1.394-.008-2.314.568-.204.085-.254.051-.308 0-.053-.052-.052-.259 0-.339 0 0 .847-1.497 2.971-1.159zm3.01 0c2.124-.338 2.97 1.159 2.97 1.159.054.08.054.287 0 .338-.053.052-.104.086-.306 0-.921-.575-1.876-.668-2.315-.566-.44.102-.54-.127-.607-.27-.066-.145-.059-.603.258-.66v-.001z" fill="#6500FF"></path>
							<path d="M16.525 40.248a.148.148 0 00-.007.02c-.001.018-.006.036-.008.055v.003l-.055.28c-.304 1.15-1.517 2.009-2.926 2.009-1.443 0-2.659-.867-2.94-2.054l-.008-.042a2.112 2.112 0 01-.037-.209.161.161 0 00-.01-.032 2.721 2.721 0 01-.056-.488c0-.248.094-3.14.094-3.14l.037-.603.422-.033s.07.027.114-.08c.044-.106.353-1.079.353-1.079l.39 1.021s-.012.08.12.08c.133 0 2.94-.16 4.314.153l.127.017.032.523s.094 2.893.094 3.14c-.003.155-.02.308-.05.46z" fill="#F4EDFF"></path>
							<path d="M13.398 32.638s.046 0 .127.003l.107-.003h.022l.005.01c.931.067 4.063.56 4.438 4.165.068 1.054.137 4.77.137 4.77s.05.354-.22.557c-.268.202-.991.791-1.57.867-.579.075-.61-.199-.361-.725l-.315.035a3.34 3.34 0 01-2.239.852 3.334 3.334 0 01-2.253-.853l-.305-.034c.248.526.218.8-.361.725-.58-.075-1.303-.665-1.571-.867-.269-.203-.22-.558-.22-.558s.067-3.715.136-4.77c.374-3.604 3.506-4.097 4.437-4.163l.006-.01zm-1.806 2.378s-.293.982-.335 1.09c-.032.08-.077.084-.098.082l-.011-.003-.401.034-.036.607s-.09 2.919-.09 3.169c.004.165.021.33.053.492a.2.2 0 01.011.033c.007.072.02.141.035.21l.008.043c.267 1.197 1.425 2.072 2.8 2.072 1.341 0 2.497-.867 2.786-2.027l.052-.283.009-.058a2.81 2.81 0 00.054-.482c0-.25-.09-3.169-.09-3.169l-.031-.528-.12-.017c-1.31-.316-3.983-.154-4.109-.154-.126 0-.114-.08-.114-.08l-.373-1.031zm.204 4.9c.053-.043.137.02.137.02 1.53 1.047 2.762.332 2.762.332s.155-.096.158-.04c.002.056-.085.121-.085.121s-.027.021-.077.054c-.061.081-.367.53-.556.81a.998.998 0 01-.82.413h-.046c-1.1-.04-1.338-1.297-1.373-1.527-.049-.045-.074-.071-.074-.071s-.078-.067-.026-.111zm.398.407c.103.388.38 1.034 1.084 1.059a.752.752 0 00.648-.3c.063-.093.195-.289.319-.469a2.224 2.224 0 01-.983.094 2.587 2.587 0 01-1.068-.384zm1.833-.817c-.046.395-.397.463-.618.418-.22-.045-.316-.253-.349-.32-.032-.068 0-.08 0-.08s.022-.027.075.03a.477.477 0 00.548.13c.069-.032.18-.16.082-.23-.098-.072-.332-.286-.076-.316 0 0 .385-.026.338.368zm-1.883-1.977c-.009.029-.055.138-.003.207a.217.217 0 01.098-.023c.231 0 .418.379.418.847 0 .469-.187.848-.418.848-.23 0-.418-.38-.418-.848 0-.229.045-.437.118-.59-.07-.029-.198-.115-.123-.342.022-.04.055-.078.062-.034.008.04.026.208.152.23-.04-.054-.086-.163.055-.295.032-.021.072-.037.06 0zm2.9.024c-.011-.037.028-.019.058.003.135.137.084.244.042.295.127-.017.153-.182.162-.222.012-.044.042-.004.062.036.066.242-.082.32-.15.343.063.148.102.34.102.552 0 .469-.187.848-.418.848-.231 0-.419-.38-.419-.848 0-.468.188-.848.419-.848.048 0 .093.017.136.046.053-.065.014-.176.005-.205zm-2.889.68c-.071 0-.129.083-.129.187s.058.188.129.188c.072 0 .13-.083.13-.188 0-.104-.059-.188-.13-.188zm2.664 0c-.071 0-.129.083-.129.187s.058.188.13.188c.07 0 .128-.083.128-.188 0-.104-.057-.188-.129-.188zM12.63 36.54c.181.026.186.24.147.306-.038.066-.095.172-.347.126-.252-.047-.799-.005-1.326.262-.117.04-.146.025-.176 0-.031-.024-.03-.12 0-.157 0 0 .485-.695 1.702-.538zm1.857 0c1.217-.158 1.702.537 1.702.537.029.037.03.133 0 .157-.031.025-.06.04-.176 0-.528-.267-1.075-.31-1.327-.262-.252.046-.309-.06-.347-.126-.038-.067-.034-.28.148-.306z" fill="#6500FF"></path>
							<path fill-rule="evenodd" clip-rule="evenodd" d="M43.926 48.813c-1.148 4.551-6.034 7.887-11.363 7.887-5.463 0-10.333-3.125-11.396-7.823v-.431c-.056-.272-.032-.57-.061-.85-.01-.045-.133-.136-.152-.178-.125-.636-.235-1.25-.25-1.899 0-.322.35-1.772.402-3.576-2.331 1.826-4.202-2.63-3.096-5.402 1.106-2.771 2.982.25 3.006-.53.052-1.706 0-2.923 0-2.923l.496-2.385 3.363-4.716c8.703 2.483 14.788 4.138 18.255 4.965l.48.064.51 2.072s-.056.69 0 2.496c.025.837.993-1.211 2.558-.657.246.087 1.247-.48 1.434.928.264 1.992-.434 5.61-1.434 6.302-1.707 1.183-1.99-.06-1.974.48.041 1.46 0 2.604 0 2.882-.008.406-.268 1.504-.778 3.294z" fill="#F4EDFF"></path>
							<path fill-rule="evenodd" clip-rule="evenodd" d="M35.18 13.24c4.272 0 7.584 4.238 7.584 7.48 0 1.382-.602 2.175-1.624 2.632 2.316 1.449 4.022 3.436 4.096 5.784l.003.161v5.397c.704-1.196 2.725-.537 3.331 1.072.53 1.407.147 3.61-.824 5.784.917.516 1.53 1.456 1.53 2.53 0 1.63-1.41 2.95-3.151 2.95a3.34 3.34 0 01-1.05-.168c-.42 3.572-1.639 6.066-3.658 7.481-2.428 2.086-5.605 3.242-8.902 3.237-3.491 0-6.661-1.233-8.962-3.24-1.946-1.585-3.119-4.126-3.518-7.623a3.314 3.314 0 01-1.417.313c-1.74 0-3.152-1.32-3.152-2.95 0-1.088.63-2.038 1.566-2.55-.856-1.806-1.172-4.09-.202-5.764.859-1.482 1.843-1.861 2.951-1.14l.098.067v-4.917c0-3.27 2.676-7.086 8.003-8.482a4.174 4.174 0 01-.955-2.691c0-3.535 3.98-5.364 8.252-5.364zM24.811 26.626s-.182 1.241-1.26 2.702c-.301.409-.947.987-1.938 1.735l-.168.127-.14 2.308s-.147 2-.147 2.974c0 .975-1.285-1.552-2.547-.435-.94.832-1.199 3.173-.531 4.821.042.104.088.203.136.296a3.248 3.248 0 012.7.907l.033-.01v.044c.51.523.82 1.22.82 1.984 0 .752-.3 1.438-.795 1.96.03.454.093.907.184 1.355a.705.705 0 01.043.127c.022.203.058.403.097.602l.041.197.032.16c1.064 4.546 5.668 7.867 11.136 7.867 5.26 0 9.803-3.201 11.03-7.515l.049-.18.21-1.073v-.009c.009-.072.026-.142.033-.214a.689.689 0 01.023-.074c.067-.339.117-.68.148-1.024-.633-.54-1.028-1.316-1.028-2.179 0-1.63 1.41-2.95 3.152-2.95.17 0 .339.013.502.038.578-.816.736-1.89.815-2.184.68-2.51-.109-3.754-1.498-3.754-1.39 0-2.1 2.429-2.114 1.951-.066-2.106-.139-3.597-.143-3.679v-.004l-.12-2.005c-3.279.072-6.82-.481-10.623-1.66-2.671-.828-5.382-1.897-8.132-3.206zm1.353 18.677c6.083 3.978 10.985 1.263 10.985 1.263s.618-.365.628-.153c.01.212-.336.459-.336.459s-.11.081-.309.204c-.242.31-1.46 2.015-2.211 3.075-.717.954-1.87 1.531-3.109 1.566l-.155.001h-.18c-4.373-.153-5.323-4.924-5.462-5.797a6.63 6.63 0 01-.292-.269c-.04-.033-.297-.264-.103-.421.208-.169.544.072.544.072zm1.038 1.47c.412 1.473 1.512 3.925 4.31 4.021 1.012.056 1.984-.374 2.58-1.142.249-.352.774-1.093 1.265-1.777a9.25 9.25 0 01-3.907.355 10.61 10.61 0 01-4.248-1.457zm7.291-3.102c-.185 1.5-1.58 1.758-2.46 1.587-.878-.172-1.256-.959-1.385-1.215-.13-.257 0-.306 0-.306l.006-.006c.024-.018.115-.062.292.126.209.222.927.918 2.178.492.274-.122.718-.605.327-.876-.391-.271-1.32-1.085-.304-1.198 0 0 1.531-.102 1.346 1.397zm-5.556-11.258c.72.102.737.909.585 1.162-.15.253-.378.656-1.38.477-.56-.099-1.481-.093-2.551.108.063-.003.126-.004.19-.004 2.454 0 4.508 1.605 5.029 3.755h3.286c.708-1.875 2.619-3.218 4.864-3.218 2.849 0 5.158 2.161 5.158 4.827s-2.31 4.828-5.157 4.828c-2.85 0-5.158-2.162-5.158-4.828 0-.181.01-.36.032-.537h-2.897c0 2.666-2.31 4.828-5.158 4.828-2.848 0-5.157-2.161-5.157-4.828 0-1.597.83-3.014 2.108-3.893-.352.1-.456.042-.565-.04-.122-.092-.119-.456 0-.598 0 0 1.93-2.638 6.77-2.04zm10.024 3.352c-2.216 0-4.012 1.682-4.012 3.755 0 2.074 1.796 3.755 4.011 3.755 2.216 0 4.012-1.681 4.012-3.755 0-2.073-1.796-3.755-4.011-3.755zm-13.18-.536c-2.216 0-4.012 1.681-4.012 3.755 0 2.073 1.796 3.754 4.011 3.754 2.216 0 4.011-1.681 4.011-3.755 0-2.072-1.796-3.754-4.01-3.754zm1.224.934c-.033.097-.174.42-.078.675.634.003 1.145.962 1.145 2.145 0 1.186-.513 2.146-1.146 2.146-.633 0-1.146-.961-1.146-2.146 0-.463.079-.892.212-1.242-.26-.171-.529-.52-.293-1.201.087-.15.218-.297.248-.126.024.123.076.559.358.767a1.27 1.27 0 01.12-.127c-.075-.223-.051-.534.343-.89.127-.078.285-.14.237 0zm11.765.105c.415.403.386.737.275.957.026.033.05.07.075.107.346-.17.43-.655.462-.785.041-.17.163-.017.24.136.223.766-.151 1.1-.44 1.239.097.313.152.675.152 1.061 0 1.186-.513 2.146-1.146 2.146-.634 0-1.147-.961-1.147-2.146 0-1.184.513-2.145 1.147-2.145.072 0 .142.013.21.037.07-.241-.037-.529-.064-.619-.041-.14.114-.072.236.011zM18.78 37.394c.726-.568 1.364-.222 1.455-.168l.011.007s.217.125.21.284c-.009.16-.086.277-.315.29a4.805 4.805 0 00-.486.008c.129.135.294.338.354.556.104.38.152.512.123.782a.15.15 0 01-.105.135s-.094.025-.15-.111a2.309 2.309 0 00-.938-1.071c-.187.16-.35.404-.45.778a.174.174 0 01-.079.123.083.083 0 01-.099-.017.08.08 0 01-.017-.032s-.298-.952.486-1.565zm7.861.518c-.158 0-.286.24-.286.537 0 .296.128.535.286.535.16 0 .287-.238.287-.535 0-.298-.128-.537-.287-.537zm11.462 0c-.159 0-.287.24-.287.537 0 .296.128.535.287.535.156 0 .286-.238.286-.535 0-.298-.127-.537-.286-.537zm8.416-1.627c.783.612.486 1.565.486 1.565a.08.08 0 01-.082.058.082.082 0 01-.035-.01.174.174 0 01-.079-.122c-.099-.374-.262-.618-.45-.779a2.31 2.31 0 00-.937 1.071c-.056.137-.15.111-.15.111a.15.15 0 01-.105-.135c-.029-.27.019-.4.123-.781.06-.218.225-.421.355-.556a4.818 4.818 0 00-.487-.008c-.23-.014-.306-.131-.315-.29-.008-.16.21-.285.21-.285l.011-.007c.09-.054.73-.399 1.455.168zm-3.427-1.832c.116.142.123.506 0 .598-.123.092-.238.152-.7 0-2.1-1.013-4.274-1.176-5.276-.998-1.002.179-1.229-.224-1.38-.476-.152-.254-.135-1.061.586-1.163 4.841-.6 6.77 2.039 6.77 2.039z" fill="#6500FF"></path>
						</g>
						<defs>
							<clipPath id="icon_teacher_svg__clip0">
								<path fill="#fff" transform="translate(.5)" d="M0 0h64v64H0z"></path>
							</clipPath>
						</defs>
					</svg>