<svg id="kids" viewBox="0 0 65 64" fill="none" xmlns="http://www.w3.org/2000/svg">
						<g clip-path="url(#icon_students_selected_svg__clip0)">
							<path fill-rule="evenodd" clip-rule="evenodd" d="M42.865 57.737l-20.472-2.209c-7.744 0-11.724-6.39-14.081-14.151L4.51 20.38C2.522 8.998 9.305 3.368 17.05 3.368l30.01 2.463c7.746 0 14.082 6.367 14.082 14.15l-4.196 23.604c-1.963 7.749-5.54 13.94-14.081 14.152z" fill="#D5BAFF"></path>
							<path fill-rule="evenodd" clip-rule="evenodd" d="M37.835 34.669c-1.265 1.43-3.239 2.122-5.029 1.765h-.048c-.016 0-.035-.016-.055-.018a.604.604 0 00-.666.54c-.52 4.972-5.672 8.866-11.731 8.866-6.06 0-11.094-3.741-11.713-8.704a.58.58 0 00-.089-.242.603.603 0 00-.703-.442c-1.79.357-3.764-.335-5.028-1.765-.967-1.095-1.294-2.41-.897-3.604.246-.739.664-1.229 1.277-1.497 1.305-.57 3.114.006 3.804.268.101.35.333.964.647.881.436-.113.603-1.099.569-1.592-.034-.493-.402-3.26-.531-3.809-.13-.55-.17-1.65-.076-2.142.088-.456 2.819-5.355 3.224-6.08 2.705 1.651 12.601 7.113 21.51 4.555.408.775.708 1.379.737 1.525.095.493.057 1.593-.076 2.142-.133.55-.493 3.315-.53 3.81-.037.493.133 1.478.568 1.591.314.083.541-.53.646-.88.691-.263 2.501-.84 3.805-.269.614.268 1.03.758 1.276 1.497.401 1.196.075 2.509-.891 3.604z" fill="#F4EDFF"></path>
							<path fill-rule="evenodd" clip-rule="evenodd" d="M18.118 7.113c3.018-.423 6.541.863 6.9.99.358.126 1.921.875 3.286.59a10.424 10.424 0 002.19-.682s.198-.113.35-.047c.151.066.198.246.16.455a2.92 2.92 0 01-1.446 2.248c1.049.117 3.743.267 6.214-.804.163-.075.362-.285.58-.227.277.074 0 .551 0 .551s-1.268 2.821-3.44 3.964c4.624.596 5.271-.168 5.95-.535.677-.367.703.342.602.872-.663 2.835-1.93 4.323-3.184 5.26-.014 3.519-.904 5.58-.904 5.58l-.862 2.983c1.011-.227 2.306-.341 3.422.144.936.408 1.59 1.157 1.946 2.228.537 1.616.122 3.361-1.146 4.789a6.754 6.754 0 01-4.994 2.267 6.13 6.13 0 01-.603-.03c-.923 5.357-6.308 9.327-12.837 9.327-6.491 0-11.911-3.982-12.837-9.327-.201.02-.402.031-.603.031a6.757 6.757 0 01-4.994-2.268C.608 34.045.193 32.299.73 30.683c.36-1.07 1.01-1.82 1.948-2.226 1.111-.485 2.417-.37 3.422-.143l-.861-2.983s-.98-2.247-.904-6.064c.061-3.087 2.217-5.126 3.045-5.8-.423-.268-.893-.589-1.104-.79-.377-.366.168-.151.168-.151s1.024.345 1.233.401l.029.009c-.223-.44-.557-1.15-.683-1.714-.18-.799.284-.18.284-.18s.812.675 1.37 1.005c.702-.762 4.227-4.312 9.441-4.933v-.001zm-7.328 9.98c-.405.726-3.136 5.625-3.224 6.081-.094.493-.054 1.593.076 2.142.13.55.497 3.316.53 3.81.035.492-.132 1.477-.568 1.591-.314.083-.546-.53-.647-.88-.69-.263-2.499-.84-3.804-.27-.613.27-1.03.759-1.277 1.498-.397 1.193-.07 2.509.897 3.604 1.264 1.43 3.238 2.122 5.028 1.765a.603.603 0 01.703.442.585.585 0 01.09.242c.618 4.963 5.653 8.705 11.712 8.705s11.212-3.895 11.731-8.867a.602.602 0 01.666-.54c.02.002.04.018.055.018h.048c1.79.357 3.765-.335 5.029-1.765.966-1.095 1.292-2.408.892-3.604-.246-.739-.663-1.229-1.277-1.497-1.304-.57-3.114.006-3.805.268-.105.35-.332.964-.646.881-.436-.113-.605-1.098-.568-1.592.037-.494.398-3.26.53-3.809.133-.55.17-1.65.076-2.142-.029-.146-.33-.75-.737-1.525-8.908 2.558-18.805-2.903-21.51-4.556zm3.416 18.66c.192-.165.502.072.502.072 5.61 3.92 10.13 1.244 10.13 1.244s.572-.363.582-.154c.01.21-.31.453-.31.453s-.101.08-.284.2c-.224.306-1.347 1.986-2.039 3.031a3.64 3.64 0 01-3.013 1.546h-.168c-4.031-.15-4.909-4.851-5.036-5.712a22.4 22.4 0 01-.256-.25l-.018-.017c-.033-.03-.27-.258-.09-.413zm1.46 1.52c.378 1.452 1.392 3.867 3.974 3.963a2.736 2.736 0 002.377-1.125c.232-.348.716-1.078 1.172-1.752-1.16.39-2.394.51-3.607.35a9.366 9.366 0 01-3.917-1.436zm6.723-3.056c-.17 1.477-1.457 1.732-2.268 1.562-.81-.172-1.16-.945-1.279-1.198-.12-.253 0-.301 0-.301l.006-.005c.022-.018.107-.062.27.123.193.22.854.905 2.009.484.252-.119.66-.596.3-.862-.359-.267-1.217-1.067-.28-1.178 0 0 1.413-.1 1.242 1.376zm-18.003-2.79c1.175-.937 2.2-.245 2.2-.245s.325.192.313.436c-.012.244-.127.424-.472.445a7.07 7.07 0 00-.73.011c.194.207.442.518.532.853.157.583.229.782.185 1.196a.228.228 0 01-.159.207s-.14.04-.224-.17a3.516 3.516 0 00-1.406-1.64c-.281.246-.526.619-.675 1.192a.268.268 0 01-.118.19.121.121 0 01-.175-.076s-.446-1.46.73-2.398zm29.64-.245s1.023-.692 2.198.246c1.176.938.734 2.398.734 2.398a.123.123 0 01-.123.09.122.122 0 01-.053-.015.269.269 0 01-.118-.189c-.148-.573-.394-.946-.675-1.192-.63.386-1.122.96-1.407 1.64-.069.171-.174.176-.21.173l-.013-.003a.231.231 0 01-.16-.207c-.044-.414.028-.613.185-1.196.09-.335.337-.646.532-.853a7.07 7.07 0 00-.73-.01c-.344-.022-.46-.201-.472-.446-.012-.245.313-.436.313-.436zM25.6 27.504c.846 0 1.534 1.42 1.534 3.172 0 1.753-.687 3.173-1.534 3.173-.846 0-1.532-1.421-1.532-3.173s.686-3.172 1.532-3.172zm-9.768 0c.847 0 1.532 1.423 1.532 3.176 0 1.753-.685 3.169-1.532 3.169s-1.534-1.421-1.534-3.173.687-3.172 1.534-3.172zm9.46 1.948c-.261 0-.473.315-.473.703 0 .39.212.704.473.704.26.004.474-.314.474-.704 0-.389-.213-.703-.474-.703zm-9.768 0c-.262 0-.475.315-.475.703 0 .39.214.704.475.704.262.004.474-.314.474-.704 0-.389-.213-.703-.474-.703zm2.026-6.195c.665.12.68 1.065.54 1.362-.14.298-.348.767-1.273.558-.924-.21-2.93-.018-4.865 1.169-.427.176-.533.106-.646 0-.114-.107-.11-.533 0-.698 0 0 1.779-3.087 6.244-2.39zm6.328 0c4.464-.696 6.242 2.39 6.242 2.39.114.166.113.592 0 .699-.112.106-.218.176-.645 0-1.935-1.187-3.941-1.38-4.865-1.17-.924.21-1.135-.26-1.274-.557-.14-.297-.124-1.242.541-1.361z" fill="#6500FF"></path>
							<path d="M57.764 45.437a.597.597 0 00-.022.072c-.006.07-.022.138-.03.21v.007l-.192 1.046c-1.048 4.292-5.24 7.5-10.106 7.5-4.988 0-9.188-3.236-10.16-7.668l-.028-.155c-.05-.256-.1-.514-.126-.779a.634.634 0 00-.04-.123c-.114-.6-.178-1.21-.19-1.82 0-.926.324-11.725.324-11.725l.128-2.25 1.458-.12s.24.098.392-.299c.152-.397 1.22-4.03 1.22-4.03l1.352 3.812s-.044.298.415.298c.458 0 10.155-.596 14.904.574l.44.06.109 1.955s.325 10.798.325 11.724c-.011.574-.069 1.147-.172 1.711h-.001z" fill="#F4EDFF"></path>
							<path d="M46.94 16.504s.167 0 .465.011c.214-.008.362-.01.427-.01h.037l.02.038c3.38.247 14.743 2.067 16.101 15.41.243 3.821.488 17.102.497 17.631v.017s.18 1.313-.795 2.063c-.974.749-3.6 2.929-5.699 3.208-2.1.28-2.211-.733-1.312-2.683l-1.14.13a11.98 11.98 0 01-8.121 3.154c-3.185 0-6.077-1.201-8.176-3.158l-1.106-.126c.9 1.948.789 2.96-1.312 2.683-2.1-.277-4.724-2.458-5.699-3.208-.975-.75-.8-2.063-.8-2.063s.246-13.75.497-17.648C32.18 18.61 43.542 16.79 46.92 16.543l.02-.039zm-6.548 8.8s-1.068 3.632-1.22 4.03c-.152.397-.392.298-.392.298l-1.458.121-.128 2.25s-.325 10.799-.325 11.724c.012.61.076 1.22.19 1.82.018.04.031.081.04.123.027.265.076.523.127.78l.029.155c.97 4.431 5.17 7.668 10.158 7.668 4.866 0 9.059-3.208 10.107-7.5l.192-1.046v-.009c.008-.07.024-.138.03-.209a.598.598 0 01.022-.071 10.62 10.62 0 00.172-1.711c0-.926-.324-11.724-.324-11.724l-.11-1.955-.44-.06c-4.748-1.17-14.446-.574-14.904-.574-.458 0-.414-.298-.414-.298l-1.352-3.812zm.738 18.134c.19-.164.497.07.497.07 5.55 3.878 10.021 1.231 10.021 1.231s.565-.355.573-.148c.009.206-.307.446-.307.446s-.1.08-.281.2c-.222.301-1.333 1.964-2.017 2.997a3.599 3.599 0 01-2.978 1.527h-.165c-3.989-.149-4.855-4.799-4.982-5.65-.173-.162-.267-.262-.267-.262s-.283-.247-.094-.411zm1.444 1.503c.376 1.436 1.38 3.825 3.932 3.92a2.71 2.71 0 002.353-1.113c.227-.343.706-1.066 1.154-1.732a7.924 7.924 0 01-3.564.345 9.275 9.275 0 01-3.875-1.42zm6.652-3.023c-.17 1.461-1.442 1.714-2.244 1.547-.802-.167-1.147-.934-1.265-1.185-.118-.25 0-.298 0-.298l.006-.005c.022-.018.105-.06.267.122.19.217.845.894 1.986.48.25-.119.655-.59.298-.854-.356-.264-1.204-1.058-.277-1.168 0 0 1.397-.1 1.229 1.361zM42.394 34.6c-.035.108-.201.511-.013.769a.792.792 0 01.357-.088c.839 0 1.517 1.404 1.517 3.138s-.68 3.138-1.517 3.138c-.838 0-1.516-1.406-1.516-3.139 0-.847.162-1.617.426-2.181-.255-.11-.717-.43-.445-1.27.078-.145.199-.29.226-.122.028.148.094.766.55.848-.142-.198-.31-.6.199-1.093.116-.076.26-.135.216 0zm10.518.09c-.038-.136.104-.07.216.011.488.508.3.903.15 1.094.459-.06.555-.675.59-.821.038-.165.149-.016.22.133.24.889-.289 1.18-.54 1.266.229.549.366 1.264.366 2.046 0 1.734-.677 3.138-1.516 3.138s-1.517-1.406-1.517-3.139c0-1.733.678-3.137 1.517-3.137.174 0 .34.06.495.17.194-.246.049-.652.019-.76zm-10.479 2.515c-.258 0-.468.31-.468.695 0 .385.21.695.468.695.26 0 .47-.31.47-.695 0-.385-.212-.695-.47-.695zm9.667 0c-.26 0-.47.31-.47.695 0 .385.21.695.47.695.253 0 .468-.31.468-.695 0-.385-.209-.695-.468-.695zm-7.944-6.26c.658.099.672.886.535 1.132-.139.247-.346.64-1.26.465-.915-.174-2.899-.015-4.814.973-.42.148-.526.09-.637 0-.112-.089-.109-.444 0-.583 0 0 1.76-2.572 6.176-1.988zm6.736 0c4.417-.585 6.176 1.987 6.176 1.987.105.14.112.493 0 .583-.112.09-.217.148-.639 0-1.915-.988-3.899-1.147-4.813-.973-.914.174-1.12-.218-1.259-.465-.138-.246-.123-1.033.535-1.133z" fill="#6500FF"></path>
						</g>
						<defs>
							<clipPath id="icon_students_selected_svg__clip0">
								<path fill="#fff" transform="translate(.5)" d="M0 0h64v64H0z"></path>
							</clipPath>
						</defs>
					</svg>