<svg id="peter" viewBox="0 0 72 72" fill="none" xmlns="http://www.w3.org/2000/svg">
							<g clip-path="url(#5_svg__clip0)">
								<path d="M48.067 70.164l-22.122-2.373c-8.369 0-12.668-6.874-15.216-15.219L6.62 29.998c-2.145-12.24 5.185-18.292 13.551-18.292l32.429 2.647c8.37 0 15.216 6.848 15.216 15.216L63.283 54.95c-2.122 8.328-5.986 14.986-15.216 15.214z" fill="#FDC7AF"></path>
								<path d="M52.233 38.488c.008.312.022.632.037.946.055 1.292.112 2.63-.126 3.434-.006.026-.627 2.236-2.887 4.606-.244.258-.513.546-.795.854-2.377 2.584-6.356 6.908-11.61 6.908-4.784 0-8.347-3.68-10.26-5.658-.277-.288-.519-.537-.728-.74-2.025-1.954-4.19-4.815-4.19-6.98 0-1.037 0-2.164-.005-3.392l.115-1.314-.23.88s-5.244 0-5.244-4.621c0-4.622 5.016-4.182 5.016-4.182s-.23-3.081-.23-5.062c0-1.98.912-12.325 15.733-12.325 14.818 0 16.187 9.684 16.187 12.325 0 2.64-.229 5.062-.229 5.062s4.787-.22 4.787 4.181c0 4.402-5.245 4.622-5.245 4.622l-.229-.88.133 1.336z" fill="#FFF0E9"></path>
								<path d="M31.292 33.657c0 1.164-.478 2.108-1.066 2.108-.587 0-1.065-.944-1.065-2.108 0-1.164.478-2.106 1.065-2.106.588 0 1.066.942 1.066 2.106z" fill="#DA6038"></path>
								<path d="M30.613 33.175c0 .317-.13.574-.29.574-.16 0-.29-.257-.29-.574 0-.317.13-.575.29-.575.16 0 .29.258.29.575z" fill="#fff"></path>
								<path d="M44.796 33.536c0 1.164-.478 2.108-1.065 2.108-.59 0-1.066-.944-1.066-2.108 0-1.165.478-2.107 1.066-2.107.587-.002 1.065.942 1.065 2.107z" fill="#DA6038"></path>
								<path d="M44.118 33.054c0 .317-.13.574-.29.574-.161 0-.29-.257-.29-.574 0-.317.129-.575.29-.575.158 0 .29.258.29.575z" fill="#fff"></path>
								<path d="M39.543 38.153a1.146 1.146 0 00-.262-.293.29.29 0 00-.407.06c-.095.13-.07.31.055.41.002.001.075.06.143.17.068.11.132.265.132.478a.855.855 0 01-.088.341 1.42 1.42 0 01-.502.57c-.242.161-.56.271-.968.271-.053 0-.108-.002-.166-.006-.647-.047-1.087-.185-1.388-.366a1.536 1.536 0 01-.366-.297 1.611 1.611 0 01-.235-.352.29.29 0 00-.39-.132.295.295 0 00-.13.394c.084.167.19.332.326.484.205.229.478.427.83.572.352.146.781.242 1.314.282.07.005.139.007.207.007.343 0 .651-.064.917-.174.401-.163.703-.427.907-.711a1.82 1.82 0 00.233-.442c.053-.15.082-.298.082-.445a1.507 1.507 0 00-.244-.821zM25.774 27.028s-.22-.88.66-.88 6.603-.66 6.603-.66 1.1-.33 1.1.22v1.1s0 .66-.44.66-7.263.44-7.263.44-.66 0-.66-.44v-.44zM48.443 27.028s.22-.88-.66-.88-6.603-.66-6.603-.66-1.1-.33-1.1.22v1.1s0 .66.44.66 7.263.44 7.263.44.66 0 .66-.44v-.44z" fill="#DA6038"></path>
								<path d="M23.243 55.419l3.302-1.54 20.468-.22 4.841 1.98-1.54 11.004-5.674 4.646H28.745l-4.181-4.866-1.32-11.004z" fill="#FFD7C5"></path>
								<path fill-rule="evenodd" clip-rule="evenodd" d="M47.221 53.15l4.842 1.98c.231.095.37.337.337.581l-.04.289h-1.114l.003-.016-4.343-1.776-20.237.218-2.832 1.323.03.251h-1.108l-.062-.517a.553.553 0 01.315-.564l3.3-1.54c.071-.031.15-.051.228-.051l20.468-.22c.072 0 .145.013.213.042z" fill="#DA6038"></path>
								<path d="M2 71.319s.822-4.032 2.21-6.31c.663-1.088 1.827-2.522 3.535-3.7 2.21-1.522 13.922-5.874 15.69-6.309 0 0 .663 11.75 6.85 16.728 2.532.243 9.15.46 12.817.01 2.651-2.378 5.48-6.97 6.629-16.738 0 0 9.723 2.828 14.805 5.657 5.083 2.829 5.746 6.745 6.188 8.486.442 1.74.22 2.61.22 2.61L2 71.32z" fill="#fff"></path>
								<path d="M71.536 68.71c-.108-.425-.233-1.021-.444-1.71a11.753 11.753 0 00-1.75-3.557c-.924-1.27-2.27-2.555-4.232-3.664-1.297-.733-2.868-1.455-4.501-2.13-4.895-2.028-10.35-3.639-10.362-3.64a.548.548 0 00-.702.464c-.568 4.899-1.547 8.477-2.698 11.112-1.054 2.412-2.245 4.032-3.407 5.17l-12.776-.082c-1.27-1.15-2.298-2.63-3.116-4.234-1.358-2.661-2.14-5.656-2.573-7.978a38.537 38.537 0 01-.427-2.855c-.037-.35-.064-.627-.08-.816l-.015-.214c-.002-.024-.002-.042-.004-.053v-.015a.555.555 0 00-.222-.412.553.553 0 00-.46-.09c-.251.064-.63.183-1.13.35-1.738.585-4.894 1.76-7.867 2.962-1.488.601-2.928 1.209-4.123 1.752-.598.273-1.135.528-1.589.764-.453.235-.82.444-1.1.638-1.776 1.246-2.982 2.75-3.678 3.909-.37.616-.689 1.33-.968 2.055-.834 2.177-1.297 4.486-1.3 4.503a.547.547 0 00.534.659l27.698.178h.283c.188 0 .299-.011.407 0 1.599 0 4.23-.002 7.066 0 2.08 0 2.984.105 5.297.105h.557l.017-.015 27.34.176a.547.547 0 00.537-.416c.01-.042.07-.308.07-.794.009-.493-.053-1.2-.282-2.122zm-23.679-2.683c1.151-2.636 2.115-6.123 2.703-10.773.988.304 3.048.955 5.403 1.796 1.46.521 3.03 1.114 4.527 1.743 1.497.627 2.923 1.292 4.078 1.946 2.445 1.384 3.79 3.002 4.602 4.487.405.744.674 1.457.87 2.095.196.639.314 1.2.429 1.655.209.839.26 1.453.26 1.847 0 .037 0 .073-.003.106l-25.78-.166c1.019-1.166 2.022-2.698 2.911-4.736zM3.701 68.75c.185-.63.41-1.32.667-1.986.258-.662.548-1.3.86-1.817.624-1.041 1.742-2.439 3.366-3.575.233-.165.643-.396 1.164-.658.914-.46 2.175-1.023 3.572-1.61 2.098-.883 4.5-1.823 6.519-2.578 1.01-.376 1.924-.706 2.654-.962.348-.12.654-.222.907-.306a39.521 39.521 0 001.06 5.989c.476 1.829 1.148 3.82 2.1 5.691.685 1.343 1.517 2.62 2.53 3.724l-25.86-.165c.103-.436.257-1.054.461-1.747z" fill="#DA6038"></path>
								<path d="M25.664 52.117v3.742s2.421 3.741 7.923 7.703c0 0 1.98-6.162 2.641-7.043l-10.564-4.402zM37.769 56.52s1.76 3.3 2.64 6.822c0 0 6.603-5.062 7.924-7.703v-3.741l-10.564 4.621z" fill="#FFD7C5"></path>
								<path d="M48.634 51.438a.55.55 0 00-.522-.044l-10.564 4.622a.55.55 0 00-.264.763l.004.009c.036.066.289.55.637 1.305a2.492 2.492 0 00-.815-.14c-.378 0-.735.085-1.056.235l.097-.242c.116-.282.222-.53.314-.724.046-.097.088-.179.124-.242.035-.064.066-.11.079-.128a.553.553 0 00-.229-.838l-10.564-4.402a.548.548 0 00-.762.508v3.741c0 .108.031.21.088.3.018.026 1.037 1.593 3.227 3.77l-.233 3.376a.549.549 0 00.721.561c.885-.295 1.84-.665 2.767-1.05.497.394 1.021.793 1.58 1.195a.548.548 0 00.845-.277l.086-.264c.119-.363.35-1.07.63-1.893a2.535 2.535 0 001.732 1.378v8.535c0 .304.14.008.444.008s.656.296.656-.008v-8.535a2.529 2.529 0 001.686-1.29c.196.588.378 1.2.53 1.814a.54.54 0 00.352.385c.177.062.37.03.518-.084.002-.002.504-.387 1.256-.997.33.159.667.313 1.006.458.867.37 1.748.685 2.57.86a.548.548 0 00.66-.6l-.028-.247c-.064-.552-.22-1.947-.363-3.299l-.05-.482c.396-.376.78-.76 1.14-1.135.411-.432.788-.859 1.109-1.268.321-.41.587-.803.779-1.182a.526.526 0 00.057-.246v-3.742a.535.535 0 00-.244-.464zM27.97 57.855a25.281 25.281 0 01-1.404-1.683c-.152-.2-.264-.357-.337-.46l-.015-.022v-2.747l9.237 3.85c-.062.131-.126.275-.194.43-.187.439-.394.974-.605 1.544-2.566-1.145-5.247-2.311-5.247-2.311a.55.55 0 00-.77.468l-.106 1.537a38.301 38.301 0 01-.559-.606zm5.542 4.171l-.214.64c-.154-.116-.308-.23-.455-.345.229-.1.45-.196.669-.295zm7.21.37a11.87 11.87 0 00-.09-.306c.092.05.189.099.286.15l-.196.156zm4.938-4.33a34.726 34.726 0 01-.057-.697 7.349 7.349 0 01-.02-.41.551.551 0 00-.78-.499c-.003.002-1.438.663-3.067 1.464-.73.358-1.496.746-2.198 1.115a35.253 35.253 0 00-1.015-2.25l9.26-4.05v2.76c-.142.259-.346.56-.604.888-.405.52-.935 1.096-1.519 1.68z" fill="#DA6038"></path>
								<path d="M50.032 21.411a59.36 59.36 0 01-4.996-.95 71.746 71.746 0 01-4.89-1.312c-.81-.238-1.607-.515-2.409-.78l-1.19-.43-.594-.218-.588-.234c-1.576-.598-3.108-1.314-4.624-2.049a.209.209 0 01.176-.378l.007.002c1.527.678 3.065 1.331 4.646 1.873l.59.211.596.196 1.19.385c.802.233 1.598.482 2.408.691 1.611.434 3.238.814 4.875 1.131 1.633.32 3.293.59 4.924.766l.015.002a.551.551 0 01-.119 1.096l-.017-.002zM47.56 17.714a40.515 40.515 0 01-3.385-.399 47.117 47.117 0 01-3.323-.645c-.55-.12-1.096-.268-1.642-.407-.541-.158-1.087-.297-1.622-.475-1.078-.326-2.132-.729-3.178-1.149a.21.21 0 01-.116-.27.206.206 0 01.26-.12l.006.003c1.052.36 2.108.706 3.189.973.535.15 1.08.26 1.62.387.543.108 1.087.227 1.635.317a46.11 46.11 0 003.295.466c1.098.117 2.216.2 3.297.223h.015a.55.55 0 01-.022 1.1l-.029-.004z" fill="#fff"></path>
								<path d="M57.407 30.765a4.071 4.071 0 00-1.2-1.18c-.667-.433-1.382-.656-1.985-.774a6.579 6.579 0 00-.442-.073c.444-2.11.935-3.174.935-6.552C54.715 12.282 45.031 7 37.768 7c-7.262 0-12.104 5.942-12.104 5.942-5.503-.22-6.163 7.923-6.163 8.364 0 .44-.44 4.181.44 6.822.062.185.12.383.172.592a7.337 7.337 0 00-.438.066c-.797.148-1.763.465-2.557 1.187-.396.36-.742.823-.982 1.397-.242.572-.376 1.252-.376 2.043-.002 1.258.365 2.26.93 3.004.423.559.947.97 1.482 1.274.805.456 1.64.673 2.278.783.13.023.25.04.363.053-.044 2.316-.11 6.81 2.652 10.952 5.451 8.176 13.645 7.483 13.645 7.483 4.182 0 9.464-1.76 12.105-5.723 2.582-3.87 3.807-5.328 3.863-12.736a8.246 8.246 0 002.108-.63c.71-.327 1.446-.816 2.007-1.546.564-.729.936-1.706.933-2.914.003-1.092-.275-1.972-.72-2.648zM37.989 49.477h-1.981s-.22 1.32-2.421 1.32c-2.641 0-2.641-3.301-2.641-3.961 0-.66-.22-3.522 1.32-3.522s3.742.44 5.062.44c1.32 0 3.962-.22 4.622-.22.66 0 1.1 1.54 1.1 3.522 0 1.98-.66 4.181-2.64 4.181-1.981 0-2.421-1.76-2.421-1.76zm4.511-8.914c-1.87 0-3.741 1.1-5.282 1.1-1.54 0-3.301-1.1-5.722-1.1-1.87 0-2.09 1.43-2.09 1.43s-4.623-.44-5.943-4.621c0 0-.088-2.914-.154-5.832h.508c.013.174.033.38.062.618.132 1.034.444 2.586 1.285 3.937.42.674.982 1.301 1.721 1.757.74.455 1.655.733 2.738.73 1.435.003 2.628-.457 3.557-1.16.697-.525 1.254-1.18 1.696-1.872.665-1.04 1.079-2.164 1.332-3.115a11.863 11.863 0 00.308-1.556h1.38c.029.458.093 1.004.211 1.598.262 1.281.775 2.778 1.79 3.992a5.747 5.747 0 001.923 1.517c.782.379 1.706.596 2.769.596.722 0 1.369-.12 1.939-.339 1.001-.38 1.752-1.054 2.297-1.815.82-1.147 1.204-2.496 1.4-3.563.097-.53.145-.993.172-1.328h.51c-.057 2.36-.167 4.767-.376 5.392 0 0-3.741 5.503-5.502 5.503-.658.002-.438-1.869-2.529-1.869zM24.893 30.88h10.514l-.002.02a11.348 11.348 0 01-.436 1.853c-.35 1.083-.925 2.29-1.785 3.196a4.958 4.958 0 01-1.514 1.105 4.81 4.81 0 01-2.045.429 4.305 4.305 0 01-1.547-.266c-.768-.293-1.343-.802-1.794-1.429-.675-.937-1.036-2.148-1.212-3.12a11.17 11.17 0 01-.177-1.563c-.002-.04-.002-.07-.002-.09v-.135zm14.108 0h10.322v.113c0 .035-.005.48-.09 1.12-.126.96-.443 2.355-1.15 3.453-.351.55-.796 1.026-1.357 1.364-.563.34-1.248.55-2.133.553-1.221-.002-2.143-.324-2.879-.828-.55-.378-.999-.867-1.36-1.417-.543-.825-.891-1.79-1.098-2.683a10.516 10.516 0 01-.255-1.675zm-.022-1.1H23.274c-.02-1.05-.031-2.02-.031-2.751 0-3.081 2.42-5.282 2.42-5.282s.44-.22.44-.44c0-.44-.66-.88-.66-1.981 0-1.1.88-3.302 2.421-3.302 0 0 11.005 8.364 22.45 8.364 0 0 .66 0 .66.44v1.54s0 1.52-.03 3.412H38.98zm-19.88 7.146c-.586-.266-1.143-.65-1.55-1.202-.407-.552-.687-1.278-.689-2.313.002-.889.198-1.525.491-2.007.22-.36.497-.64.81-.86.469-.333 1.025-.53 1.54-.64.227-.05.443-.08.641-.1.077.436.14.894.194 1.365-.685.004-2.364.546-2.413 2.253a.908.908 0 00.436.832s-.083-.473 0-.882c.077-.372.256-.588.533-.588.58 0 .58 1.422.484 1.91 0 0 .484-.099.484-1.373 0-.587-.193-.98-.193-.98s.242-.147.629-.147c.044 0 .093.005.14.011.164 1.963.181 3.973.184 5.21a6.403 6.403 0 01-1.721-.489zm37.22-1.272a3.926 3.926 0 01-1.153.988c-.651.38-1.378.597-1.934.711l-.152.029c.01-2.164.088-3.823.2-5.148a1.09 1.09 0 01.27-.04c.388 0 .63.148.63.148s-.194.392-.194.98c0 1.273.485 1.372.485 1.372-.097-.49-.097-1.91.484-1.91.277 0 .458.216.532.588.084.41 0 .882 0 .882s.454-.237.436-.832c-.048-1.714-1.745-2.253-2.423-2.253a.97.97 0 00-.114.006c.057-.5.12-.944.187-1.349.086.011.174.022.266.04.651.108 1.47.363 2.089.889.312.264.579.59.774 1.017.196.427.32.962.32 1.644.002.986-.282 1.688-.703 2.238z" fill="#DA6038"></path>
								<path d="M40.817 44.494l-.005.002c-.052.037-.6.412-1.331.768a8.513 8.513 0 01-1.186.482c-.412.128-.826.21-1.189.207-.376 0-.838-.086-1.307-.222-.704-.205-1.43-.522-1.974-.786a17.483 17.483 0 01-.885-.464l-.015-.01a.439.439 0 10-.443.76c.01.007.68.398 1.587.792.453.198.964.396 1.483.548.522.152 1.05.258 1.554.258s1.013-.108 1.495-.262a10.301 10.301 0 001.892-.85c.498-.279.817-.503.826-.51a.44.44 0 00.108-.614.443.443 0 00-.61-.1zM38.38 48.702a6.606 6.606 0 01-.66 0 6.532 6.532 0 01-.649-.06c-.429-.063-.87-.162-1.274-.395a.224.224 0 01.187-.405l.013.004c.34.121.727.148 1.112.134a6.46 6.46 0 001.146-.147.442.442 0 11.205.86c-.024.005-.053.007-.08.01z" fill="#DA6038"></path>
							</g>
							<defs>
								<clipPath id="5_svg__clip0">
									<path fill="#fff" d="M0 0h72v72H0z"></path>
								</clipPath>
							</defs>
						</svg>