<svg id="quotes" width="76" height="68" fill="none" xmlns="http://www.w3.org/2000/svg">
			<path d="M48.859 67.857l-25.84-2.76c-9.78 0-14.803-7.98-17.777-17.664l-4.8-26.199C-2.066 7.024 6.491 0 16.271 0l37.88 3.073c9.78 0 17.777 7.954 17.777 17.663l-5.294 29.458c-2.473 9.676-6.993 17.401-17.776 17.663z" fill="#E8D9FF"></path>
			<path d="M42.363 40.488c0-3.167-.99-5.88-2.972-8.143-1.981-2.412-4.496-3.996-7.544-4.75.305-1.96 1.066-3.996 2.286-6.107 1.371-2.262 2.82-4.071 4.344-5.428l-4.573-3.846C21.254 20.508 14.93 29.933 14.93 40.488c0 3.92 1.295 7.238 3.886 9.953 2.744 2.563 6.02 3.845 9.83 3.845 3.811 0 7.012-1.357 9.603-4.072 2.744-2.714 4.115-5.956 4.115-9.726zm33.637 0c0-3.167-.99-5.88-2.972-8.143-1.981-2.412-4.496-3.996-7.544-4.75.457-2.11 1.295-4.222 2.514-6.333 1.372-2.111 2.82-3.845 4.344-5.203l-4.8-3.845c-12.804 8.595-19.205 18.02-19.205 28.274 0 3.77 1.371 7.012 4.115 9.726 2.743 2.715 6.02 4.072 9.83 4.072 3.659 0 6.86-1.357 9.603-4.072C74.628 47.5 76 44.258 76 40.488z" fill="#6500FF"></path>
		</svg>