<svg id="rebecca" viewBox="0 0 72 72" fill="none" xmlns="http://www.w3.org/2000/svg">
							<g clip-path="url(#1_svg__clip0)">
								<path d="M47.067 70.164l-22.122-2.373c-8.369 0-12.668-6.874-15.216-15.219L5.62 29.998c-2.145-12.24 5.185-18.292 13.551-18.292l32.429 2.647c8.37 0 15.216 6.848 15.216 15.216L62.283 54.95c-2.122 8.328-5.986 14.986-15.216 15.214z" fill="#FFEB9E"></path>
								<path d="M63.923 31.224c-.412-1.652-2.06-3.51-2.06-3.51.619-.413 1.03-1.444 1.03-1.444-1.03-4.748-3.295-6.193-3.295-6.193 2.059-1.032 2.059-4.543 2.059-4.543-.823-1.445-3.089-2.477-3.089-2.477 1.03-1.239 1.03-3.716 1.03-3.716-2.677-1.859-9.475-2.684-9.475-2.684 1.03-2.27.207-3.922.207-3.922-6.795-2.89-11.863-.462-11.863-.462C37.027 0 35.79 0 35.79 0c-5.973 2.477-7.413 6.193-7.413 6.193s-2.144-3.542-11.205.173c0 0-1.648 1.86-1.237 3.716 0 0-3.295 1.031-6.179 5.781 0 0 .411 1.652 2.06 2.684 0 0-2.06 2.684-3.708 7.227 0 0 .412 2.27 2.678 3.097 0 0-1.441 2.89-1.648 7.02 0 0 .618 2.064 2.47 2.27 0 0-1.03 3.51 0 6.813 0 0 1.237 1.446 2.678 1.446 0 0-.619 2.27-.412 3.715 0 0 .823.825 2.884.414.618 1.652 2.47 2.684 2.47 2.684 1.855 0 3.503-1.86 3.503-1.86.618 2.478 2.884 3.098 2.884 3.098 1.44-.206 3.502-1.858 3.502-1.858 2.059 1.445-.125 1.892-.125 1.892l7.003-2.684 10.833 3.767c2.677 1.238 3.913.413 3.913.413.412-.62.412-2.89.412-2.89 2.266.413 3.502-1.239 3.502-1.239.207-.825-.207-1.445-.207-1.445 1.648 0 2.677-.414 2.677-.414 1.03-2.684 1.03-4.954 1.03-4.954 2.266.825 4.325-.825 4.325-.825 0-1.859-.823-3.922-.823-3.922 1.03-.207 1.855-1.446 1.855-1.446-.207-2.063-1.441-4.336-1.441-4.336 1.234-.416 1.852-3.306 1.852-3.306z" fill="#EBA42C"></path>
								<path d="M30.236 39.382s.667 6.226-.445 8.005c-1.901 3.04-8.763 6.782-8.763 6.782s4.316 6.671 14.99 11.118C46.69 60.84 51.005 54.17 51.005 54.17s-6.862-3.742-8.763-6.782c-1.112-1.779-.445-8.005-.445-8.005H30.236z" fill="#FFF7D8"></path>
								<path d="M51.438 54.06a.44.44 0 00-.218-.28l-.018-.011a51.682 51.682 0 01-3.798-2.342c-.943-.642-1.928-1.367-2.784-2.105-.856-.739-1.58-1.497-1.999-2.168a2.546 2.546 0 01-.262-.647c-.116-.412-.196-.934-.245-1.506a21.315 21.315 0 01-.069-1.792c0-.972.05-1.919.098-2.622.024-.35.049-.642.067-.842l.022-.234c.004-.053.009-.08.009-.08a.445.445 0 00-.443-.491H30.236a.445.445 0 00-.443.491s.002.027.01.08c.037.374.188 1.997.186 3.698 0 .81-.036 1.637-.13 2.346a7.17 7.17 0 01-.184.952 2.546 2.546 0 01-.262.647c-.434.693-1.192 1.478-2.084 2.239-1.338 1.143-2.973 2.246-4.267 3.057a50.524 50.524 0 01-2.081 1.239l-.125.069-.042.022a.445.445 0 00-.16.631c.031.05 4.41 6.794 15.192 11.287a.436.436 0 00.342 0C46.97 61.205 51.348 54.46 51.38 54.412a.455.455 0 00.058-.352zM36.017 64.802c-5.192-2.188-8.841-4.9-11.196-7.069A27.709 27.709 0 0122.213 55a18.066 18.066 0 01-.536-.683c.634-.363 1.89-1.1 3.269-2.028.987-.665 2.034-1.425 2.964-2.22.93-.795 1.74-1.618 2.259-2.445.158-.256.273-.552.365-.878.138-.494.22-1.061.273-1.666.053-.605.071-1.245.071-1.87 0-1.38-.095-2.695-.155-3.38h10.586a40.49 40.49 0 00-.155 3.38c0 .834.035 1.694.135 2.461.051.385.118.748.21 1.075.09.329.206.624.364.878.518.825 1.33 1.65 2.259 2.446 1.394 1.192 3.055 2.308 4.374 3.135.79.494 1.452.88 1.859 1.114-1.08 1.454-5.45 6.738-14.338 10.484z" fill="#EBA42C"></path>
								<path d="M51.006 54.169s-1.067-.582-2.477-1.472c-9.692 10.631-21.922 6.85-25.062.022a49.633 49.633 0 01-2.44 1.45C9.673 58.394 8.557 71.444 8.557 71.444h54.7s-.894-13.05-12.25-17.275z" fill="#fff"></path>
								<path d="M61.9 64.168c-.84-1.94-2.048-4.022-3.78-5.897a17.733 17.733 0 00-6.918-4.624.548.548 0 00-.267-.03 53.235 53.235 0 01-2.166-1.298.444.444 0 00-.567.076c-4.271 4.68-8.992 6.486-13.179 6.488-2.58 0-4.959-.69-6.895-1.83-1.94-1.14-3.433-2.73-4.254-4.52a.448.448 0 00-.643-.189c-.689.435-1.296.795-1.727 1.044-.16.094-.296.17-.403.232a.548.548 0 00-.267.029 18.038 18.038 0 00-6.95 4.623c-2.631 2.81-4.092 6.083-4.906 8.654-.811 2.57-.974 4.442-.976 4.471a.557.557 0 00.554.603h54.7a.553.553 0 00.556-.594c-.004-.04-.233-3.355-1.912-7.238zM23.287 53.355c.94 1.788 2.47 3.338 4.387 4.465 2.077 1.22 4.61 1.953 7.347 1.953 4.36.002 9.234-1.864 13.582-6.507.682.425 1.263.765 1.654.992-.456.611-1.483 1.888-3.177 3.444-2.342 2.146-5.95 4.817-11.065 6.98-5.154-2.181-8.781-4.874-11.12-7.03a27.198 27.198 0 01-2.598-2.725 17.992 17.992 0 01-.524-.67c.364-.208.891-.517 1.514-.902zM9.185 70.888a24.705 24.705 0 011.934-6.444c.839-1.83 2.015-3.769 3.654-5.497a16.866 16.866 0 016.053-4.102c.457.623 1.527 1.974 3.32 3.624 2.452 2.262 6.256 5.081 11.66 7.332a.547.547 0 00.427 0c5.403-2.25 9.206-5.07 11.66-7.332 1.79-1.65 2.862-3 3.32-3.624a16.596 16.596 0 016.093 4.183c2.444 2.639 3.8 5.76 4.538 8.222.37 1.232.585 2.295.707 3.049.038.227.065.42.087.587H9.185v.002zM43.34 40.836c-1.424 1.459-2.922 2.437-4.214 3.047-.645.304-1.239.518-1.741.653-.5.136-.914.191-1.174.191-.26 0-.678-.055-1.185-.19-.892-.239-2.068-.712-3.323-1.502-1.883-1.185-3.944-3.073-5.538-5.937-1.332-2.392-2.337-5.474-2.633-9.405.162-10.354 6.986-13.716 6.986-13.716s3.107-3.446 10.124 2.446c6.182 5.19 5.284 8.981 7.865 12.806-.703 5.535-2.84 9.217-5.167 11.607z" fill="#EBA42C"></path>
								<path d="M43.093 39.87c-1.377 1.458-2.824 2.436-4.074 3.045-.625.305-1.198.519-1.683.654-.485.136-.883.191-1.134.191-.252 0-.656-.055-1.148-.19-.86-.239-1.999-.712-3.21-1.502-1.82-1.185-3.812-3.073-5.353-5.937-1.287-2.392-2.259-5.474-2.546-9.405.156-10.354 6.753-13.716 6.753-13.716s3.002-3.446 9.784 2.446c5.973 5.19 5.106 8.981 7.6 12.806-.673 5.535-2.739 9.217-4.99 11.607z" fill="#FFF7D8"></path>
								<path d="M31.381 25.044a.609.609 0 00-.089.01c-.142-.481.158-.784.158-.784-.778.112-.667 1.112-.667 1.112-.667 0-.778-.556-.778-.556-.143.716.173 1.154.418 1.377-.076.291-.12.62-.12.971 0 1.177.482 2.13 1.076 2.13.596 0 1.076-.953 1.076-2.13 0-1.176-.478-2.13-1.074-2.13z" fill="#EBA42C"></path>
								<path d="M31.773 26.688c0 .32-.132.58-.294.58-.162 0-.293-.26-.293-.58 0-.32.13-.58.293-.58.162 0 .294.26.294.58z" fill="#fff"></path>
								<path d="M42.535 24.829s-.112.555-.779.555c0 0 .111-1-.667-1.111 0 0 .3.302.158.782-.027-.004-.053-.008-.08-.008-.594 0-1.076.953-1.076 2.13 0 1.176.482 2.13 1.076 2.13.596 0 1.076-.954 1.076-2.13 0-.352-.044-.685-.12-.976.243-.227.552-.663.412-1.372z" fill="#EBA42C"></path>
								<path d="M41.556 26.688c0 .32-.13.58-.293.58-.163 0-.294-.26-.294-.58 0-.32.131-.58.294-.58.162 0 .293.26.293.58z" fill="#fff"></path>
								<path d="M37.823 30.474c.05.052.063.072.09.105a1.073 1.073 0 01.148.282c.047.13.074.265.083.396a1.184 1.184 0 01-.049.42 1.653 1.653 0 01-.691.91c-.215.138-.45.222-.684.271a2.461 2.461 0 01-.698.047 1.844 1.844 0 01-.7-.18 1.537 1.537 0 01-.74-.79 1.31 1.31 0 01-.099-.353.203.203 0 01.387-.111l.014.028c.062.138.164.3.28.412.118.118.256.198.404.253.152.054.314.082.488.08.17.002.355-.013.518-.053.33-.076.6-.262.756-.516a.7.7 0 00.084-.585.525.525 0 00-.035-.089l-.02-.038-.007-.015a.331.331 0 010-.471.33.33 0 01.471-.003zM30.58 20.911c1.455-.205 2.553.064 2.613.48.058.416.118.832-.062 1.07-.178.238-1.098-.27-2.137-.122-1.454.204-1.812.68-2.199.947-.387.267-1.072 1.423-1.488 1.483-.415.058-.504-.565-.324-.803.178-.24 1.31-2.733 3.598-3.055zM42.017 20.91c-1.457-.204-2.553.065-2.613.481-.058.416-.118.832.062 1.07.178.238 1.099-.27 2.137-.123 1.454.205 1.812.68 2.2.948.386.266 1.07 1.423 1.487 1.483.416.06.504-.565.324-.803-.178-.24-1.31-2.733-3.597-3.055z" fill="#EBA42C"></path>
								<path d="M31.014 33.465s1.334 1.112 2.224 2.89c.8 1.604 1.779 2.447 2.89 2.447 1.335 0 2.691-1.824 3.114-2.669.444-.889 1.111-2 1.778-2.446-1.556.668-2 2.002-4.892 2.002-2.89 0-3.446-1.223-5.114-2.224z" fill="#fff"></path>
								<path d="M41.314 33.53a.333.333 0 00-.425-.147c-.422.18-.764.404-1.076.63-.471.337-.876.668-1.414.917-.538.247-1.22.425-2.268.427-.7 0-1.245-.073-1.697-.195-.678-.183-1.15-.47-1.632-.82-.48-.35-.96-.768-1.614-1.161a.334.334 0 00-.385.542l.002.002c.06.05 1.31 1.125 2.137 2.782.416.83.88 1.476 1.412 1.928.53.451 1.137.703 1.777.7.411 0 .8-.138 1.156-.342.534-.307 1.008-.767 1.394-1.23a7.14 7.14 0 00.861-1.278c.218-.436.49-.923.783-1.35.291-.427.611-.79.882-.967a.342.342 0 00.107-.438zm-3.524 4.02a4.075 4.075 0 01-.838.665c-.287.164-.567.255-.825.253-.47-.002-.908-.171-1.346-.542-.436-.37-.86-.945-1.247-1.72a9.51 9.51 0 00-.54-.935 4.9 4.9 0 00.549.284c.654.29 1.465.47 2.584.467.747 0 1.351-.087 1.856-.231a5.033 5.033 0 001.434-.678c-.175.295-.337.596-.478.874-.186.38-.62 1.034-1.15 1.563z" fill="#EBA42C"></path>
							</g>
							<defs>
								<clipPath id="1_svg__clip0">
									<path fill="#fff" d="M0 0h72v72H0z"></path>
								</clipPath>
							</defs>
						</svg>