<svg id="step-02" width="56" height="56" fill="none" xmlns="http://www.w3.org/2000/svg"><path d="M36.001 53l-19.04-2.034c-7.206 0-10.907-5.88-13.098-13.015L.325 18.646C-1.522 8.176 4.783 3 11.99 3l27.912 2.265C47.108 5.265 53 11.125 53 18.279l-3.9 21.706C47.276 47.115 43.945 52.807 36 53z" fill="#E8D9FF"></path><path d="M13 25.96c0-4.663.782-8.302 2.345-10.917 1.59-2.641 4.313-3.962 8.167-3.962 3.855 0 6.564 1.32 8.127 3.962 1.59 2.615 2.385 6.254 2.385 10.917 0 4.716-.795 8.41-2.385 11.078C30.076 39.679 27.367 41 23.512 41c-3.854 0-6.577-1.32-8.167-3.962C13.782 34.369 13 30.677 13 25.96zm16.496 0c0-2.184-.148-4.03-.445-5.54-.27-1.509-.835-2.735-1.698-3.679-.862-.97-2.143-1.455-3.84-1.455-1.699 0-2.98.485-3.842 1.455-.862.944-1.442 2.17-1.738 3.68-.27 1.509-.405 3.355-.405 5.539 0 2.264.135 4.164.405 5.7.27 1.537.835 2.777 1.698 3.72.89.944 2.183 1.415 3.881 1.415s2.979-.471 3.841-1.415c.89-.943 1.47-2.183 1.739-3.72.27-1.536.404-3.436.404-5.7zM38.82 34.814c2.588-2.237 4.623-4.07 6.105-5.499 1.51-1.455 2.763-2.965 3.76-4.528.998-1.563 1.497-3.127 1.497-4.69 0-1.617-.391-2.884-1.173-3.8-.755-.917-1.954-1.375-3.598-1.375-1.59 0-2.83.512-3.72 1.536-.863.998-1.32 2.345-1.375 4.043H35.87c.08-3.072.997-5.417 2.75-7.035C40.396 11.822 42.647 11 45.37 11c2.938 0 5.23.809 6.874 2.426 1.67 1.617 2.506 3.774 2.506 6.469 0 1.94-.498 3.814-1.496 5.62a22.307 22.307 0 01-3.517 4.811c-1.348 1.402-3.073 3.032-5.175 4.892l-1.82 1.618H55.56v3.84h-19.65v-3.355l2.911-2.507z" fill="#6500FF"></path></svg>