<svg id="step-01" width="56" height="56" fill="none" xmlns="http://www.w3.org/2000/svg"><g clip-path="url(#1_svg__clip0)"><path d="M36.001 53l-19.04-2.034c-7.206 0-10.907-5.88-13.098-13.015L.325 18.646C-1.522 8.176 4.783 3 11.99 3l27.912 2.265C47.108 5.265 53 11.125 53 18.279l-3.9 21.706C47.276 47.115 43.945 52.807 36 53z" fill="#E8D9FF"></path><path d="M19 26.879c0-4.663.782-8.302 2.345-10.917C22.935 13.321 25.658 12 29.512 12c3.855 0 6.563 1.32 8.127 3.962 1.59 2.615 2.385 6.254 2.385 10.917 0 4.717-.795 8.41-2.385 11.078-1.564 2.641-4.272 3.962-8.127 3.962-3.854 0-6.577-1.32-8.167-3.962C19.782 35.288 19 31.596 19 26.879zm16.496 0c0-2.184-.148-4.03-.445-5.54-.27-1.509-.835-2.735-1.698-3.679-.862-.97-2.143-1.455-3.84-1.455-1.699 0-2.98.485-3.842 1.455-.862.944-1.442 2.17-1.738 3.68-.27 1.51-.405 3.355-.405 5.539 0 2.264.135 4.164.405 5.7.27 1.537.835 2.777 1.698 3.72.89.944 2.183 1.415 3.881 1.415s2.979-.471 3.841-1.415c.89-.943 1.47-2.183 1.739-3.72.27-1.536.404-3.436.404-5.7zM44.295 16.73v-4.204h8.41V42h-4.65V16.73h-3.76z" fill="#6500FF"></path></g><defs><clipPath id="1_svg__clip0"><path fill="#fff" d="M0 0h56v56H0z"></path></clipPath></defs></svg>