<svg id="step-05" width="56" height="56" fill="none" xmlns="http://www.w3.org/2000/svg"><g clip-path="url(#5_svg__clip0)"><path d="M36.001 53l-19.04-2.034c-7.206 0-10.907-5.88-13.098-13.015L.325 18.646C-1.522 8.176 4.783 3 11.99 3l27.912 2.265C47.108 5.265 53 11.125 53 18.279l-3.9 21.706C47.276 47.115 43.945 52.807 36 53z" fill="#E8D9FF"></path><path d="M11 26.879c0-4.663.782-8.302 2.345-10.917C14.935 13.321 17.658 12 21.512 12c3.855 0 6.564 1.32 8.127 3.962 1.59 2.615 2.385 6.254 2.385 10.917 0 4.717-.795 8.41-2.385 11.078-1.563 2.641-4.272 3.962-8.127 3.962-3.854 0-6.577-1.32-8.167-3.962C11.782 35.288 11 31.596 11 26.879zm16.496 0c0-2.184-.148-4.03-.445-5.54-.27-1.509-.835-2.735-1.698-3.679-.862-.97-2.143-1.455-3.84-1.455-1.699 0-2.98.485-3.842 1.455-.862.944-1.442 2.17-1.738 3.68-.27 1.51-.405 3.355-.405 5.539 0 2.264.135 4.164.405 5.7.27 1.537.835 2.777 1.698 3.72.89.944 2.183 1.415 3.881 1.415s2.979-.471 3.841-1.415c.89-.943 1.47-2.183 1.739-3.72.27-1.536.404-3.436.404-5.7zM53.276 16.488H39.73v8.046c.566-.755 1.402-1.388 2.507-1.9a8.63 8.63 0 013.599-.769c2.264 0 4.097.485 5.498 1.456 1.429.97 2.44 2.196 3.033 3.679.62 1.483.93 3.046.93 4.69 0 1.995-.391 3.774-1.173 5.337-.755 1.536-1.9 2.75-3.437 3.639-1.51.89-3.369 1.334-5.58 1.334-2.937 0-5.296-.728-7.075-2.183-1.779-1.456-2.843-3.383-3.194-5.782h4.488c.297 1.267.957 2.278 1.981 3.032 1.025.728 2.305 1.092 3.841 1.092 1.914 0 3.343-.58 4.286-1.739.97-1.159 1.456-2.695 1.456-4.609 0-1.94-.486-3.423-1.456-4.447-.97-1.051-2.399-1.577-4.286-1.577-1.32 0-2.44.337-3.355 1.01-.89.648-1.537 1.537-1.941 2.67h-4.367V12.444h17.79v4.043z" fill="#6500FF"></path></g><defs><clipPath id="5_svg__clip0"><path fill="#fff" d="M0 0h56v56H0z"></path></clipPath></defs></svg>