<svg id="step-03" width="56" height="56" fill="none" xmlns="http://www.w3.org/2000/svg"><path d="M36.001 53l-19.04-2.034c-7.206 0-10.907-5.88-13.098-13.015L.325 18.646C-1.522 8.176 4.783 3 11.99 3l27.912 2.265C47.108 5.265 53 11.125 53 18.279l-3.9 21.706C47.276 47.115 43.945 52.807 36 53z" fill="#E8D9FF"></path><path d="M13 25.88c0-4.613.773-8.213 2.32-10.8 1.573-2.613 4.267-3.92 8.08-3.92 3.813 0 6.493 1.307 8.04 3.92 1.573 2.587 2.36 6.187 2.36 10.8 0 4.667-.787 8.32-2.36 10.96-1.547 2.613-4.227 3.92-8.04 3.92-3.813 0-6.507-1.307-8.08-3.92C13.773 34.2 13 30.547 13 25.88zm16.32 0c0-2.16-.147-3.987-.44-5.48-.267-1.493-.827-2.707-1.68-3.64-.853-.96-2.12-1.44-3.8-1.44-1.68 0-2.947.48-3.8 1.44-.853.933-1.427 2.147-1.72 3.64-.267 1.493-.4 3.32-.4 5.48 0 2.24.133 4.12.4 5.64.267 1.52.827 2.747 1.68 3.68.88.933 2.16 1.4 3.84 1.4 1.68 0 2.947-.467 3.8-1.4.88-.933 1.453-2.16 1.72-3.68.267-1.52.4-3.4.4-5.64zM35.945 18.88c.16-2.48 1.107-4.413 2.84-5.8 1.76-1.387 4-2.08 6.72-2.08 1.867 0 3.48.333 4.84 1 1.36.667 2.387 1.573 3.08 2.72.693 1.147 1.04 2.44 1.04 3.88 0 1.653-.44 3.067-1.32 4.24-.88 1.173-1.933 1.96-3.16 2.36v.16c1.573.48 2.8 1.36 3.68 2.64.88 1.253 1.32 2.867 1.32 4.84 0 1.573-.36 2.973-1.08 4.2-.72 1.227-1.787 2.2-3.2 2.92-1.413.693-3.107 1.04-5.08 1.04-2.88 0-5.253-.733-7.12-2.2-1.84-1.493-2.827-3.627-2.96-6.4h4.4c.107 1.413.653 2.573 1.64 3.48.987.88 2.32 1.32 4 1.32 1.627 0 2.88-.44 3.76-1.32.88-.907 1.32-2.067 1.32-3.48 0-1.867-.6-3.187-1.8-3.96-1.173-.8-2.987-1.2-5.44-1.2h-1.04v-3.76h1.08c2.16-.027 3.8-.387 4.92-1.08 1.147-.693 1.72-1.787 1.72-3.28 0-1.28-.413-2.293-1.24-3.04-.827-.773-2-1.16-3.52-1.16-1.493 0-2.653.387-3.48 1.16-.827.747-1.32 1.68-1.48 2.8h-4.44z" fill="#6500FF"></path></svg>