<svg id="step-04" width="56" height="56" fill="none" xmlns="http://www.w3.org/2000/svg"><g clip-path="url(#4_svg__clip0)"><path d="M36.001 53l-19.04-2.034c-7.206 0-10.907-5.88-13.098-13.015L.325 18.646C-1.522 8.176 4.783 3 11.99 3l27.912 2.265C47.108 5.265 53 11.125 53 18.279l-3.9 21.706C47.276 47.115 43.945 52.807 36 53z" fill="#E8D9FF"></path><path d="M13 26.383c0-4.508.756-8.025 2.267-10.553 1.537-2.553 4.169-3.83 7.895-3.83s6.344 1.277 7.855 3.83c1.538 2.528 2.306 6.045 2.306 10.553 0 4.56-.768 8.13-2.306 10.709-1.51 2.553-4.13 3.83-7.855 3.83-3.726 0-6.358-1.277-7.895-3.83-1.511-2.58-2.267-6.15-2.267-10.71zm15.946 0c0-2.11-.143-3.896-.43-5.355-.26-1.459-.808-2.644-1.641-3.556-.834-.938-2.072-1.407-3.713-1.407-1.642 0-2.88.469-3.713 1.407-.834.912-1.394 2.097-1.68 3.556-.261 1.46-.392 3.244-.392 5.355 0 2.188.13 4.025.391 5.51.26 1.486.808 2.684 1.642 3.596.86.912 2.11 1.368 3.752 1.368 1.641 0 2.879-.456 3.713-1.368.86-.912 1.42-2.11 1.68-3.595.26-1.486.391-3.323.391-5.511zM34.95 35.06v-3.362L48.082 12.86h5.394v18.33h3.635v3.87h-3.635V41h-4.377v-5.94H34.95zm14.344-17.667L40.07 31.19h9.224V17.393z" fill="#6500FF"></path></g><defs><clipPath id="4_svg__clip0"><path fill="#fff" d="M0 0h56v56H0z"></path></clipPath></defs></svg>