<svg id="teachers" width="56" height="56" fill="none" xmlns="http://www.w3.org/2000/svg">
						<path fill-rule="evenodd" clip-rule="evenodd" d="M11.232 7.268l17.793-4.961c7.61-2.123 15.524 2.217 17.826 9.776l7.167 23.534c2.34 7.687-1.993 15.816-9.68 18.157a14.55 14.55 0 01-5.168.601L13.62 52.74C5.765 52.237-.265 45.58.01 37.713l.59-16.938A14.549 14.549 0 0111.233 7.269z" fill="#D5BAFF"></path>
						<path fill-rule="evenodd" clip-rule="evenodd" d="M39.268 40.269C37.988 45.307 32.538 49 26.596 49c-6.093 0-11.526-3.46-12.711-8.66v-.478c-.062-.3-.036-.63-.068-.941-.01-.05-.148-.15-.17-.197-.139-.704-.262-1.384-.277-2.102 0-.356.39-1.962.447-3.958-2.6 2.02-4.686-2.913-3.453-5.98 1.234-3.069 3.326.275 3.352-.588.059-1.887 0-3.235 0-3.235l.554-2.64L18.02 15c9.707 2.749 16.494 4.58 20.36 5.496l.537.072.567 2.293s-.062.763 0 2.762c.029.927 1.108-1.34 2.854-.726.275.096 1.391-.533 1.6 1.027.294 2.205-.485 6.21-1.6 6.976-1.904 1.31-2.218-.066-2.201.532.046 1.616 0 2.882 0 3.19-.01.45-.3 1.665-.869 3.647z" fill="#F4EDFF"></path>
						<path fill-rule="evenodd" clip-rule="evenodd" d="M29.156 0c4.802 0 8.525 4.78 8.525 8.436 0 1.558-.677 2.453-1.825 2.967 2.602 1.634 4.52 3.875 4.603 6.523l.003.182v6.085c.792-1.348 3.063-.605 3.744 1.21.595 1.585.165 4.069-.926 6.521 1.03.582 1.72 1.642 1.72 2.854 0 1.837-1.586 3.326-3.542 3.326-.401 0-.8-.064-1.18-.19-.471 4.028-1.842 6.84-4.111 8.436-2.729 2.352-6.3 3.656-10.005 3.65-3.925 0-7.487-1.39-10.073-3.654-2.187-1.787-3.505-4.652-3.955-8.596a3.715 3.715 0 01-1.592.354C8.586 38.104 7 36.614 7 34.778c0-1.227.707-2.3 1.76-2.875-.962-2.038-1.318-4.614-.228-6.5.966-1.672 2.072-2.1 3.318-1.285l.11.075v-5.546c0-3.686 3.007-7.99 8.994-9.564a4.716 4.716 0 01-1.073-3.035C19.881 2.062 24.354 0 29.156 0zM17.504 15.096s-.205 1.4-1.416 3.048c-.339.46-1.065 1.113-2.178 1.956l-.189.142-.158 2.603s-.165 2.256-.165 3.354c0 1.1-1.444-1.75-2.863-.49-1.056.937-1.347 3.577-.597 5.436.048.117.1.229.154.334a3.58 3.58 0 01.45-.028c1.02 0 1.938.404 2.585 1.05l.036-.01v.048c.573.591.922 1.377.922 2.238 0 .848-.338 1.622-.894 2.21.035.512.104 1.023.207 1.529a.785.785 0 01.049.142c.025.23.065.455.109.679l.046.222.035.18c1.197 5.127 6.37 8.872 12.516 8.872 5.913 0 11.019-3.61 12.397-8.475l.055-.203.237-1.21v-.01c.01-.08.029-.16.036-.24a.738.738 0 01.027-.084c.075-.382.13-.768.166-1.155-.711-.608-1.156-1.483-1.156-2.456 0-1.838 1.586-3.327 3.543-3.327.192 0 .381.014.565.042.649-.92.827-2.131.916-2.462.765-2.831-.123-4.233-1.685-4.233s-2.359 2.738-2.376 2.2c-.074-2.376-.156-4.057-.16-4.149v-.004l-.136-2.261c-3.684.081-7.663-.543-11.938-1.872-3.002-.934-6.049-2.14-9.14-3.616zm1.52 21.06c6.838 4.486 12.346 1.426 12.346 1.426s.696-.413.707-.173c.011.24-.378.517-.378.517s-.123.092-.347.23c-.273.35-1.641 2.273-2.485 3.468-.806 1.075-2.102 1.727-3.494 1.765l-.175.002h-.203c-4.914-.172-5.982-5.552-6.138-6.537a7.464 7.464 0 01-.329-.303c-.043-.037-.333-.299-.115-.475.234-.19.612.08.612.08zm1.168 1.658c.462 1.662 1.699 4.427 4.844 4.535 1.137.064 2.23-.421 2.898-1.287.28-.398.87-1.233 1.423-2.005a10.364 10.364 0 01-4.391.4c-1.69-.2-3.318-.76-4.774-1.643zm8.194-3.496c-.208 1.69-1.776 1.981-2.764 1.788-.988-.193-1.412-1.08-1.558-1.37-.146-.29 0-.345 0-.345l.007-.006c.026-.02.13-.07.328.142.235.25 1.042 1.034 2.448.554.308-.137.807-.682.368-.987-.44-.306-1.484-1.223-.342-1.35 0 0 1.721-.116 1.513 1.574zM22.14 21.622c.81.115.828 1.025.658 1.31-.17.286-.425.74-1.552.538-.628-.111-1.664-.104-2.867.122.071-.003.142-.004.213-.004 2.76 0 5.067 1.81 5.653 4.234h3.694c.795-2.114 2.943-3.629 5.467-3.629 3.201 0 5.796 2.437 5.796 5.443s-2.595 5.444-5.796 5.444c-3.202 0-5.797-2.438-5.797-5.444 0-.204.012-.406.036-.605H24.39c0 3.007-2.596 5.444-5.797 5.444-3.201 0-5.796-2.438-5.796-5.444 0-1.802.932-3.4 2.369-4.39-.395.112-.512.048-.635-.045-.137-.104-.133-.514 0-.675 0 0 2.168-2.975 7.61-2.3zm11.266 3.78c-2.49 0-4.508 1.896-4.508 4.234s2.018 4.234 4.508 4.234 4.508-1.896 4.508-4.234-2.018-4.233-4.508-4.233zm-14.814-.605c-2.49 0-4.508 1.896-4.508 4.234s2.018 4.234 4.508 4.234 4.508-1.896 4.508-4.234c0-2.337-2.018-4.233-4.508-4.233zm1.377 1.054c-.037.109-.196.473-.087.762.712.002 1.287 1.083 1.287 2.418 0 1.337-.578 2.42-1.29 2.42-.71 0-1.287-1.084-1.287-2.42 0-.522.089-1.006.238-1.401-.293-.193-.594-.586-.329-1.354.097-.168.245-.335.28-.142.026.138.085.63.401.865.044-.053.088-.101.135-.144-.085-.251-.058-.602.386-1.004.142-.087.32-.156.266 0zm13.223.118c.466.454.433.831.309 1.08.029.037.057.077.084.12.389-.19.483-.739.52-.885.046-.191.183-.019.27.154.25.863-.17 1.239-.494 1.396.108.353.169.762.169 1.197 0 1.337-.576 2.42-1.288 2.42-.712 0-1.288-1.084-1.288-2.42 0-1.336.576-2.418 1.288-2.418a.71.71 0 01.237.04c.08-.272-.042-.595-.072-.697-.047-.159.128-.082.265.012zm-22.47 1.268c.816-.64 1.534-.25 1.636-.189l.012.008s.244.14.236.32c-.01.18-.096.313-.354.328a5.352 5.352 0 00-.547.008c.146.153.33.382.399.628.117.429.17.576.138.88a.17.17 0 01-.119.153s-.105.029-.168-.125a2.601 2.601 0 00-1.054-1.207c-.21.18-.394.455-.505.877a.198.198 0 01-.09.139.093.093 0 01-.11-.02.09.09 0 01-.02-.035s-.334-1.075.546-1.765zm8.836.585c-.178 0-.322.27-.322.605 0 .334.144.604.322.604.178 0 .322-.27.322-.604 0-.336-.144-.605-.322-.605zm12.882 0c-.178 0-.322.27-.322.605 0 .334.144.604.322.604.175 0 .322-.27.322-.604 0-.336-.143-.605-.322-.605zm9.459-1.835c.88.69.546 1.765.546 1.765a.09.09 0 01-.052.059.092.092 0 01-.079-.004.197.197 0 01-.089-.139c-.11-.422-.295-.696-.505-.877-.47.28-.838.703-1.054 1.207-.063.154-.168.125-.168.125a.168.168 0 01-.119-.152c-.032-.305.021-.452.139-.881.067-.246.252-.475.398-.628a5.366 5.366 0 00-.547-.008c-.258-.015-.344-.148-.354-.327-.008-.18.236-.32.236-.32l.013-.009c.102-.061.82-.45 1.635.189zm-3.852-2.066c.13.16.139.572 0 .675-.138.103-.267.171-.787 0-2.359-1.143-4.803-1.327-5.93-1.125-1.126.2-1.38-.253-1.55-.538-.171-.285-.152-1.196.658-1.311 5.442-.676 7.61 2.3 7.61 2.3z" fill="#6500FF"></path>
					</svg>