<svg id="thumbs-up-active" viewBox="0 0 64 64" fill="none" xmlns="http://www.w3.org/2000/svg" class="flex-shrink-0 w-12 h-12 mb-4">
							<path d="M40.084 61.837l-20.487-2.203c-7.754 0-11.735-6.366-14.093-14.093L1.698 24.63C-.29 13.292 6.494 7.687 14.248 7.687l30.033 2.452c2.77 0 5.356.808 7.539 2.203 4.79 3.058 7.094 8.845 6.097 14.444L54.17 47.744c-1.954 7.714-5.538 13.878-14.087 14.093z" fill="#D5BAFF"></path>
							<path d="M40.667 19.389V9.833A7.167 7.167 0 0033.5 2.667l-9.556 21.5v26.277h26.947a4.778 4.778 0 004.778-4.06l3.297-21.5a4.778 4.778 0 00-4.778-5.495H40.667zM23.944 50.444h-7.166A4.778 4.778 0 0112 45.667V28.944a4.778 4.778 0 014.778-4.777h7.166" fill="#F4EDFF"></path>
							<path fill-rule="evenodd" clip-rule="evenodd" d="M32.282 2.125a1.333 1.333 0 011.218-.792 8.5 8.5 0 018.5 8.5v8.222h12.18a6.112 6.112 0 016.104 7.028l-3.297 21.5a6.114 6.114 0 01-6.103 5.195H16.778a6.111 6.111 0 01-6.111-6.111V28.944a6.111 6.111 0 016.11-6.11h6.3l9.205-20.709zM22.612 25.5h-5.834a3.445 3.445 0 00-3.445 3.444v16.723a3.444 3.444 0 003.445 3.444h5.833V25.5zm2.666 23.611h25.628a3.444 3.444 0 003.445-2.928l3.296-21.5a3.447 3.447 0 00-3.444-3.96H40.667a1.333 1.333 0 01-1.334-1.334V9.833a5.833 5.833 0 00-4.993-5.772L25.278 24.45V49.11z" fill="#6500FF"></path>
						</svg>