<svg id="yellow-girl" viewBox="0 0 56 56" fill="none" xmlns="http://www.w3.org/2000/svg" class="flex-shrink-0 h-12">
			<path d="M37.43 55.978l-18.742-2.015c-7.092 0-10.734-5.825-12.888-12.895L2.32 21.944C.503 11.577 6.709 6.448 13.8 6.448L41.277 8.69c7.093 0 12.896 5.803 12.896 12.888l-3.84 21.505c-1.81 7.063-5.084 12.705-12.902 12.895z" fill="#FFEB9E"></path>
			<path d="M40.23 35.33c-.015.03-.022.06-.03.089-.007.088-.029.168-.036.256v.015l-.235 1.275c-1.282 5.238-6.396 9.158-12.338 9.158-6.089 0-11.218-3.949-12.398-9.364l-.036-.19c-.066-.315-.117-.63-.154-.953a1.25 1.25 0 00-.051-.154c-.14-.732-.22-1.472-.235-2.22 0-1.128.396-14.31.396-14.31l.154-2.747 1.78-.146s.293.124.476-.367c.184-.483 1.488-4.916 1.488-4.916l1.649 4.653s-.052.366.505.366 12.397-.725 18.193.696l.535.073.132 2.389s.395 13.181.395 14.31a11.19 11.19 0 01-.19 2.088z" fill="#FFF7D8"></path>
			<path d="M48.45 40.423s-.307-16.794-.608-21.556C46.18 2.572 32.31.352 28.184.044L28.154 0s-.204 0-.564.015C27.231 0 27.02 0 27.02 0l-.022.044C22.872.352 8.995 2.572 7.339 18.867c-.308 4.762-.608 21.556-.608 21.556s-.213 1.605.974 2.52c1.187.916 4.396 3.583 6.96 3.92 2.565.337 2.704-.894 1.605-3.275.623.073 1.055.117 1.349.154 2.564 2.389 6.096 3.861 9.986 3.861 3.825 0 7.35-1.48 9.92-3.854.301-.036.74-.08 1.393-.16-1.1 2.38-.96 3.619 1.605 3.274 2.564-.344 5.773-3.004 6.96-3.92 1.187-.915.967-2.52.967-2.52zm-8.206-5.085c-.007.03-.022.059-.03.088-.006.088-.029.168-.036.256v.008l-.234 1.275c-1.283 5.246-6.404 9.158-12.346 9.158-6.089 0-11.225-3.956-12.405-9.364l-.036-.19c-.066-.315-.118-.63-.154-.953a.497.497 0 00-.052-.146c-.073-.418-.234-1.37-.234-2.228 0-1.128.396-14.316.396-14.316l.154-2.748 1.78-.147s.293.118.476-.359c.19-.483 1.488-4.916 1.488-4.916l1.648 4.653s-.051.359.506.359 12.404-.726 18.207.696c.176.022.36.051.535.073l.132 2.389s.396 13.188.396 14.316c.022.777-.11 1.627-.19 2.096z" fill="#D99328"></path>
			<path d="M16.08 20.061s2.147-3.136 7.54-2.432c.806.117.82 1.084.652 1.384-.169.3-.425.784-1.539.565-1.12-.213-3.539-.015-5.876 1.187-.513.183-.645.11-.777 0-.139-.103-.132-.535 0-.704z" fill="#D99328"></path>
			<path fill-rule="evenodd" clip-rule="evenodd" d="M20.015 22.545c.095-.176.241-.352.278-.146l.006.03.005.029c.043.248.154.887.663.974-.176-.242-.38-.733.25-1.326.139-.096.314-.169.263 0l-.018.053c-.06.181-.203.6-.004.879a.973.973 0 01.432-.105c1.026 0 1.854 1.715 1.854 3.832 0 2.118-.828 3.832-1.854 3.832-1.025 0-1.853-1.714-1.853-3.832 0-1.035.198-1.974.52-2.663-.318-.137-.872-.536-.542-1.557zm1.502 4.44c.315 0 .571-.38.571-.85 0-.469-.256-.842-.571-.85-.315 0-.572.381-.572.85 0 .47.257.85.572.85z" fill="#D99328"></path>
			<path d="M39.387 20.061s-2.147-3.136-7.547-2.432c-.805.117-.82 1.084-.652 1.384.169.3.425.784 1.539.565 1.114-.213 3.539-.015 5.876 1.187.513.183.645.11.777 0 .146-.103.14-.535.007-.704zM28.316 29.374s1.707-.117 1.502 1.663c-.205 1.78-1.758 2.096-2.74 1.883-.982-.205-1.4-1.143-1.546-1.443-.147-.308 0-.367 0-.367s.102-.117.33.147c.234.264 1.033 1.084 2.425.586.308-.147.799-.718.359-1.04-.44-.33-1.466-1.29-.33-1.43z" fill="#D99328"></path>
			<path fill-rule="evenodd" clip-rule="evenodd" d="M35.753 22.72c-.088-.182-.22-.365-.271-.16a3.206 3.206 0 00-.013.057c-.055.243-.196.88-.705.947.183-.235.417-.718-.183-1.341-.14-.103-.308-.183-.264-.015l.014.049c.051.18.175.607-.036.881a1.035 1.035 0 00-.6-.205c-1.027 0-1.855 1.715-1.855 3.832 0 2.118.828 3.832 1.854 3.832 1.026 0 1.854-1.714 1.854-3.832 0-.956-.17-1.83-.45-2.502.308-.106.95-.461.655-1.542zm-2.433 4.265c.315 0 .572-.38.572-.85 0-.469-.257-.842-.572-.85-.315 0-.572.381-.572.85 0 .47.257.85.572.85z" fill="#D99328"></path>
			<path d="M22.543 36.605s2.872 3.825 9.056.88c.505-.169.974-1.011.344-1.048-.63-.037-3.466 2.718-8.8-.22-.608-.44-.952.008-.6.389z" fill="#D99328"></path>
		</svg>