<svg viewBox="0 0 100 96" fill="none" xmlns="http://www.w3.org/2000/svg" class="flex-shrink-0 h-16">
                            <path d="M67.925 95.204l-35.927-3.857c-13.59 0-20.575-11.16-24.71-24.713L.614 29.972C-2.873 10.096 9.031.265 22.621.265l52.667 4.298c10.542 0 19.598 6.69 23.13 16.035 2.087 5.518 1.06 11.596.022 17.402l-5.806 32.492c-3.445 13.53-9.723 24.342-24.71 24.712z" fill="#E3D1FE"></path>
                            <path d="M85.303 40.882a38.09 38.09 0 00-4.023-3.85C83.7 19.86 73.459 3.803 57.619.57 44.163-2.17 30.82 5.19 24.373 17.736c-.459 1.156-.5 2.24-.14 3.244.433 1.207 1.825 1.438 3.107 1.326a38.068 38.068 0 011.515-.208h.004c6.456-.777 15.135-.478 22.59 1.425 7.27 1.588 13.513 4.184 18.496 6.82 2.64 4.807 4.082 10.47 3.991 16.413-.249 16.465-12.165 29.71-26.637 29.71-.12 0-.24 0-.363-.003-4.586-.07-9.084-1.486-13.01-4.1-3.844-2.557-7.082-6.203-9.365-10.546a2.176 2.176 0 00-2.945-.915 2.19 2.19 0 00-.912 2.954c2.623 4.989 6.362 9.192 10.812 12.15 4.623 3.076 9.933 4.747 15.354 4.828.144.002.285.004.43.004 7.921-.002 15.185-3.354 20.684-8.868 8.077 4.817 16.779 5.262 21.977.35 7.077-6.688 4.99-20.762-4.658-31.438zM54.184 19.075s-8.04-2.632-18.581-2.025c0 0 1.818-8.018 10.34-7.574 8.524.445 8.241 9.599 8.241 9.599zm20.05 52.196a.596.596 0 01-.74.407 24.35 24.35 0 01-2.496-.866.596.596 0 01.45-1.103c.49.203 1.301.51 2.379.823.318.093.5.424.407.74zm8.015-26.986a.597.597 0 01-.443-.2c-1.027-1.156-1.743-1.825-1.749-1.83a.595.595 0 11.809-.874c.032.026.76.71 1.829 1.913a.595.595 0 01-.446.99zm-2.34 27.859a.594.594 0 01-.593.563h-.032a22.753 22.753 0 01-2.63-.3.597.597 0 01.201-1.176 21.7 21.7 0 002.492.284.6.6 0 01.562.629zm9.54-16.43a.595.595 0 01.737.41c.25.867.444 1.74.577 2.589a.596.596 0 01-.587.688.596.596 0 01-.587-.504c-.125-.8-.309-1.624-.545-2.446a.596.596 0 01.405-.736zm1.53 6.279c-.024.9-.123 1.795-.292 2.661a.594.594 0 11-1.166-.228c.156-.803.245-1.633.268-2.467a.595.595 0 111.19.034zm-2.99-8.455a29.142 29.142 0 00-1.106-2.276.598.598 0 01.241-.81.593.593 0 01.805.24c.426.792.815 1.588 1.153 2.371a.6.6 0 01-.545.835.592.592 0 01-.547-.36zm-2.47 17.577a.597.597 0 01-.33.775c-.796.32-1.677.55-2.623.69a.595.595 0 01-.171-1.18 10.355 10.355 0 002.35-.616.593.593 0 01.774.33zm4.133-3.293a8.515 8.515 0 01-1.62 2.234.59.59 0 01-.418.17.595.595 0 01-.416-1.02 7.403 7.403 0 001.394-1.926.594.594 0 111.06.542zm-3.39-19.9a.596.596 0 01-.494.926.59.59 0 01-.494-.267 39.714 39.714 0 00-1.477-2.073.596.596 0 11.947-.722 43.616 43.616 0 011.518 2.136z" fill="#6500FF"></path>
                            <path d="M55.84 52.632a2.69 2.69 0 01-.545-.481c-.395-.466-.724-1.184-.984-2.15a13.135 13.135 0 01-.273-1.35 19.211 19.211 0 01-.173-2.717 14.306 14.306 0 01.689-4.383c.173-.546.376-1.059.602-1.537.114-.24.232-.47.359-.693.505-.889 1.018-1.547 1.542-1.973.521-.426.994-.64 1.423-.64.144 0 .281.011.414.032.4.068.758.235 1.073.504.418.36.788.907 1.103 1.64.158.367.293.753.405 1.162.112.404.203.83.268 1.274.034.223.064.44.089.655.05.427.084.838.101 1.232.009.197.013.39.013.578 0 .815-.05 1.68-.156 2.594a14.648 14.648 0 01-.539 2.63 8.845 8.845 0 01-.703 1.698 6.735 6.735 0 01-.292.48 5.234 5.234 0 01-.644.8c-.224.23-.46.42-.707.57-.492.303-1.077.456-1.76.456-.483 0-.918-.127-1.305-.381zm-1.369-17.48a8.998 8.998 0 00-2.699 2.876c-.69 1.16-1.206 2.45-1.55 3.87a18.708 18.708 0 00-.517 4.42c0 1.672.209 3.19.625 4.554.063.212.133.42.207.625.323.885.77 1.668 1.335 2.356.403.494.865.94 1.396 1.332 1.265.94 2.889 1.41 4.874 1.41 1.398 0 2.613-.254 3.64-.766 1.028-.513 1.864-1.175 2.513-1.99a9.968 9.968 0 001.36-2.287c.055-.127.112-.248.16-.377.366-.962.626-1.955.78-2.977.154-1.025.232-2.027.232-3.01 0-.865-.097-1.79-.287-2.773-.002-.013-.007-.025-.009-.038a14.628 14.628 0 00-.878-2.86c-.402-.952-.921-1.835-1.559-2.648a8.036 8.036 0 00-2.39-2.036c-.956-.543-2.062-.816-3.317-.816-1.5 0-2.807.377-3.916 1.135zM27.986 41.322a.198.198 0 00-.175.15.197.197 0 00.084.217c.334.22.533.588.533.986 0 .648-.52 1.176-1.158 1.176-.363 0-.699-.174-.923-.473a.194.194 0 00-.19-.076.203.203 0 00-.156.138c-.114.364-.19.74-.226 1.122-.087.904.042 1.779.36 2.46.335.716.842 1.142 1.425 1.201.044.004.09.006.135.006.538 0 1.062-.317 1.491-.904.441-.607.735-1.44.822-2.344.086-.904-.043-1.778-.362-2.458-.335-.718-.84-1.143-1.425-1.2-.036-.005-.072-.005-.108-.005-.04 0-.084.002-.127.004z" fill="#6500FF"></path>
                            <path d="M22.501 25.577c-1.835.002-3.115 1.514-3.16 2.867-.048 1.506.643 3.358 3.11 3.71 2.416.345 21.33 3.462 22.134 3.595l-7.213 12.874-.373.67c-.379.558-.731 1.132-1.054 1.72-.028.052-.049.105-.076.157a4.016 4.016 0 00-.222.52c-.12.35-.188.694-.188 1.026 0 .254.046.498.137.73.129.337.347.653.661.945.53.498 1.358.82 2.482.968l7.73.931c.695.098 1.257.149 1.685.149.585 0 1.154-.113 1.703-.337a2.682 2.682 0 001.487-1.41 8.802 8.802 0 01-1.844-3.017c-.15-.411-.281-.837-.393-1.28a4.884 4.884 0 00-1.34-.19c-.39 0-.787.017-1.19.049-.402.031-.752.063-1.044.101l-1.465.244 6.08-13.566a20.27 20.27 0 00.815-1.665c.25-.576.376-1.133.376-1.666 0-.682-.338-1.283-1.015-1.804-.678-.521-1.694-.856-3.05-1.004 0 0-21.962-4.855-24.133-5.255a3.48 3.48 0 00-.633-.06H22.5v-.002z" fill="#6500FF"></path>
                            <path d="M25.49 52.231c-.46-.438-.836-1.196-1.126-2.27-.29-1.075-.433-2.392-.433-3.955 0-1.164.146-2.312.433-3.443.292-1.128.68-2.126 1.17-2.99.49-.866.99-1.505 1.5-1.918.509-.415.97-.623 1.383-.623.556 0 1.037.174 1.445.524.408.347.767.88 1.073 1.594.306.714.526 1.505.657 2.37.13.865.194 1.664.194 2.396 0 .792-.05 1.635-.15 2.522-.101.89-.275 1.743-.524 2.56s-.57 1.523-.967 2.117c-.397.593-.834 1.038-1.312 1.334-.48.295-1.05.44-1.71.44a2.313 2.313 0 01-1.633-.658zm-1.063-16.98a8.999 8.999 0 00-2.699 2.876c-.69 1.158-1.206 2.45-1.55 3.87-.06.244-.108.492-.156.738a19.435 19.435 0 00-.361 3.678c0 1.181.105 2.282.312 3.31.119.586.27 1.145.459 1.68.02.062.04.128.063.189.555 1.518 1.466 2.75 2.729 3.688 1.265.94 2.889 1.41 4.874 1.41 1.399 0 2.613-.256 3.64-.768 1.028-.51 1.866-1.175 2.515-1.99.135-.172.262-.346.384-.521a2.96 2.96 0 01-.063-.6c0-.681.196-1.386.585-2.092.33-.599.688-1.19 1.073-1.757l.291-.52c.009-.052.02-.1.028-.151.154-1.023.23-2.026.23-3.007 0-.868-.095-1.793-.285-2.774a14.539 14.539 0 00-.887-2.898c-.401-.951-.921-1.834-1.559-2.65a8.035 8.035 0 00-2.39-2.036c-.955-.542-2.062-.816-3.317-.816-1.501.007-2.807.386-3.916 1.142zM58.047 41.123a.198.198 0 00-.175.15.197.197 0 00.084.217c.376.247.602.662.602 1.115 0 .733-.589 1.328-1.31 1.328-.409 0-.79-.195-1.04-.533a.197.197 0 00-.193-.079.203.203 0 00-.154.138c-.127.402-.211.82-.251 1.243-.095 1.001.046 1.967.4 2.723.367.788.924 1.258 1.566 1.319.047.004.095.006.142.006 1.231 0 2.359-1.562 2.553-3.587.095-.999-.046-1.967-.399-2.72-.367-.788-.925-1.258-1.565-1.322-.04-.004-.078-.004-.116-.004-.049 0-.095.002-.144.006zM53.042 59.892c-2.575 2.973-5.606 4.159-9.012 3.528-2.704-.5-4.691-1.974-4.72-1.995a2.015 2.015 0 00-2.825.386 2.026 2.026 0 00.38 2.837c.108.083 2.655 2.007 6.254 2.72.81.162 1.709.268 2.672.268 3.103 0 6.852-1.108 10.296-5.086.731-.843.64-2.124-.202-2.857a2.008 2.008 0 00-2.843.2z" fill="#6500FF"></path>
                        </svg>