<svg viewBox="0 0 56 56" fill="none" xmlns="http://www.w3.org/2000/svg"><g clip-path="url(#overwhelmed_svg__clip0)"><path d="M37.734 56l-18.728-2.008c-7.085 0-10.726-5.817-12.88-12.88l-3.48-19.11C.827 11.636 7.025 6.507 14.111 6.507l27.454 2.242c7.085 0 12.88 5.796 12.88 12.881l-3.838 21.49C48.82 50.175 45.544 55.81 37.733 56z" fill="#97D7F6"></path><path d="M49.743 33.367c-1.524 1.73-3.906 2.564-6.067 2.132h-.059l-.066-.022a.757.757 0 00-.285.022.852.852 0 00-.257.132.67.67 0 00-.183.22.686.686 0 00-.08.27c-.623 6.002-6.844 10.698-14.156 10.698-7.313 0-13.386-4.513-14.134-10.5a.713.713 0 00-.11-.292.741.741 0 00-.315-.44.706.706 0 00-.527-.095c-2.162.432-4.543-.403-6.067-2.132-1.165-1.32-1.56-2.91-1.084-4.353.293-.894.798-1.48 1.538-1.802 1.575-.689 3.759.007 4.594.322.125.425.403 1.165.784 1.063.528-.132.726-1.326.689-1.92-.044-.593-.484-3.935-.638-4.594-.153-.667-.205-1.993-.095-2.586.103-.55 3.4-6.463 3.89-7.335 3.261 1.993 15.204 8.58 25.953 5.496.49.938.857 1.663.894 1.839.11.593.066 1.92-.095 2.586-.162.66-.594 4-.638 4.594-.044.6.161 1.788.689 1.92.38.102.652-.638.776-1.063.836-.315 3.02-1.01 4.594-.322.74.322 1.246.916 1.54 1.802.475 1.458.08 3.041-1.085 4.36z" fill="#D3F1FF"></path><path d="M12.038 29.183s-1.238-.835-2.652.3c-1.422 1.136-.88 2.895-.88 2.895.067.168.213.088.213.088s.095-.044.14-.227c.175-.69.476-1.143.813-1.444 1.26.77 1.692 1.978 1.692 1.978.103.25.271.206.271.206s.161-.037.198-.25c.051-.498-.037-.74-.227-1.443-.11-.403-.403-.784-.645-1.033.396-.044.733-.007.88-.015.417-.022.556-.241.57-.534.016-.294-.373-.52-.373-.52zM47.845 29.476c-1.421-1.135-2.652-.3-2.652-.3s-.396.235-.381.528c.014.3.154.512.571.542.147.007.484-.03.88.014-.235.25-.535.63-.645 1.034-.19.703-.279.945-.227 1.443.029.212.197.249.197.249s.169.051.271-.205c0 0 .433-1.216 1.693-1.978.337.3.637.747.813 1.443.044.183.14.227.14.227s.146.073.212-.088c.007-.007.55-1.773-.872-2.909z" fill="#0F3E7D"></path><path d="M52.263 28.582c-.432-1.296-1.223-2.198-2.352-2.689-1.348-.586-2.916-.446-4.132-.175l1.04-3.605s1.077-2.491 1.092-6.741c1.517-1.128 3.048-2.93 3.847-6.352.124-.645.088-1.495-.733-1.056-.813.44-1.59 1.363-7.18.645 2.623-1.385 4.154-4.792 4.154-4.792s.33-.578 0-.666c-.264-.074-.506.183-.704.278-2.982 1.297-6.242 1.114-7.51.975 1.612-.96 1.708-2.492 1.752-2.719.044-.249-.008-.469-.191-.55-.183-.08-.425.06-.425.06s-.996.483-2.645.82c-1.649.337-3.539-.564-3.971-.71-.432-.155-4.69-1.708-8.338-1.202-6.301.754-10.558 5.04-11.408 5.964-.674-.403-1.656-1.224-1.656-1.224s-.557-.747-.345.22c.154.681.557 1.539.828 2.066-.014 0-.022-.007-.036-.007-.25-.066-1.488-.484-1.488-.484s-.66-.256-.205.183c.257.25.82.63 1.341.953-1.004.813-3.605 3.282-3.678 7.004-.088 4.61 1.084 7.327 1.084 7.327l1.04 3.605c-1.216-.278-2.784-.417-4.132.176-1.128.491-1.92 1.4-2.352 2.69-.652 1.948-.146 4.058 1.378 5.788 1.538 1.743 3.795 2.74 6.037 2.74.242 0 .491-.015.733-.037 1.12 6.455 7.664 11.269 15.511 11.269 7.891 0 14.398-4.8 15.511-11.269.242.022.491.037.733.037 2.235 0 4.499-.997 6.03-2.74 1.517-1.722 2.015-3.832 1.37-5.781zm-2.476 4.814c-1.524 1.73-3.913 2.565-6.074 2.133-.022-.008-.037 0-.059 0l-.066-.023a.728.728 0 00-.806.653c-.623 6.008-6.85 10.712-14.17 10.712S15.21 42.35 14.463 36.356a.678.678 0 00-.11-.293.725.725 0 00-.842-.535c-2.162.433-4.55-.402-6.074-2.132-1.165-1.319-1.56-2.909-1.085-4.352.3-.894.8-1.487 1.54-1.81 1.574-.688 3.765.008 4.6.323.125.425.403 1.165.777 1.062.528-.14.733-1.326.689-1.92-.044-.593-.484-3.941-.645-4.6-.161-.668-.205-1.994-.088-2.587.103-.55 3.407-6.47 3.898-7.35 3.268 1.994 15.226 8.595 25.989 5.503.49.938.857 1.664.886 1.847.118.593.066 1.92-.087 2.586-.162.667-.594 4.008-.645 4.602-.044.593.16 1.787.688 1.92.381.094.652-.646.784-1.063.836-.315 3.02-1.011 4.594-.323.74.323 1.246.916 1.546 1.81.47 1.444.081 3.026-1.091 4.352z" fill="#0F3E7D"></path><path d="M17.621 22.992s4.375-1.378 6.477-3.869c.645-.55.872-1.128 1.92 0 1.136 1.217.14 2.242.14 2.242s-3.672 3.305-8.104 2.975c-.733-.146-.806-.249-1.04-.77-.191-.424.607-.578.607-.578zM39.573 22.992s-4.374-1.378-6.477-3.869c-.645-.55-.872-1.128-1.92 0-1.135 1.217-.139 2.242-.139 2.242s3.671 3.305 8.104 2.975c.733-.146.806-.249 1.04-.77.198-.424-.608-.578-.608-.578zM29.337 31.074s1.707-.118 1.502 1.663c-.205 1.78-1.758 2.095-2.74 1.89-.982-.205-1.4-1.143-1.546-1.45-.147-.308 0-.367 0-.367s.102-.117.33.147c.234.263 1.033 1.084 2.425.586.308-.147.799-.718.359-1.04-.432-.33-1.458-1.29-.33-1.43zM18.977 29.198s-.513 2.96 1.692 4.36c.352.183.616-.103.616-.103s.322-.337-.125-.74c-.447-.403-1.194-.799-1.45-3.634-.023-.118-.103-.3-.382-.308-.307-.015-.351.425-.351.425zM38.247 29.176s.564 2.945-1.612 4.389c-.345.19-.616-.096-.616-.096s-.322-.33.11-.74c.44-.41 1.18-.82 1.385-3.663.015-.117.095-.3.374-.315.3-.015.359.425.359.425z" fill="#0F3E7D"></path><path fill-rule="evenodd" clip-rule="evenodd" d="M35.939 28.407c.007.047.013.095.018.143.006.047.011.095.018.142l.044.272c.015.088.03.168.052.256l.029.12c.01.041.018.082.03.122.021.08.043.161.058.234.022.08.036.154.044.235l.002.02c.006.073.012.14.012.207 0 .073 0 .146-.007.22a1.26 1.26 0 01-.11.41 1.676 1.676 0 01-.498.645 2.207 2.207 0 01-.571.315 3.817 3.817 0 01-.264.095c-.088.03-.169.051-.257.066a3.243 3.243 0 01-.527.08c-.088.008-.176 0-.257-.007a.945.945 0 01-.249-.051.948.948 0 01-.234-.103 1.175 1.175 0 01-.227-.16 1.526 1.526 0 01-.213-.257 1.969 1.969 0 01-.176-.352 4.085 4.085 0 01-.066-.22 1.24 1.24 0 01-.044-.227c-.014-.08-.022-.161-.029-.242-.004-.04-.005-.08-.007-.12-.002-.04-.004-.081-.008-.122 0-.08.008-.16.015-.241.007-.08.022-.161.044-.242.012-.066.03-.128.047-.192l.012-.043c.01-.04.022-.078.033-.117l.033-.117.066-.242c.021-.08.036-.168.05-.256.014-.082.022-.17.029-.253l.001-.018c0-.096 0-.19-.007-.286a4.232 4.232 0 00-.015-.161l-.015-.161-.022-.158-.021-.157a4.55 4.55 0 00-.06-.308c-.021-.103-.043-.198-.065-.293a2.001 2.001 0 01-.044-.279c-.007-.088-.015-.176-.007-.256 0-.08.007-.161.029-.235a1.82 1.82 0 01.059-.212c.058-.14.124-.264.212-.381.073-.095.147-.19.227-.271.08-.08.169-.161.25-.227l.056-.043a2.04 2.04 0 01.45-.272c.08-.037.16-.066.24-.081a.91.91 0 01.243-.03 1.032 1.032 0 01.498.14c.08.044.16.095.241.154.088.058.17.117.257.19a3.5 3.5 0 01.264.22c.088.08.168.169.242.256.073.096.139.198.19.308.051.117.088.242.103.374.007.066.014.14.007.212 0 .074-.015.154-.03.235-.014.08-.036.168-.058.256a15.94 15.94 0 00-.066.278 3.44 3.44 0 00-.059.294 4.124 4.124 0 00-.029.3v.3a3.6 3.6 0 01.018.147c.006.05.011.1.019.147zm-1.898.16c0 .294.213.528.469.528s.469-.234.469-.527c0-.293-.213-.528-.47-.528-.255 0-.468.242-.468.528zm.044-1.032a.948.948 0 01-.945-.945c0-.52.417-.946.945-.946.52 0 .945.425.945.946 0 .52-.425.945-.945.945zM21.277 28.407c-.007.047-.012.095-.018.143-.005.047-.01.095-.018.142l-.044.272c-.015.088-.03.168-.051.256l-.03.12c-.009.041-.018.082-.029.122-.022.08-.044.161-.059.234l-.013.063a1.371 1.371 0 00-.03.172l-.002.02a2.213 2.213 0 00-.006.427c.015.146.051.285.11.41a1.672 1.672 0 00.498.645 2.194 2.194 0 00.572.315c.088.036.175.066.263.095.088.03.169.051.257.066a3.233 3.233 0 00.528.08c.087.008.175 0 .256-.007a.945.945 0 00.249-.051.95.95 0 00.235-.103c.08-.044.153-.095.227-.16.073-.074.146-.155.212-.257.066-.103.125-.22.176-.352.022-.066.044-.14.066-.22a1.24 1.24 0 00.044-.227c.014-.08.022-.161.03-.242l.006-.12c.002-.04.004-.081.008-.122 0-.08-.008-.16-.015-.241a1.405 1.405 0 00-.044-.242c-.012-.066-.029-.128-.047-.192l-.011-.043a9.595 9.595 0 00-.033-.117l-.033-.117-.066-.242c-.022-.08-.037-.168-.052-.256a3.133 3.133 0 01-.027-.253l-.002-.018c0-.096 0-.19.007-.286.004-.055.01-.108.015-.161.006-.053.011-.107.015-.161a24.22 24.22 0 00.044-.316c.014-.102.036-.205.058-.307.022-.103.044-.198.066-.293.022-.096.037-.19.044-.279.008-.088.015-.176.008-.256a.822.822 0 00-.03-.235 1.78 1.78 0 00-.058-.212 1.75 1.75 0 00-.213-.381 2.761 2.761 0 00-.227-.271 3.513 3.513 0 00-.25-.227l-.055-.043a1.965 1.965 0 00-.2-.14 2.764 2.764 0 00-.25-.132 1.041 1.041 0 00-.242-.081.91.91 0 00-.241-.03 1.03 1.03 0 00-.498.14 2.21 2.21 0 00-.242.154 2.883 2.883 0 00-.257.19c-.088.066-.176.14-.264.22-.087.08-.168.169-.241.256a1.286 1.286 0 00-.293.681c-.008.067-.015.14-.008.213 0 .074.015.154.03.235.014.08.036.168.058.256.022.088.044.184.066.279.022.095.044.19.059.293.014.102.022.198.03.3v.3c-.022.093-.03.191-.037.283v.01zm1.876.16c0 .294-.212.528-.469.528-.256 0-.469-.234-.469-.527 0-.293.213-.528.47-.528.256 0 .468.242.468.528zm-.044-1.032c.52 0 .945-.425.945-.945a.947.947 0 00-.945-.946.947.947 0 00-.945.946c0 .52.425.945.945.945zM30.216 38.825c-2.359 1.642-4.696 0-4.696 0-1.136-.527-2.462-.19-2.99.594-.527.777-.886 1.685 0 3.664.88 1.985 2.528 2.593 4.338 1.729 1.817-.865 3.524-.19 3.524-.19s5.561 1.098 4.873-3.371c-.608-3.935-4.33-2.828-5.049-2.425zm-6.382.975c-.835.733.235 3.004.235 3.004 4.674-1.706 7.277-.864 8.56-.449.155.05.29.094.408.127.498-.506.389-2.125.315-2.535-.857-.821-2.11-.455-2.872-.059-2.526 1.636-4.18.648-4.986.168-.096-.058-.18-.108-.253-.146-.674-.352-1.07-.352-1.407-.11z" fill="#0F3E7D"></path></g><defs><clipPath id="overwhelmed_svg__clip0"><path fill="#fff" d="M0 0h56v56H0z"></path></clipPath></defs></svg>