<svg viewBox="0 0 95 95" fill="none" xmlns="http://www.w3.org/2000/svg"><path d="M61.25 91.87l-32.39-3.42c-12.26 0-18.55-9.89-22.28-21.91L.56 34.04C-2.59 16.43 8.14 7.71 20.4 7.71l47.49 3.81c12.25 0 22.28 9.86 22.28 21.9l-6.64 36.54c-3.11 12-8.77 21.58-22.28 21.91z" fill="#FFEB9E"></path><path d="M55.13 70.78l12.29 4.83v-8.6l.83-.42c8.03-4.02 14.41-10.35 17.96-17.82 3.35-7.03 3.93-14.73 1.66-21.66C85.2 19.04 79.01 12.6 70.41 9c-8.75-3.67-18.91-3.98-28.6-.87-9.69 3.11-17.71 9.25-22.6 17.3-4.8 7.9-5.98 16.69-3.33 24.76C18.16 57.12 23.21 63 30.1 66.76c7.17 3.91 15.91 5.36 24.63 4.09l.4-.07z" fill="#FFF7D8"></path><path d="M70.42 80.01l-15.65-6.15c-9.23 1.27-18.48-.32-26.1-4.48-7.57-4.12-13.12-10.61-15.64-18.27-2.93-8.91-1.65-18.59 3.62-27.25C21.91 15.21 30.52 8.6 40.89 5.27s21.27-2.99 30.68.96 16.2 11.03 19.13 19.95c2.52 7.67 1.88 16.15-1.8 23.88-3.71 7.81-10.26 14.45-18.49 18.79l.01 11.16zm-15.29-9.23l12.29 4.83v-8.6l.83-.42c8.03-4.02 14.41-10.35 17.96-17.82 3.35-7.03 3.93-14.73 1.66-21.66C85.2 19.04 79.01 12.6 70.41 9c-8.75-3.67-18.91-3.98-28.6-.87-9.69 3.11-17.71 9.25-22.6 17.3-4.8 7.9-5.98 16.69-3.33 24.76C18.16 57.12 23.21 63 30.1 66.76c7.17 3.91 15.91 5.36 24.63 4.09l.4-.07z" fill="#FFBC05"></path><path d="M53.78 45.46c.72-.22 1.25-.64 1.58-1.27.33-.62.38-1.29.16-2l-.46-1.52c-.01-.02-.01-.05-.01-.07 0-.03.02-.05.03-.07.03-.04.07-.08.12-.13a13.81 13.81 0 003.02-1.98c.86-.74 1.58-1.63 2.12-2.62.53-.99.85-2.07.94-3.25.1-1.18-.07-2.45-.48-3.82-.56-1.83-1.52-3.33-2.88-4.5-1.36-1.17-2.94-1.95-4.75-2.34-1.81-.39-3.67-.29-5.59.3-1.48.44-2.87 1.18-4.06 2.16-1.16.95-2.11 2.12-2.81 3.44-.41.75-.48 1.46-.22 2.13.26.67.81 1.14 1.62 1.43.78.27 1.46.22 2.03-.15.54-.34 1-.79 1.35-1.33.41-.64.93-1.2 1.52-1.68.61-.49 1.31-.86 2.07-1.08 1-.31 1.96-.38 2.88-.21.88.15 1.71.53 2.39 1.11.68.57 1.16 1.32 1.44 2.25.38 1.26.42 2.35.11 3.29-.31.93-.87 1.71-1.68 2.33-.81.62-1.79 1.11-2.93 1.46-.72.22-1.25.64-1.57 1.27-.33.62-.38 1.29-.16 2l.95 3.12c.22.71.64 1.23 1.26 1.57.62.32 1.29.38 2.01.16zm3.67 8.31c.81-.25 1.36-.65 1.66-1.2.3-.56.33-1.23.09-2.02l-.21-.7c-.24-.79-.64-1.34-1.2-1.63-.56-.29-1.25-.31-2.05-.07l-.54.17c-.81.25-1.36.65-1.66 1.2-.3.56-.33 1.23-.09 2.02l.21.7c.24.79.65 1.34 1.21 1.63.56.29 1.24.31 2.05.07l.53-.17z" fill="#FFBC05"></path></svg>