<svg viewBox="0 0 95 95" fill="none" xmlns="http://www.w3.org/2000/svg"><path d="M61.5 91.36l-30.41-3.27c-11.51 0-17.42-9.45-20.92-20.92L4.52 36.14c-2.95-16.83 7.12-25.15 18.63-25.15l44.58 3.64c11.51 0 20.92 9.42 20.92 20.92l-6.23 34.89c-2.91 11.45-8.23 20.61-20.92 20.92z" fill="#FDC7AF"></path><path d="M52.41 80.08c20.18 0 36.54-16.36 36.54-36.54S72.59 7 52.41 7 15.87 23.36 15.87 43.54s16.36 36.54 36.54 36.54z" fill="#FFE6DB"></path><path d="M52.41 83.09c-21.8 0-39.54-17.74-39.54-39.54S30.6 4 52.41 4s39.54 17.74 39.54 39.54-17.74 39.55-39.54 39.55zm0-76.09C32.26 7 15.86 23.39 15.86 43.54S32.25 80.08 52.4 80.08 88.95 63.7 88.95 43.54 72.56 7 52.41 7z" fill="#F67F4A"></path><path d="M52.41 60.26c-10.14 0-16.17-7.87-16.42-8.21a1.5 1.5 0 012.4-1.8c.05.07 5.41 7.01 14.02 7.01s13.97-6.94 14.02-7.01c.5-.66 1.44-.79 2.1-.29.66.5.79 1.43.3 2.1-.25.33-6.28 8.2-16.42 8.2zM63.86 35.13c-1.66 0-3.02-1.34-3.02-3s1.32-3 2.98-3h.04c1.66 0 3 1.34 3 3s-1.34 3-3 3zM41.03 35.13c-1.66 0-3.02-1.34-3.02-3s1.32-3 2.98-3h.04c1.66 0 3 1.34 3 3s-1.34 3-3 3z" fill="#F67F4A"></path></svg>