<svg viewBox="0 0 95 95" fill="none" xmlns="http://www.w3.org/2000/svg"><path d="M12.66 23.33A20.184 20.184 0 0132.55 7.06l29.39.13c4.67.02 9.19 1.66 12.78 4.64 3.6 2.98 6.05 7.11 6.94 11.69l8.27 42.49c2.45 12.61-7.34 24.27-20.18 24.04l-45.93-.82C11.26 89 1.95 77.46 4.39 65.13l8.27-41.8z" fill="#97D7F6"></path><path fill-rule="evenodd" clip-rule="evenodd" d="M66.27 69.35l-43.58-6.12c-.85-.12-1.7-.01-2.5.26l8.07-57.41 46 6.46-7.99 56.81z" fill="#D3F1FF"></path><path fill-rule="evenodd" clip-rule="evenodd" d="M54.12 6.69L50.07 35.5c-.03.22 0 .45.1.66.09.21.25.38.44.5s.41.19.64.19c.23 0 .45-.06.64-.19l5.51-3.51 4.33 4.89c.15.17.35.29.56.36.22.06.45.06.67 0 .22-.07.41-.19.56-.36.15-.17.24-.38.27-.61l4.05-28.81" fill="#008ED3"></path><path fill-rule="evenodd" clip-rule="evenodd" d="M77.26 11.42c-.08-.3-.22-.59-.4-.83-.19-.25-.42-.46-.69-.62-.27-.16-.57-.26-.88-.31L28.05 3.02a2.331 2.331 0 00-.92.06c-.3.08-.59.22-.83.4-.25.19-.46.42-.62.69-.16.27-.26.57-.31.88L16.52 68.4c-.05 1.25.3 2.49 1.06 3.5a5.448 5.448 0 003.59 2.11l46.55 6.54 1.12-7.96 8.47-60.24c.04-.32.02-.63-.05-.93zM66.27 69.35l-43.58-6.12c-.85-.12-1.7-.01-2.5.26l8.07-57.41 46 6.46-7.99 56.81z" fill="#008ED3"></path><path fill-rule="evenodd" clip-rule="evenodd" d="M22.19 66.76a1.876 1.876 0 00-1.76 2.99c.3.4.75.66 1.24.73l43.02 6.05.52-3.72-43.02-6.05z" fill="#D3F1FF"></path></svg>