<svg viewBox="0 0 95 95" fill="none" xmlns="http://www.w3.org/2000/svg"><path d="M18.88 12.54l53.85-9.29c9.25-1.6 18.05 4.61 19.64 13.86.16.95.25 1.92.25 2.89v56.29c0 9.39-7.61 17-17 17h-.39l-53.85-1.23c-9.24-.21-16.61-7.76-16.61-17V29.29c0-4.01 1.42-7.89 4-10.95 2.58-3.07 6.16-5.12 10.11-5.8z" fill="#B2F2BF"></path><path d="M80.02 26.5c-.04.32-.11.64-.21.95-4.1 12.66-8.72 21.7-13.75 26.88-2.31 2.38-4.71 3.94-7.15 4.65-2.16.63-4.39.62-6.77-.02-.95-6.76-3-14.6-6.21-23.68l-.58-1.26-.07-.13c-.53-.91-1.23-1.7-2.08-2.33-.37-.28-.76-.52-1.17-.73.63-4.01 1.6-8.39 2.95-13.18l.22-.78c.2-.71.56-1.37 1.05-1.92.48-.55 1.1-1 1.77-1.29.62-.27 1.31-.41 1.99-.41h.16c.73.02 1.47.21 2.12.55 5.23 2.69 9 4.39 11.21 5.07 2.15.66 6.05 1.33 11.6 2l.53.06a4.972 4.972 0 014.21 3.61c.17.64.26 1.31.18 1.96z" fill="#E1FFE7"></path><path d="M49.63 33.11c1.58.48 3.26-.41 3.75-1.99.48-1.58-.41-3.26-1.99-3.75-1.58-.48-3.26.41-3.75 1.99-.49 1.59.4 3.26 1.99 3.75zM66.84 38.37c1.58.48 3.26-.41 3.75-1.99.48-1.58-.41-3.26-1.99-3.75-1.58-.48-3.26.41-3.75 1.99-.49 1.59.41 3.27 1.99 3.75z" fill="#58B76B"></path><path fill-rule="evenodd" clip-rule="evenodd" d="M49.73 43.03l12.43 3.8c-.65-3.31-2.29-5.36-4.91-6.16-2.63-.81-5.13-.02-7.52 2.36z" fill="#58B76B"></path><path d="M38.38 32.94a5.048 5.048 0 00-2.53.69l-.49.29c-6.1 3.57-10.47 5.85-13 6.77-2.6.95-7.6 2.04-14.86 3.27-.72.12-1.42.41-2.02.82-.6.42-1.12.97-1.48 1.61a5.021 5.021 0 00-.35 4.26l.33.88c5.38 14.11 11.19 24.16 17.28 29.85 2.83 2.65 5.76 4.38 8.69 5.12 2.85.72 5.86.54 8.94-.52 3.15-1.09 5.53-2.79 7.28-5.18 1.78-2.43 2.91-5.65 3.35-9.57.95-8.41-1.2-20.14-6.4-34.88l-.46-.99c-.33-.54-.75-1.02-1.26-1.4-.53-.4-1.12-.68-1.76-.85-.41-.11-.83-.17-1.26-.17z" fill="#E1FFE7"></path><path d="M20.66 63.34a3.5 3.5 0 002.09-4.49 3.5 3.5 0 00-4.49-2.09 3.5 3.5 0 00-2.09 4.49 3.5 3.5 0 004.49 2.09zM38.66 57.34a3.5 3.5 0 002.09-4.49 3.5 3.5 0 00-4.49-2.09 3.5 3.5 0 00-2.09 4.49 3.5 3.5 0 004.49 2.09z" fill="#58B76B"></path><path fill-rule="evenodd" clip-rule="evenodd" d="M24.56 68.27l14.1-5.13c.84 4.6-.58 7.59-4.26 8.95-3.7 1.37-6.97.1-9.84-3.82z" fill="#58B76B"></path><path d="M82.76 23.75a7.803 7.803 0 00-1.42-2.78 7.831 7.831 0 00-2.37-2.03c-.92-.52-1.92-.84-2.97-.97l-.53-.06c-5.38-.65-9.11-1.29-11.09-1.89-2.04-.62-5.65-2.26-10.72-4.87a8.05 8.05 0 00-3.39-.88c-1.18-.04-2.37.19-3.44.65A8.044 8.044 0 0044 12.98c-.78.88-1.36 1.95-1.68 3.08l-.22.78c-1.35 4.79-2.32 9.15-2.97 13.14-.61-.06-1.23-.05-1.85.03-1.05.15-2.04.49-2.95 1.03l-.49.29c-5.94 3.48-10.15 5.68-12.51 6.53-2.43.88-7.25 1.94-14.33 3.13-1.16.19-2.28.65-3.24 1.32-.96.67-1.78 1.56-2.37 2.58a7.912 7.912 0 00-1.04 3.34 7.9 7.9 0 00.49 3.47l.34.89C6.81 67.34 12.7 77.47 19.21 83.56c3.21 3 6.58 4.97 10 5.84 1.39.35 2.81.53 4.25.53 2.1 0 4.25-.38 6.41-1.13 3.69-1.28 6.62-3.38 8.71-6.24 2.09-2.86 3.41-6.56 3.91-11 .32-2.85.32-6 .01-9.45 1.06.21 2.11.33 3.14.33 1.4 0 2.77-.19 4.1-.58 2.95-.86 5.8-2.69 8.47-5.45 5.42-5.59 10.15-14.76 14.45-28.04.16-.49.27-1 .33-1.52.13-1.04.05-2.09-.23-3.1zM49.52 71.22c-.44 3.92-1.57 7.13-3.35 9.57-1.75 2.39-4.13 4.09-7.28 5.18-3.08 1.07-6.09 1.25-8.94.52-2.93-.74-5.86-2.47-8.69-5.12-6.08-5.69-11.9-15.74-17.28-29.85l-.33-.88c-.26-.69-.36-1.44-.3-2.17s.28-1.45.65-2.08c.37-.63.88-1.19 1.48-1.61.6-.42 1.3-.7 2.02-.82 7.26-1.22 12.26-2.32 14.86-3.27 2.53-.92 6.9-3.2 13-6.77l.49-.29a5.048 5.048 0 012.53-.69c.42 0 .84.05 1.26.16.64.16 1.23.45 1.76.85.51.39.93.86 1.26 1.4l.46.99c5.2 14.74 7.35 26.47 6.4 34.88zm30.5-44.72c-.04.32-.11.64-.21.95-4.1 12.66-8.72 21.7-13.75 26.88-2.31 2.38-4.71 3.94-7.15 4.65-2.16.63-4.39.62-6.77-.02-.95-6.76-3-14.6-6.21-23.68l-.58-1.26-.07-.13c-.53-.91-1.23-1.7-2.08-2.33-.37-.28-.76-.52-1.17-.73.63-4.01 1.6-8.39 2.95-13.18l.22-.78c.2-.71.56-1.37 1.05-1.92.48-.55 1.1-1 1.77-1.29.62-.27 1.31-.41 1.99-.41h.16c.73.02 1.47.21 2.12.55 5.23 2.69 9 4.39 11.21 5.07 2.15.66 6.05 1.33 11.6 2l.53.06a4.972 4.972 0 014.21 3.61c.17.64.26 1.31.18 1.96z" fill="#58B76B"></path></svg>