<svg viewBox="0 0 95 95" fill="none" xmlns="http://www.w3.org/2000/svg"><path d="M22.39 8.18l49.55 7.44c3.6.54 6.92 2.26 9.43 4.89 2.52 2.63 4.09 6.02 4.47 9.64l4.69 44.71c.95 9.02-5.6 17.1-14.62 18.05-1.29.13-2.58.12-3.86-.05l-53.18-7.02A16.42 16.42 0 018.8 80.53c-2.62-2.92-4.1-6.67-4.2-10.59L3.53 24.81C3.32 15.74 10.5 8.22 19.56 8c.95-.02 1.89.04 2.83.18z" fill="#DEAFE1"></path><path d="M19.21 33.83c4.96.59 9.35 1.7 13.16 3.31a36.14 36.14 0 00-2.24 12.56c0 1.35.08 2.68.22 3.99.07.61.15 1.23.25 1.83v.01c.1.61.21 1.21.34 1.81 1.55 7.2 5.32 13.92 11.19 20.16-10.06-2.06-17.35-6.59-21.69-13.53-1.87-2.99-3.09-6.27-3.68-9.83-.06-.35-.1-.7-.14-1.05l-.06-.47c-.05-.48-.09-.97-.13-1.47-.34-5.23.57-11.02 2.78-17.32z" fill="#F5D4F4"></path><path d="M48 20.19c10.04 8.99 14.97 18.8 14.97 29.5 0 1.87-.16 3.72-.46 5.54-.25 1.47-.58 2.93-1.03 4.36-1.76 5.67-5.07 11.07-9.97 16.21A63.34 63.34 0 0148 79.2c-.69-.61-1.34-1.23-1.98-1.85l-.05-.05c-.62-.61-1.22-1.22-1.8-1.84-4.65-4.96-7.83-10.16-9.56-15.61-.47-1.47-.83-2.95-1.09-4.45a33.62 33.62 0 01-.49-5.69C33.02 38.99 37.96 29.18 48 20.19z" fill="#F5D4F4"></path><path d="M78.68 33.83c2.22 6.37 3.14 12.21 2.76 17.5-.03.49-.08.98-.13 1.46l-.03.22c-.05.44-.11.88-.19 1.31-.6 3.5-1.81 6.72-3.65 9.66-4.66 7.46-12.72 12.14-23.98 13.96 7.13-7.43 11.26-15.54 12.2-24.34v-.01a36.29 36.29 0 00-1.77-15.7c4.17-2.03 9.1-3.39 14.79-4.06z" fill="#F5D4F4"></path><path d="M75.69 76.87c-5.04 2.91-10.84 3.94-17.3 3.11 9.85-2.41 17.11-7.24 21.6-14.42 2.06-3.3 3.41-6.9 4.08-10.8 1.71.32 3.46.76 5.26 1.33-2.13 9.8-6.71 16.79-13.64 20.78zM20.07 76.87c-6.92-4-11.5-10.98-13.62-20.77 2.52-.81 4.96-1.35 7.31-1.67.64 4.02 2.02 7.74 4.14 11.13 4.38 7.01 11.39 11.78 20.88 14.25-7.12 1.16-13.29.19-18.71-2.94z" fill="#F5D4F4"></path><path d="M81.1 31.69l-.4-1.09-1.16.12c-7.04.71-13.07 2.38-18.05 4.99.4.93.77 1.88 1.09 2.83 4.43-2.38 9.81-3.96 16.1-4.7 4.19 11.99 3.77 22.13-1.24 30.15-4.98 7.97-13.85 12.77-26.35 14.29-.98.96-2 1.92-3.1 2.86-1.21-1.04-2.34-2.1-3.41-3.17-11.34-1.8-19.46-6.49-24.14-13.98-5.01-8.02-5.42-18.16-1.23-30.14 5.55.66 10.39 1.96 14.49 3.89.34-.94.72-1.86 1.14-2.78-4.66-2.17-10.17-3.59-16.49-4.22l-1.16-.12-.4 1.09c-4.95 13.37-4.57 24.76 1.11 33.85 5.8 9.29 16.2 14.66 30.91 15.94l.13.01.61-.06C64 80.1 74.24 74.75 79.99 65.56c5.68-9.08 6.05-20.48 1.11-33.87z" fill="#B300C9"></path><path d="M91.55 53.68c-2.44-.85-4.81-1.48-7.12-1.9.47-6.07-.63-12.78-3.33-20.09l-.4-1.09-1.16.12c-6.44.65-12.02 2.11-16.74 4.35-2.78-6.38-7.42-12.35-13.85-17.9l-.95-.78-.95.78c-6.2 5.35-10.74 11.08-13.55 17.19-4.37-1.84-9.42-3.07-15.16-3.64l-1.16-.12-.4 1.09c-2.65 7.17-3.76 13.77-3.35 19.75-2.95.39-6.02 1.13-9.21 2.24L3 54.11l.24 1.27c2.16 11.36 7.32 19.47 15.33 24.09 4.43 2.56 9.27 3.83 14.61 3.83 3.95 0 8.19-.71 12.73-2.1.38.34.75.68 1.14 1.02l.95.82.95-.82c.31-.26.59-.53.89-.8l.76-.09c10.12 3.11 19.07 2.48 26.6-1.87 8.01-4.62 13.17-12.73 15.33-24.09l.24-1.27-1.22-.42zM78.68 33.83c2.22 6.37 3.14 12.21 2.76 17.5-.03.49-.08.98-.13 1.46l-.03.22c-.05.44-.11.88-.19 1.31-.6 3.5-1.81 6.72-3.65 9.66-4.66 7.46-12.72 12.14-23.98 13.96 7.13-7.43 11.26-15.54 12.2-24.34v-.01a36.29 36.29 0 00-1.77-15.7c4.17-2.03 9.1-3.39 14.79-4.06zM48 20.19c10.04 8.99 14.97 18.8 14.97 29.5 0 1.87-.16 3.72-.46 5.54-.25 1.47-.58 2.93-1.03 4.36-1.76 5.67-5.07 11.07-9.97 16.21A63.34 63.34 0 0148 79.2c-.69-.61-1.34-1.23-1.98-1.85l-.05-.05c-.62-.61-1.22-1.22-1.8-1.84-4.65-4.96-7.83-10.16-9.56-15.61-.47-1.47-.83-2.95-1.09-4.45a33.62 33.62 0 01-.49-5.69C33.02 38.99 37.96 29.18 48 20.19zM19.21 33.83c4.96.59 9.35 1.7 13.16 3.31a36.14 36.14 0 00-2.24 12.56c0 1.35.08 2.68.22 3.99.07.61.15 1.23.25 1.83v.01c.1.61.21 1.21.34 1.81 1.55 7.2 5.32 13.92 11.19 20.16-10.06-2.06-17.35-6.59-21.69-13.53-1.87-2.99-3.09-6.27-3.68-9.83-.06-.35-.1-.7-.14-1.05l-.06-.47c-.05-.48-.09-.97-.13-1.47-.34-5.23.57-11.02 2.78-17.32zm.86 43.04c-6.92-4-11.5-10.98-13.62-20.77 2.52-.81 4.96-1.35 7.31-1.67.64 4.02 2.02 7.74 4.14 11.13 4.38 7.01 11.39 11.78 20.88 14.25-7.12 1.16-13.29.19-18.71-2.94zm55.62 0c-5.04 2.91-10.84 3.94-17.3 3.11 9.85-2.41 17.11-7.24 21.6-14.42 2.06-3.3 3.41-6.9 4.08-10.8 1.71.32 3.46.76 5.26 1.33-2.13 9.8-6.71 16.79-13.64 20.78z" fill="#B300C9"></path></svg>