<svg viewBox="0 0 95 95" fill="none" xmlns="http://www.w3.org/2000/svg"><path d="M24.81 6.16l53.53 7.14c9.95 1.33 16.94 10.47 15.61 20.42-.1.74-.24 1.47-.43 2.18L83.45 74.5a18.157 18.157 0 01-17.58 13.58H20.44C10.4 88.1 2.26 79.96 2.26 69.92c0-.26.01-.52.02-.78l1.97-45.75c.43-10.03 8.91-17.8 18.94-17.37.54.02 1.08.07 1.62.14z" fill="#D2DAEE"></path><path d="M82.55 36.03a8.459 8.459 0 00-2.77-11.5 8.37 8.37 0 00-3.08-1.17c-1.1-.19-2.21-.15-3.29.1a8.42 8.42 0 00-5.35 3.9l-10.82-6.24-.44-12.21-14.17.67v1.43c0 1.14-.22 2.26-.66 3.31-.44 1.05-1.07 2-1.88 2.81-.81.81-1.75 1.44-2.81 1.88a8.49 8.49 0 01-3.3.66h-.03a8.49 8.49 0 01-3.3-.66c-1.06-.44-2-1.07-2.81-1.88-1.46-1.46-2.1-3.51-2.09-6.65l.01-1.57-15.18.68-.3 14.36c-2.21.05-4.33.95-5.9 2.57A8.373 8.373 0 002 32.4a8.445 8.445 0 002.47 5.97 8.404 8.404 0 006.14 2.47l.53 14.97h14.08l.2-1.26a8.566 8.566 0 012.43-4.75c.8-.81 1.75-1.44 2.81-1.88a8.49 8.49 0 013.3-.66h.03c1.14 0 2.25.22 3.3.66.07.03.14.07.22.1l-6.4 11.37 12.02 7.86a8.466 8.466 0 00-.95 6.36 8.395 8.395 0 003.72 5.14c.94.59 1.98.99 3.08 1.17 1.1.18 2.21.15 3.3-.1a8.441 8.441 0 005.35-3.89l13.04 7.52 6.94-12.38-1.21-.76c-.97-.61-1.8-1.38-2.46-2.31a8.76 8.76 0 01-1.39-3.08 8.694 8.694 0 01-.11-3.37c.19-1.13.59-2.19 1.2-3.16.6-.97 1.38-1.8 2.31-2.46a8.76 8.76 0 013.08-1.39c1.59-.37 3.08.52 5.57 2.11l2.26 1.43 1.29-2.73 6.44-11.45-12.04-7.87zm-48.56 8.23h-.04c-1.53 0-3.03.3-4.45.88-1.42.59-2.7 1.44-3.78 2.53a11.57 11.57 0 00-3 5.14h-8.7l-.55-15.51-1.74.4c-1.91.43-3.78-.1-5.13-1.45-.51-.51-.91-1.1-1.18-1.77-.28-.66-.42-1.36-.42-2.08 0-1.42.54-2.77 1.54-3.79 1.29-1.33 3.09-1.9 4.95-1.56l1.73.31.31-14.89 9.28-.41c.22 3.14 1.16 5.45 2.92 7.21 1.09 1.09 2.36 1.94 3.78 2.53 1.42.59 2.91.88 4.44.88h.04c1.53 0 3.03-.3 4.45-.88 1.42-.59 2.7-1.44 3.78-2.53a11.624 11.624 0 003.33-6.81l8.37-.4.32 9.17-6.62 10.59.96.84a8.692 8.692 0 012.86 7.95 8.558 8.558 0 01-1.2 3.16c-.6.97-1.38 1.8-2.31 2.46a8.76 8.76 0 01-3.08 1.39c-.83.19-1.67.25-2.5.2-.04-.04-.08-.09-.12-.13a11.52 11.52 0 00-3.78-2.53c-1.43-.6-2.93-.9-4.46-.9zm51.61 9.47c-2.33-1.48-4.58-2.73-7.25-2.12-1.5.34-2.9.97-4.15 1.87-1.25.89-2.3 2.01-3.12 3.31-.82 1.3-1.36 2.73-1.61 4.25s-.21 3.05.14 4.54c.34 1.5.97 2.9 1.87 4.15.61.86 1.33 1.62 2.14 2.28l-4.1 7.31-13.38-7.72-.6 1.7c-.65 1.85-2.09 3.15-3.95 3.58-.7.16-1.42.18-2.12.07-.71-.12-1.38-.37-1.99-.76a5.389 5.389 0 01-2.4-3.31c-.44-1.8.03-3.63 1.3-5.02l1.18-1.3-12.47-8.16 4.53-8.05c1.91.56 3.92.62 5.89.17 1.5-.34 2.9-.97 4.15-1.87 1.25-.89 2.3-2.01 3.11-3.31a11.574 11.574 0 001.48-8.79c-.46-1.99-1.41-3.79-2.77-5.27l4.61-7.37 13.44 7.75.6-1.7c.65-1.85 2.09-3.15 3.95-3.58.7-.16 1.42-.18 2.12-.07.71.12 1.38.37 1.99.76 1.21.75 2.06 1.93 2.4 3.31.44 1.8-.03 3.63-1.3 5.02l-1.18 1.3 12.47 8.16-4.98 8.87z" fill="#9CA8C5"></path><path d="M56.15 71.62l13.38 7.72 4.1-7.31c-.81-.66-1.53-1.42-2.14-2.28-.89-1.25-1.52-2.65-1.87-4.15-.35-1.5-.4-3.03-.14-4.54.25-1.52.8-2.95 1.61-4.25.81-1.3 1.86-2.42 3.12-3.31 1.25-.89 2.65-1.52 4.15-1.87 2.66-.61 4.92.64 7.25 2.12l4.98-8.86-12.47-8.16 1.18-1.3c1.27-1.39 1.74-3.22 1.3-5.02a5.389 5.389 0 00-2.4-3.31c-.61-.38-1.28-.64-1.99-.76s-1.42-.1-2.12.07c-1.86.43-3.3 1.73-3.95 3.58l-.6 1.7-13.44-7.75-4.61 7.37c1.37 1.48 2.31 3.28 2.77 5.27.35 1.5.4 3.02.14 4.54a11.4 11.4 0 01-1.62 4.25c-.81 1.3-1.86 2.42-3.11 3.31-1.25.89-2.65 1.52-4.15 1.87-1.96.46-3.98.4-5.89-.17l-4.53 8.05 12.47 8.16-1.18 1.3c-1.27 1.39-1.74 3.23-1.3 5.02a5.389 5.389 0 002.4 3.31c.61.38 1.28.64 1.99.76s1.42.1 2.12-.07c1.86-.43 3.3-1.74 3.95-3.58l.6-1.71z" fill="#fff"></path><path d="M33.99 44.26h-.04c-1.53 0-3.03.3-4.45.88-1.42.59-2.7 1.44-3.78 2.53a11.57 11.57 0 00-3 5.14h-8.7l-.55-15.51-1.74.4c-1.91.43-3.78-.1-5.13-1.45-.51-.51-.91-1.1-1.18-1.77-.28-.66-.42-1.36-.42-2.08 0-1.42.54-2.77 1.54-3.79 1.29-1.33 3.09-1.9 4.95-1.56l1.73.31.31-14.89 9.28-.41c.22 3.14 1.16 5.45 2.92 7.21 1.09 1.09 2.36 1.94 3.78 2.53 1.42.59 2.91.88 4.44.88h.04c1.53 0 3.03-.3 4.45-.88 1.42-.59 2.7-1.44 3.78-2.53a11.624 11.624 0 003.33-6.81l8.37-.4.32 9.17-6.62 10.59.96.84a8.692 8.692 0 012.86 7.95 8.558 8.558 0 01-1.2 3.16c-.6.97-1.38 1.8-2.31 2.46a8.76 8.76 0 01-3.08 1.39c-.83.19-1.67.25-2.5.2-.04-.04-.08-.09-.12-.13a11.52 11.52 0 00-3.78-2.53c-1.43-.6-2.93-.9-4.46-.9z" fill="#fff"></path></svg>