<svg width="128" height="48" viewBox="0 0 128 48" fill="none" xmlns="http://www.w3.org/2000/svg" class="mr-2 md:mr-20"><path d="M104.082 30.0942C104.082 30.9716 104.012 31.879 103.871 32.7942C103.746 33.5957 103.548 34.3841 103.278 35.1491L103.438 38.1151C103.465 38.575 103.613 38.9673 103.881 39.289C104.15 39.6112 104.528 39.7741 105.015 39.7741C105.654 39.7741 106.096 39.607 106.344 39.2686C106.591 38.932 106.725 38.5403 106.746 38.0947C106.746 35.8966 106.998 33.6087 107.504 31.2357C108.009 28.8622 108.505 27.6751 108.992 27.6751C109.411 27.6751 109.621 28.2944 109.621 29.5306C109.621 30.0588 109.584 30.7033 109.507 31.4585C109.246 33.9806 109.112 35.8176 109.105 36.9717C109.105 37.5407 109.303 37.9971 109.704 38.3379C110.102 38.6786 110.594 38.8475 111.178 38.8475C111.756 38.8475 112.255 38.6739 112.678 38.3277C113.102 37.9803 113.326 37.5251 113.353 36.9609C113.518 33.7866 113.797 31.446 114.193 29.9373C114.587 28.4286 114.95 27.6751 115.281 27.6751C115.762 27.6751 116.001 28.4555 116.003 30.0139C116.003 30.5769 115.972 31.2375 115.91 31.9928C115.677 34.8784 115.555 36.8064 115.549 37.7743C115.549 38.3438 115.749 38.8002 116.152 39.141C116.554 39.4812 117.044 39.6501 117.619 39.6501C118.197 39.6501 118.697 39.4794 119.12 39.135C119.543 38.7918 119.77 38.3379 119.805 37.7743C119.805 37.5886 119.81 37.382 119.816 37.155C119.842 36.5027 119.861 35.7187 119.867 34.8066C119.867 34.125 119.851 33.4093 119.816 32.6516C119.781 31.7908 119.702 30.9324 119.578 30.0798C119.465 29.2739 119.272 28.4813 119 27.714C118.752 27.0088 118.355 26.3654 117.836 25.8274C117.32 25.2997 116.62 25.035 115.733 25.035C114.346 25.035 113.359 25.8424 112.775 27.4565C112.17 25.8424 111.101 25.035 109.57 25.035C108.333 25.035 107.413 25.7118 106.809 27.0666C106.685 26.2964 106.494 25.7723 106.241 25.4896C105.966 25.1734 105.533 25.0146 104.942 25.0146C104.364 25.0146 103.869 25.1734 103.454 25.4896C103.39 25.5387 103.34 25.5944 103.287 25.6483C103.514 26.2778 103.694 26.9157 103.82 27.5577C103.993 28.4489 104.082 29.3036 104.082 30.0942Z" fill="url(#1-paint0_linear)"></path><path d="M23.096 25.8324C22.5803 25.3035 21.8802 25.0394 20.9932 25.0394C19.606 25.0394 18.619 25.8468 18.035 27.4609C17.4301 25.8468 16.361 25.0394 14.8296 25.0394C13.5934 25.0394 12.6734 25.7162 12.0685 27.0704C11.9445 26.3008 11.7547 25.7767 11.5007 25.494C11.2258 25.1778 10.7928 25.019 10.2022 25.019C9.62427 25.019 9.12895 25.1778 8.71389 25.494C8.29704 25.8096 8.091 26.2349 8.091 26.7715L8.69952 38.117C8.72647 38.5776 8.875 38.9693 9.14332 39.2916C9.41165 39.6138 9.78957 39.7767 10.2765 39.7767C10.9162 39.7767 11.3582 39.609 11.6061 39.2712C11.8535 38.9346 11.9876 38.5423 12.008 38.0967C12.008 35.8986 12.2596 33.6113 12.7657 31.2377C13.2712 28.8642 13.7671 27.6777 14.254 27.6777C14.6732 27.6777 14.8829 28.2964 14.8829 29.5332C14.8829 30.0614 14.8463 30.7053 14.7697 31.4605C14.5079 33.9832 14.3738 35.8202 14.3672 36.9737C14.3672 37.5433 14.5654 37.9997 14.9661 38.3399C15.3644 38.6806 15.8555 38.8501 16.4395 38.8501C17.0175 38.8501 17.5176 38.6764 17.9404 38.3297C18.3633 37.9829 18.5885 37.5271 18.6154 36.9635C18.7801 33.7892 19.0586 31.4486 19.4551 29.9399C19.8492 28.4305 20.2128 27.6777 20.5428 27.6777C21.0237 27.6777 21.2633 28.4575 21.2651 30.0159C21.2651 30.5789 21.2345 31.2401 21.1722 31.9954C20.9387 34.881 20.8177 36.8084 20.8111 37.7769C20.8111 38.3458 21.0117 38.8022 21.4142 39.143C21.8167 39.4838 22.3054 39.6527 22.8816 39.6527C23.4572 39.6527 23.9591 39.4814 24.3819 39.137C24.8054 38.7944 25.0324 38.3405 25.0671 37.7769C25.0671 37.5912 25.0713 37.3846 25.0773 37.1576C25.0958 36.7012 25.1108 36.1753 25.1192 35.5908C24.6484 34.2492 24.4065 32.7261 24.4065 31.0605C24.4065 30.2741 24.4646 29.5002 24.57 28.7402C24.4831 28.3958 24.3804 28.0557 24.2621 27.7208C24.0139 27.0148 23.6161 26.3706 23.096 25.8324Z" fill="url(#1-paint1_linear)"></path><path d="M38.758 29.0624C38.758 27.7687 38.8778 26.4966 39.1084 25.2646C39.1066 25.2586 39.1048 25.2526 39.1006 25.246C38.7527 24.4341 38.2973 23.6726 37.7464 22.982C37.193 22.2843 36.4995 21.7039 35.67 21.2397C34.8404 20.7756 33.8785 20.542 32.7891 20.542C31.484 20.542 30.3514 20.866 29.3854 21.5141C28.4321 22.1507 27.6314 22.9903 27.0406 23.9727C26.4416 24.9633 25.9942 26.0677 25.6948 27.2812C25.581 27.7435 25.4947 28.2161 25.424 28.6928C25.3073 29.4766 25.248 30.2679 25.2468 31.0604C25.2468 32.6991 25.4863 34.1647 25.9607 35.4566C25.9649 35.4667 25.9667 35.4775 25.9715 35.4877C26.4542 36.7874 27.2448 37.8385 28.3432 38.6435C29.4411 39.446 30.8528 39.8491 32.5759 39.8491C33.7899 39.8491 34.8446 39.6299 35.7382 39.1927C36.6318 38.7555 37.3583 38.1871 37.9219 37.4917C38.4777 36.8064 38.9227 36.0382 39.2408 35.2152C39.3522 34.9259 39.4492 34.6312 39.5378 34.336C39.0222 32.7608 38.758 30.9921 38.758 29.0624ZM35.2219 30.9119C35.1488 31.557 35.0163 32.1939 34.8261 32.8147C34.638 33.4214 34.3948 33.9478 34.0954 34.3899C33.7959 34.8313 33.4659 35.1613 33.1047 35.3805C32.743 35.5991 32.3117 35.7087 31.8122 35.7087C31.3532 35.7139 30.9106 35.5381 30.5802 35.2194C30.2317 34.893 29.9484 34.3318 29.7298 33.5304C29.5111 32.732 29.4015 31.7516 29.4015 30.5896C29.4015 29.723 29.5111 28.8707 29.7298 28.0304C29.9484 27.1901 30.2436 26.4492 30.6132 25.8072C30.9845 25.1633 31.3606 24.689 31.7446 24.3817C32.1279 24.0739 32.4771 23.9188 32.7885 23.9188C33.2077 23.9188 33.5731 24.0487 33.8803 24.3069C34.1882 24.5668 34.4583 24.9609 34.6919 25.4916C34.9231 26.0246 35.0902 26.6104 35.1872 27.2542C35.286 27.8981 35.3334 28.4904 35.3334 29.0354C35.3333 29.6626 35.2961 30.2891 35.2219 30.9119Z" fill="url(#1-paint2_linear)"></path><path d="M76.1642 28.5547C76.1642 29.6118 76.2259 30.5653 76.3499 31.4158C76.2259 30.5629 76.1642 29.6094 76.1642 28.5547Z" fill="url(#1-paint3_linear)"></path><path d="M82.3105 34.9241C82.5501 34.6827 82.7788 34.4018 82.9975 34.0796C82.7973 34.3833 82.5671 34.6662 82.3105 34.9241Z" fill="url(#1-paint4_linear)"></path><path d="M102.987 27.723C102.946 27.5091 102.898 27.2964 102.844 27.0852C102.705 26.5471 102.53 26.0188 102.321 25.504C102.286 25.4171 102.255 25.3303 102.218 25.244C101.87 24.4321 101.415 23.6707 100.864 22.9801C100.311 22.2817 99.6172 21.702 98.7877 21.2372C97.9576 20.773 96.9957 20.54 95.9063 20.54C94.6018 20.54 93.4686 20.8635 92.5025 21.5121C91.6322 22.0974 90.8894 22.8529 90.3188 23.7329C90.4015 24.0486 90.4775 24.3666 90.5416 24.6846C90.7543 25.7681 90.8615 26.8043 90.8615 27.7661C90.8615 28.837 90.7752 29.9456 90.6039 31.0603C90.4305 32.1915 90.1356 33.3008 89.7241 34.3687C89.5594 34.7982 89.3587 35.2132 89.1401 35.6193C89.6271 36.8561 90.3973 37.8629 91.4562 38.6391C92.554 39.4417 93.9657 39.8448 95.6894 39.8448C96.9029 39.8448 97.9576 39.6256 98.8518 39.1883C99.7454 38.7511 100.472 38.1827 101.035 37.4874C101.591 36.802 102.036 36.0339 102.354 35.2108C102.377 35.1492 102.397 35.0869 102.42 35.0252C102.702 34.2605 102.907 33.4693 103.031 32.6636C103.06 32.4719 103.084 32.2803 103.107 32.088C103.19 31.4112 103.231 30.7464 103.231 30.09C103.237 29.3533 103.155 28.5627 102.987 27.7224V27.723ZM98.3397 30.9117C98.2664 31.5568 98.1337 32.1938 97.9432 32.8145C97.7552 33.4212 97.512 33.9477 97.2125 34.3897C96.9131 34.8311 96.583 35.1611 96.2219 35.3803C95.8607 35.5989 95.4295 35.7086 94.93 35.7086C94.4568 35.7086 94.0466 35.545 93.6974 35.2192C93.3488 34.8928 93.0661 34.3316 92.8469 33.5302C92.6283 32.7319 92.5193 31.7514 92.5193 30.5895C92.5193 29.7228 92.6283 28.8706 92.8469 28.0303C93.0661 27.19 93.3614 26.4491 93.7303 25.807C94.1017 25.1632 94.4778 24.6888 94.8617 24.3816C95.245 24.0737 95.5942 23.9186 95.9063 23.9186C96.3255 23.9186 96.6909 24.0486 96.9981 24.3067C97.3054 24.5666 97.5761 24.9607 97.8091 25.4914C98.0403 26.0244 98.2074 26.6102 98.3044 27.2541C98.4038 27.8979 98.4511 28.4902 98.4511 29.0353C98.4511 29.6624 98.4139 30.289 98.3397 30.9117Z" fill="url(#1-paint5_linear)"></path><path d="M89.7163 24.852L89.7079 24.8101C89.5001 23.7772 89.1853 22.7687 88.7688 21.801C88.3406 20.802 87.7804 19.8649 87.1031 19.0148C86.4222 18.1583 85.5699 17.442 84.5481 16.8706C83.5263 16.2987 82.3434 16.0142 81.0018 16.0142C79.3961 16.0142 78.0012 16.4118 76.8141 17.209C75.6405 17.9921 74.655 19.0255 73.9285 20.2348C73.1918 21.4542 72.6408 22.8126 72.2712 24.307C71.8987 25.8288 71.7129 27.3903 71.7178 28.957C71.7178 30.7179 71.9406 32.3153 72.3868 33.7497C72.4545 33.9725 72.5294 34.1917 72.6096 34.4061C72.9408 35.3085 73.4239 36.1475 74.0381 36.8869C74.4751 37.4137 74.9756 37.8844 75.5282 38.2884C76.88 39.2772 78.6157 39.7725 80.7377 39.7725C82.232 39.7725 83.5305 39.5042 84.6284 38.9658C85.7262 38.4267 86.624 37.729 87.3158 36.8707C87.9066 36.1379 88.3954 35.3284 88.7688 34.4642C88.8263 34.3319 88.8886 34.2019 88.9401 34.0677C89.3308 33.0568 89.6097 32.0063 89.772 30.9347C89.9367 29.8566 90.0193 28.8025 90.0193 27.7682C90.0217 26.8578 89.9205 25.8839 89.7163 24.8514V24.852ZM84.6367 29.0205C84.5311 29.959 84.3382 30.8855 84.0606 31.7882C83.8739 32.4082 83.6222 33.0066 83.3095 33.5736C83.2101 33.7491 83.1071 33.9186 82.9981 34.0797C82.7953 34.3815 82.5651 34.664 82.3105 34.9236C82.0838 35.1529 81.8302 35.354 81.5552 35.5225C81.0282 35.84 80.4011 35.9987 79.6728 35.9987C79.1565 35.9987 78.6906 35.8645 78.2755 35.5986C78.0579 35.4593 77.8617 35.289 77.6933 35.0931C77.2699 34.602 76.9195 33.8485 76.6404 32.8309C76.5145 32.364 76.4173 31.8897 76.3493 31.4109C76.226 30.5604 76.1637 29.6069 76.1637 28.5498C76.1623 27.2931 76.3234 26.0416 76.6428 24.8262C76.7231 24.5208 76.8075 24.2237 76.9027 23.9368C77.0908 23.3612 77.3034 22.8228 77.5466 22.3185C77.6682 22.067 77.7964 21.8232 77.9305 21.5902C78.4696 20.6553 79.0182 19.9611 79.5776 19.5137C80.137 19.0657 80.6425 18.8411 81.0989 18.8411C81.2516 18.8411 81.3983 18.8531 81.5421 18.8758C81.9656 18.9444 82.3621 19.128 82.6884 19.4065C83.1358 19.7838 83.5305 20.3582 83.8683 21.1314C84.0378 21.5177 84.1828 21.9268 84.3019 22.3532C84.4217 22.7809 84.5187 23.2289 84.5894 23.6972C84.6242 23.9308 84.6553 24.162 84.6823 24.3866C84.7362 24.837 84.7709 25.27 84.7895 25.6833C84.7973 25.8893 84.8014 26.0936 84.8014 26.2918C84.8014 27.1483 84.7457 28.0587 84.6367 29.0205Z" fill="url(#1-paint6_linear)"></path><path d="M82.589 24.8804C82.1949 24.0509 81.6008 23.5574 80.915 23.4909C80.8229 23.4834 80.7303 23.4842 80.6383 23.4933C80.5944 23.497 80.5527 23.5144 80.5191 23.543C80.4856 23.5716 80.4618 23.6099 80.4511 23.6527C80.4404 23.6954 80.4433 23.7405 80.4595 23.7815C80.4757 23.8225 80.5043 23.8574 80.5413 23.8814C80.7385 24.0075 80.9009 24.1811 81.0135 24.3863C81.1261 24.5916 81.1853 24.8218 81.1857 25.0559C81.1851 25.4263 81.0377 25.7813 80.7757 26.0433C80.5138 26.3052 80.1588 26.4526 79.7884 26.4532C79.3488 26.4532 78.9439 26.249 78.6756 25.892C78.6529 25.8603 78.6216 25.8358 78.5854 25.8215C78.5492 25.8071 78.5096 25.8036 78.4714 25.8112C78.4329 25.8171 78.397 25.8338 78.3677 25.8593C78.3385 25.8849 78.3171 25.9182 78.306 25.9555C78.1715 26.3806 78.0815 26.8186 78.0377 27.2624C77.9347 28.3147 78.0874 29.3323 78.4654 30.1271C78.8595 30.9572 79.4536 31.4507 80.1394 31.5166C80.1909 31.5202 80.24 31.5244 80.2921 31.5244C81.6068 31.5244 82.8136 29.8773 83.0202 27.7475C83.1173 26.6904 82.9663 25.6752 82.589 24.8804Z" fill="#E91F58"></path><path d="M50.2808 24.9631C49.9215 24.2097 49.3812 23.7617 48.756 23.6994C48.6714 23.6919 48.5864 23.6927 48.502 23.7018C48.4583 23.7056 48.4168 23.723 48.3835 23.7515C48.3502 23.7801 48.3267 23.8185 48.3164 23.8611C48.2936 23.9473 48.3307 24.0408 48.4068 24.0881C48.7643 24.3169 48.9764 24.7074 48.9764 25.126C48.9761 25.4543 48.8455 25.7691 48.6135 26.0013C48.3814 26.2335 48.0667 26.3642 47.7384 26.3646C47.5466 26.3643 47.3576 26.3191 47.1863 26.2328C47.0151 26.1465 46.8663 26.0214 46.7519 25.8675C46.7293 25.8357 46.6978 25.8112 46.6615 25.7968C46.6251 25.7825 46.5854 25.7789 46.5471 25.7867C46.5088 25.7927 46.473 25.8094 46.4438 25.835C46.4147 25.8605 46.3934 25.8938 46.3824 25.931C46.2605 26.3149 46.1794 26.7106 46.1404 27.1115C46.0476 28.0632 46.186 28.9838 46.5267 29.7001C46.8861 30.4535 47.4263 30.9009 48.0522 30.9632C48.0995 30.9674 48.1492 30.9692 48.196 30.9692C48.7721 30.9692 49.3339 30.635 49.7897 30.0157C50.2629 29.3761 50.5743 28.5004 50.6672 27.5493C50.7582 26.6018 50.6216 25.6813 50.2808 24.9631Z" fill="url(#1-paint7_linear)"></path><path d="M69.1214 12.7236C69.1214 12.7236 45.6452 7.61528 43.3231 7.19423C41.0017 6.77079 39.3133 8.56698 39.2612 10.15C39.2073 11.7329 39.9469 13.6854 42.5846 14.055C45.2223 14.4245 66.2753 17.8426 66.2753 17.8426L66.2813 17.7767L58.5371 31.3844L58.1371 32.0882C57.7333 32.6744 57.3571 33.2792 57.0099 33.9005C56.9787 33.9562 56.956 34.0095 56.9296 34.0652C56.838 34.2418 56.7594 34.4248 56.6942 34.6127C56.5643 34.9798 56.4918 35.341 56.4918 35.6919C56.4918 35.9585 56.5415 36.2142 56.6361 36.4598C56.7727 36.8149 57.0075 37.1449 57.3423 37.4546C57.9095 37.9769 58.7929 38.3153 59.9943 38.4722L68.2566 39.4502C68.9993 39.5556 69.6 39.6072 70.0588 39.6072C70.6858 39.6072 71.2926 39.4898 71.8789 39.2544C72.4671 39.019 72.9235 38.6578 73.2493 38.1685C73.3343 38.0409 73.4062 37.9086 73.4685 37.7684C72.6011 36.8563 71.93 35.7759 71.4968 34.5941C71.3363 34.1605 71.1973 33.7125 71.0775 33.2483C70.6119 33.1159 70.1302 33.0484 69.6461 33.0477C69.2269 33.0477 68.8034 33.0644 68.3722 33.0974C67.9409 33.1303 67.5696 33.1657 67.2558 33.2052L65.689 33.4585L72.1886 19.1842C72.5059 18.6139 72.7965 18.0291 73.0594 17.4317C73.3277 16.825 73.4619 16.2405 73.4619 15.6793C73.4619 14.9606 73.0989 14.3275 72.3766 13.7807C71.6561 13.2332 70.5703 12.8805 69.1214 12.7236Z" fill="url(#1-paint8_linear)"></path><path d="M104.082 30.0942C104.082 30.9716 104.012 31.879 103.871 32.7942C103.746 33.5957 103.548 34.3841 103.278 35.1491L103.438 38.1151C103.465 38.575 103.613 38.9673 103.881 39.289C104.15 39.6112 104.528 39.7741 105.015 39.7741C105.654 39.7741 106.096 39.607 106.344 39.2686C106.591 38.932 106.725 38.5403 106.746 38.0947C106.746 35.8966 106.998 33.6087 107.504 31.2357C108.009 28.8622 108.505 27.6751 108.992 27.6751C109.411 27.6751 109.621 28.2944 109.621 29.5306C109.621 30.0588 109.584 30.7033 109.507 31.4585C109.246 33.9806 109.112 35.8176 109.105 36.9717C109.105 37.5407 109.303 37.9971 109.704 38.3379C110.102 38.6786 110.594 38.8475 111.178 38.8475C111.756 38.8475 112.255 38.6739 112.678 38.3277C113.102 37.9803 113.326 37.5251 113.353 36.9609C113.518 33.7866 113.797 31.446 114.193 29.9373C114.587 28.4286 114.95 27.6751 115.281 27.6751C115.762 27.6751 116.001 28.4555 116.003 30.0139C116.003 30.5769 115.972 31.2375 115.91 31.9928C115.677 34.8784 115.555 36.8064 115.549 37.7743C115.549 38.3438 115.749 38.8002 116.152 39.141C116.554 39.4812 117.044 39.6501 117.619 39.6501C118.197 39.6501 118.697 39.4794 119.12 39.135C119.543 38.7918 119.77 38.3379 119.805 37.7743C119.805 37.5886 119.81 37.382 119.816 37.155C119.842 36.5027 119.861 35.7187 119.867 34.8066C119.867 34.125 119.851 33.4093 119.816 32.6516C119.781 31.7908 119.702 30.9324 119.578 30.0798C119.465 29.2739 119.272 28.4813 119 27.714C118.752 27.0088 118.355 26.3654 117.836 25.8274C117.32 25.2997 116.62 25.035 115.733 25.035C114.346 25.035 113.359 25.8424 112.775 27.4565C112.17 25.8424 111.101 25.035 109.57 25.035C108.333 25.035 107.413 25.7118 106.809 27.0666C106.685 26.2964 106.494 25.7723 106.241 25.4896C105.966 25.1734 105.533 25.0146 104.942 25.0146C104.364 25.0146 103.869 25.1734 103.454 25.4896C103.39 25.5387 103.34 25.5944 103.287 25.6483C103.514 26.2778 103.694 26.9157 103.82 27.5577C103.993 28.4489 104.082 29.3036 104.082 30.0942Z" fill="url(#1-paint9_linear)"></path><path d="M23.096 25.8324C22.5803 25.3035 21.8802 25.0394 20.9932 25.0394C19.606 25.0394 18.619 25.8468 18.035 27.4609C17.4301 25.8468 16.361 25.0394 14.8296 25.0394C13.5934 25.0394 12.6734 25.7162 12.0685 27.0704C11.9445 26.3008 11.7547 25.7767 11.5007 25.494C11.2258 25.1778 10.7928 25.019 10.2022 25.019C9.62427 25.019 9.12895 25.1778 8.71389 25.494C8.29704 25.8096 8.091 26.2349 8.091 26.7715L8.69952 38.117C8.72647 38.5776 8.875 38.9693 9.14332 39.2916C9.41165 39.6138 9.78957 39.7767 10.2765 39.7767C10.9162 39.7767 11.3582 39.609 11.6061 39.2712C11.8535 38.9346 11.9876 38.5423 12.008 38.0967C12.008 35.8986 12.2596 33.6113 12.7657 31.2377C13.2712 28.8642 13.7671 27.6777 14.254 27.6777C14.6732 27.6777 14.8829 28.2964 14.8829 29.5332C14.8829 30.0614 14.8463 30.7053 14.7697 31.4605C14.5079 33.9832 14.3738 35.8202 14.3672 36.9737C14.3672 37.5433 14.5654 37.9997 14.9661 38.3399C15.3644 38.6806 15.8555 38.8501 16.4395 38.8501C17.0175 38.8501 17.5176 38.6764 17.9404 38.3297C18.3633 37.9829 18.5885 37.5271 18.6154 36.9635C18.7801 33.7892 19.0586 31.4486 19.4551 29.9399C19.8492 28.4305 20.2128 27.6777 20.5428 27.6777C21.0237 27.6777 21.2633 28.4575 21.2651 30.0159C21.2651 30.5789 21.2345 31.2401 21.1722 31.9954C20.9387 34.881 20.8177 36.8084 20.8111 37.7769C20.8111 38.3458 21.0117 38.8022 21.4142 39.143C21.8167 39.4838 22.3054 39.6527 22.8816 39.6527C23.4572 39.6527 23.9591 39.4814 24.3819 39.137C24.8054 38.7944 25.0324 38.3405 25.0671 37.7769C25.0671 37.5912 25.0713 37.3846 25.0773 37.1576C25.0958 36.7012 25.1108 36.1753 25.1192 35.5908C24.6484 34.2492 24.4065 32.7261 24.4065 31.0605C24.4065 30.2741 24.4646 29.5002 24.57 28.7402C24.4831 28.3958 24.3804 28.0557 24.2621 27.7208C24.0139 27.0148 23.6161 26.3706 23.096 25.8324Z" fill="url(#1-paint10_linear)"></path><path d="M38.758 29.0624C38.758 27.7687 38.8778 26.4966 39.1084 25.2646C39.1066 25.2586 39.1048 25.2526 39.1006 25.246C38.7527 24.4341 38.2973 23.6726 37.7464 22.982C37.193 22.2843 36.4995 21.7039 35.67 21.2397C34.8404 20.7756 33.8785 20.542 32.7891 20.542C31.484 20.542 30.3514 20.866 29.3854 21.5141C28.4321 22.1507 27.6314 22.9903 27.0406 23.9727C26.4416 24.9633 25.9942 26.0677 25.6948 27.2812C25.581 27.7435 25.4947 28.2161 25.424 28.6928C25.3073 29.4766 25.248 30.2679 25.2468 31.0604C25.2468 32.6991 25.4863 34.1647 25.9607 35.4566C25.9649 35.4667 25.9667 35.4775 25.9715 35.4877C26.4542 36.7874 27.2448 37.8385 28.3432 38.6435C29.4411 39.446 30.8528 39.8491 32.5759 39.8491C33.7899 39.8491 34.8446 39.6299 35.7382 39.1927C36.6318 38.7555 37.3583 38.1871 37.9219 37.4917C38.4777 36.8064 38.9227 36.0382 39.2408 35.2152C39.3522 34.9259 39.4492 34.6312 39.5378 34.336C39.0222 32.7608 38.758 30.9921 38.758 29.0624ZM35.2219 30.9119C35.1488 31.557 35.0163 32.1939 34.8261 32.8147C34.638 33.4214 34.3948 33.9478 34.0954 34.3899C33.7959 34.8313 33.4659 35.1613 33.1047 35.3805C32.743 35.5991 32.3117 35.7087 31.8122 35.7087C31.3532 35.7139 30.9106 35.5381 30.5802 35.2194C30.2317 34.893 29.9484 34.3318 29.7298 33.5304C29.5111 32.732 29.4015 31.7516 29.4015 30.5896C29.4015 29.723 29.5111 28.8707 29.7298 28.0304C29.9484 27.1901 30.2436 26.4492 30.6132 25.8072C30.9845 25.1633 31.3606 24.689 31.7446 24.3817C32.1279 24.0739 32.4771 23.9188 32.7885 23.9188C33.2077 23.9188 33.5731 24.0487 33.8803 24.3069C34.1882 24.5668 34.4583 24.9609 34.6919 25.4916C34.9231 26.0246 35.0902 26.6104 35.1872 27.2542C35.286 27.8981 35.3334 28.4904 35.3334 29.0354C35.3333 29.6626 35.2961 30.2891 35.2219 30.9119Z" fill="url(#1-paint11_linear)"></path><path d="M57.598 24.9566C57.3891 23.9096 57.0716 22.8873 56.6505 21.9062C56.2226 20.9072 55.6626 19.9701 54.9855 19.12C54.3039 18.2635 53.4517 17.5472 52.4299 16.9758C51.4081 16.4033 50.2258 16.1182 48.8842 16.1182C47.2779 16.1182 45.883 16.5165 44.6959 17.313C43.5222 18.0965 42.5367 19.1302 41.8102 20.34C41.0736 21.56 40.5225 22.9184 40.153 24.4128C40.0889 24.6685 40.0392 24.9308 39.9877 25.1908C39.8652 25.7975 39.7731 26.41 39.7116 27.0259C39.6406 27.7024 39.604 28.382 39.602 29.0623C39.602 30.305 39.7134 31.4652 39.9362 32.545C40.062 33.1619 40.2273 33.7501 40.4255 34.3137C40.4483 34.3796 40.4686 34.4478 40.4938 34.5113C41.0879 36.1111 42.06 37.4054 43.4124 38.3942C44.7642 39.3824 46.4999 39.8783 48.6219 39.8783C50.1162 39.8783 51.4141 39.61 52.5125 39.071C53.6104 38.5319 54.5082 37.8348 55.1993 36.9759C55.3443 36.7962 55.4784 36.613 55.6102 36.4273C55.5663 36.2203 55.5442 36.0094 55.5443 35.7978C55.5443 35.0791 55.7551 34.3382 56.1696 33.5956C56.5234 32.9617 56.9063 32.3445 57.3172 31.7461L57.6286 31.1968C57.637 31.1453 57.6496 31.0914 57.6579 31.0399C57.8232 29.9624 57.9053 28.9077 57.9053 27.874C57.9035 26.9636 57.8023 25.9897 57.598 24.9572V24.9566ZM52.4029 29.0832C52.2951 30.0175 52.1095 30.9159 51.8435 31.7766C51.577 32.6373 51.2326 33.3781 50.8098 34.0034C50.3863 34.6287 49.9174 35.0971 49.4059 35.4067C48.8938 35.7164 48.2829 35.8715 47.575 35.8715C46.9041 35.8715 46.3244 35.6403 45.8309 35.1797C45.3379 34.7197 44.9373 33.9232 44.6276 32.79C44.318 31.6586 44.1634 30.2715 44.1634 28.6268C44.1634 27.4008 44.318 26.1934 44.6276 25.0045C44.9373 23.8156 45.3541 22.7669 45.8788 21.8565C46.4028 20.9461 46.9377 20.2735 47.4803 19.8381C48.023 19.4027 48.5165 19.1841 48.9597 19.1841C49.5544 19.1841 50.0683 19.3674 50.5061 19.7327C50.9415 20.1005 51.3237 20.6599 51.6537 21.4109C51.9819 22.162 52.2149 22.9939 52.3556 23.9043C52.4934 24.8146 52.564 25.6543 52.564 26.4264C52.5619 27.3142 52.5081 28.2011 52.4029 29.0826V29.0832Z" fill="url(#1-paint12_linear)"></path><path d="M76.1642 28.5547C76.1642 29.6118 76.2259 30.5653 76.3499 31.4158C76.2259 30.5629 76.1642 29.6094 76.1642 28.5547Z" fill="url(#1-paint13_linear)"></path><path d="M82.3105 34.9241C82.5501 34.6827 82.7788 34.4018 82.9975 34.0796C82.7973 34.3833 82.5671 34.6662 82.3105 34.9241Z" fill="url(#1-paint14_linear)"></path><path d="M102.987 27.723C102.946 27.5091 102.898 27.2964 102.844 27.0852C102.705 26.5471 102.53 26.0188 102.321 25.504C102.286 25.4171 102.255 25.3303 102.218 25.244C101.87 24.4321 101.415 23.6707 100.864 22.9801C100.311 22.2817 99.6172 21.702 98.7877 21.2372C97.9576 20.773 96.9957 20.54 95.9063 20.54C94.6018 20.54 93.4686 20.8635 92.5025 21.5121C91.6322 22.0974 90.8894 22.8529 90.3188 23.7329C90.4015 24.0486 90.4775 24.3666 90.5416 24.6846C90.7543 25.7681 90.8615 26.8043 90.8615 27.7661C90.8615 28.837 90.7752 29.9456 90.6039 31.0603C90.4305 32.1915 90.1356 33.3008 89.7241 34.3687C89.5594 34.7982 89.3587 35.2132 89.1401 35.6193C89.6271 36.8561 90.3973 37.8629 91.4562 38.6391C92.554 39.4417 93.9657 39.8448 95.6894 39.8448C96.9029 39.8448 97.9576 39.6256 98.8518 39.1883C99.7454 38.7511 100.472 38.1827 101.035 37.4874C101.591 36.802 102.036 36.0339 102.354 35.2108C102.377 35.1492 102.397 35.0869 102.42 35.0252C102.702 34.2605 102.907 33.4693 103.031 32.6636C103.06 32.4719 103.084 32.2803 103.107 32.088C103.19 31.4112 103.231 30.7464 103.231 30.09C103.237 29.3533 103.155 28.5627 102.987 27.7224V27.723ZM98.3397 30.9117C98.2664 31.5568 98.1337 32.1938 97.9432 32.8145C97.7552 33.4212 97.512 33.9477 97.2125 34.3897C96.9131 34.8311 96.583 35.1611 96.2219 35.3803C95.8607 35.5989 95.4295 35.7086 94.93 35.7086C94.4568 35.7086 94.0466 35.545 93.6974 35.2192C93.3488 34.8928 93.0661 34.3316 92.8469 33.5302C92.6283 32.7319 92.5193 31.7514 92.5193 30.5895C92.5193 29.7228 92.6283 28.8706 92.8469 28.0303C93.0661 27.19 93.3614 26.4491 93.7303 25.807C94.1017 25.1632 94.4778 24.6888 94.8617 24.3816C95.245 24.0737 95.5942 23.9186 95.9063 23.9186C96.3255 23.9186 96.6909 24.0486 96.9981 24.3067C97.3054 24.5666 97.5761 24.9607 97.8091 25.4914C98.0403 26.0244 98.2074 26.6102 98.3044 27.2541C98.4038 27.8979 98.4511 28.4902 98.4511 29.0353C98.4511 29.6624 98.4139 30.289 98.3397 30.9117Z" fill="url(#1-paint15_linear)"></path><path d="M89.7163 24.852L89.7079 24.8101C89.5001 23.7772 89.1853 22.7687 88.7688 21.801C88.3406 20.802 87.7804 19.8649 87.1031 19.0148C86.4222 18.1583 85.5699 17.442 84.5481 16.8706C83.5263 16.2987 82.3434 16.0142 81.0018 16.0142C79.3961 16.0142 78.0012 16.4118 76.8141 17.209C75.6405 17.9921 74.655 19.0255 73.9285 20.2348C73.1918 21.4542 72.6408 22.8126 72.2712 24.307C71.8987 25.8288 71.7129 27.3903 71.7178 28.957C71.7178 30.7179 71.9406 32.3153 72.3868 33.7497C72.4545 33.9725 72.5294 34.1917 72.6096 34.4061C72.9408 35.3085 73.4239 36.1475 74.0381 36.8869C74.4751 37.4137 74.9756 37.8844 75.5282 38.2884C76.88 39.2772 78.6157 39.7725 80.7377 39.7725C82.232 39.7725 83.5305 39.5042 84.6284 38.9658C85.7262 38.4267 86.624 37.729 87.3158 36.8707C87.9066 36.1379 88.3954 35.3284 88.7688 34.4642C88.8263 34.3319 88.8886 34.2019 88.9401 34.0677C89.3308 33.0568 89.6097 32.0063 89.772 30.9347C89.9367 29.8566 90.0193 28.8025 90.0193 27.7682C90.0217 26.8578 89.9205 25.8839 89.7163 24.8514V24.852ZM84.6367 29.0205C84.5311 29.959 84.3382 30.8855 84.0606 31.7882C83.8739 32.4082 83.6222 33.0066 83.3095 33.5736C83.2101 33.7491 83.1071 33.9186 82.9981 34.0797C82.7953 34.3815 82.5651 34.664 82.3105 34.9236C82.0838 35.1529 81.8302 35.354 81.5552 35.5225C81.0282 35.84 80.4011 35.9987 79.6728 35.9987C79.1565 35.9987 78.6906 35.8645 78.2755 35.5986C78.0579 35.4593 77.8617 35.289 77.6933 35.0931C77.2699 34.602 76.9195 33.8485 76.6404 32.8309C76.5145 32.364 76.4173 31.8897 76.3493 31.4109C76.226 30.5604 76.1637 29.6069 76.1637 28.5498C76.1623 27.2931 76.3234 26.0416 76.6428 24.8262C76.7231 24.5208 76.8075 24.2237 76.9027 23.9368C77.0908 23.3612 77.3034 22.8228 77.5466 22.3185C77.6682 22.067 77.7964 21.8232 77.9305 21.5902C78.4696 20.6553 79.0182 19.9611 79.5776 19.5137C80.137 19.0657 80.6425 18.8411 81.0989 18.8411C81.2516 18.8411 81.3983 18.8531 81.5421 18.8758C81.9656 18.9444 82.3621 19.128 82.6884 19.4065C83.1358 19.7838 83.5305 20.3582 83.8683 21.1314C84.0378 21.5177 84.1828 21.9268 84.3019 22.3532C84.4217 22.7809 84.5187 23.2289 84.5894 23.6972C84.6242 23.9308 84.6553 24.162 84.6823 24.3866C84.7362 24.837 84.7709 25.27 84.7895 25.6833C84.7973 25.8893 84.8014 26.0936 84.8014 26.2918C84.8014 27.1483 84.7457 28.0587 84.6367 29.0205Z" fill="url(#1-paint16_linear)"></path><path d="M82.589 24.8804C82.1949 24.0509 81.6008 23.5574 80.915 23.4909C80.8229 23.4834 80.7303 23.4842 80.6383 23.4933C80.5944 23.497 80.5527 23.5144 80.5191 23.543C80.4856 23.5716 80.4618 23.6099 80.4511 23.6527C80.4404 23.6954 80.4433 23.7405 80.4595 23.7815C80.4757 23.8225 80.5043 23.8574 80.5413 23.8814C80.7385 24.0075 80.9009 24.1811 81.0135 24.3863C81.1261 24.5916 81.1853 24.8218 81.1857 25.0559C81.1851 25.4263 81.0377 25.7813 80.7757 26.0433C80.5138 26.3052 80.1588 26.4526 79.7884 26.4532C79.3488 26.4532 78.9439 26.249 78.6756 25.892C78.6529 25.8603 78.6216 25.8358 78.5854 25.8215C78.5492 25.8071 78.5096 25.8036 78.4714 25.8112C78.4329 25.8171 78.397 25.8338 78.3677 25.8593C78.3385 25.8849 78.3171 25.9182 78.306 25.9555C78.1715 26.3806 78.0815 26.8186 78.0377 27.2624C77.9347 28.3147 78.0874 29.3323 78.4654 30.1271C78.8595 30.9572 79.4536 31.4507 80.1394 31.5166C80.1909 31.5202 80.24 31.5244 80.2921 31.5244C81.6068 31.5244 82.8136 29.8773 83.0202 27.7475C83.1173 26.6904 82.9663 25.6752 82.589 24.8804Z" fill="#E91F58"></path><path d="M50.2808 24.9631C49.9215 24.2097 49.3812 23.7617 48.756 23.6994C48.6714 23.6919 48.5864 23.6927 48.502 23.7018C48.4583 23.7056 48.4168 23.723 48.3835 23.7515C48.3502 23.7801 48.3267 23.8185 48.3164 23.8611C48.2936 23.9473 48.3307 24.0408 48.4068 24.0881C48.7643 24.3169 48.9764 24.7074 48.9764 25.126C48.9761 25.4543 48.8455 25.7691 48.6135 26.0013C48.3814 26.2335 48.0667 26.3642 47.7384 26.3646C47.5466 26.3643 47.3576 26.3191 47.1863 26.2328C47.0151 26.1465 46.8663 26.0214 46.7519 25.8675C46.7293 25.8357 46.6978 25.8112 46.6615 25.7968C46.6251 25.7825 46.5854 25.7789 46.5471 25.7867C46.5088 25.7927 46.473 25.8094 46.4438 25.835C46.4147 25.8605 46.3934 25.8938 46.3824 25.931C46.2605 26.3149 46.1794 26.7106 46.1404 27.1115C46.0476 28.0632 46.186 28.9838 46.5267 29.7001C46.8861 30.4535 47.4263 30.9009 48.0522 30.9632C48.0995 30.9674 48.1492 30.9692 48.196 30.9692C48.7721 30.9692 49.3339 30.635 49.7897 30.0157C50.2629 29.3761 50.5743 28.5004 50.6672 27.5493C50.7582 26.6018 50.6216 25.6813 50.2808 24.9631Z" fill="url(#1-paint17_linear)"></path><defs><linearGradient id="1-paint0_linear" x1="11.8977" y1="17.2724" x2="122.074" y2="38.638" gradientUnits="userSpaceOnUse"><stop offset="0.0392" stop-color="#692F8B"></stop><stop offset="0.4468" stop-color="#168DCD"></stop><stop offset="0.656" stop-color="#E91F58"></stop><stop offset="1" stop-color="#FFCB05"></stop></linearGradient><linearGradient id="1-paint1_linear" x1="8.46596" y1="31.3468" x2="118.479" y2="52.6802" gradientUnits="userSpaceOnUse"><stop offset="0.0392" stop-color="#692F8B"></stop><stop offset="0.4468" stop-color="#168DCD"></stop><stop offset="0.656" stop-color="#E91F58"></stop><stop offset="1" stop-color="#FFCB05"></stop></linearGradient><linearGradient id="1-paint2_linear" x1="19.843" y1="25.7227" x2="82.4882" y2="37.8702" gradientUnits="userSpaceOnUse"><stop offset="0.0392" stop-color="#692F8B"></stop><stop offset="0.4468" stop-color="#168DCD"></stop><stop offset="0.656" stop-color="#E91F58"></stop><stop offset="1" stop-color="#FFCB05"></stop></linearGradient><linearGradient id="1-paint3_linear" x1="75.952" y1="17.3497" x2="80.1009" y2="18.0734" gradientUnits="userSpaceOnUse"><stop offset="0.0392" stop-color="#692F8B"></stop><stop offset="0.4468" stop-color="#168DCD"></stop><stop offset="0.656" stop-color="#E91F58"></stop><stop offset="1" stop-color="#FFCB05"></stop></linearGradient><linearGradient id="1-paint4_linear" x1="55.4396" y1="25.7368" x2="98.1792" y2="34.8469" gradientUnits="userSpaceOnUse"><stop offset="0.0392" stop-color="#692F8B"></stop><stop offset="0.4468" stop-color="#168DCD"></stop><stop offset="0.656" stop-color="#E91F58"></stop><stop offset="1" stop-color="#FFCB05"></stop></linearGradient><linearGradient id="1-paint5_linear" x1="51.2107" y1="13.9266" x2="112.24" y2="25.7613" gradientUnits="userSpaceOnUse"><stop offset="0.0392" stop-color="#692F8B"></stop><stop offset="0.4468" stop-color="#168DCD"></stop><stop offset="0.656" stop-color="#E91F58"></stop><stop offset="1" stop-color="#FFCB05"></stop></linearGradient><linearGradient id="1-paint6_linear" x1="39.804" y1="14.5048" x2="107.313" y2="27.596" gradientUnits="userSpaceOnUse"><stop offset="0.0392" stop-color="#692F8B"></stop><stop offset="0.4468" stop-color="#168DCD"></stop><stop offset="0.656" stop-color="#E91F58"></stop><stop offset="1" stop-color="#FFCB05"></stop></linearGradient><linearGradient id="1-paint7_linear" x1="33.4039" y1="20.0014" x2="79.8761" y2="29.0136" gradientUnits="userSpaceOnUse"><stop offset="0.0392" stop-color="#692F8B"></stop><stop offset="0.4468" stop-color="#168DCD"></stop><stop offset="0.656" stop-color="#E91F58"></stop><stop offset="1" stop-color="#FFCB05"></stop></linearGradient><linearGradient id="1-paint8_linear" x1="11.5545" y1="15.8852" x2="122.172" y2="37.3362" gradientUnits="userSpaceOnUse"><stop offset="0.0392" stop-color="#692F8B"></stop><stop offset="0.4468" stop-color="#168DCD"></stop><stop offset="0.656" stop-color="#E91F58"></stop><stop offset="1" stop-color="#FFCB05"></stop></linearGradient><linearGradient id="1-paint9_linear" x1="11.8977" y1="17.2724" x2="122.074" y2="38.638" gradientUnits="userSpaceOnUse"><stop offset="0.0392" stop-color="#692F8B"></stop><stop offset="0.4468" stop-color="#168DCD"></stop><stop offset="0.656" stop-color="#E91F58"></stop><stop offset="1" stop-color="#FFCB05"></stop></linearGradient><linearGradient id="1-paint10_linear" x1="8.46596" y1="31.3468" x2="118.479" y2="52.6802" gradientUnits="userSpaceOnUse"><stop offset="0.0392" stop-color="#692F8B"></stop><stop offset="0.4468" stop-color="#168DCD"></stop><stop offset="0.656" stop-color="#E91F58"></stop><stop offset="1" stop-color="#FFCB05"></stop></linearGradient><linearGradient id="1-paint11_linear" x1="19.843" y1="25.7227" x2="82.4882" y2="37.8702" gradientUnits="userSpaceOnUse"><stop offset="0.0392" stop-color="#692F8B"></stop><stop offset="0.4468" stop-color="#168DCD"></stop><stop offset="0.656" stop-color="#E91F58"></stop><stop offset="1" stop-color="#FFCB05"></stop></linearGradient><linearGradient id="1-paint12_linear" x1="26.0387" y1="20.6079" x2="93.5603" y2="33.7004" gradientUnits="userSpaceOnUse"><stop offset="0.0392" stop-color="#692F8B"></stop><stop offset="0.4468" stop-color="#168DCD"></stop><stop offset="0.656" stop-color="#E91F58"></stop><stop offset="1" stop-color="#FFCB05"></stop></linearGradient><linearGradient id="1-paint13_linear" x1="75.952" y1="17.3497" x2="80.1009" y2="18.0734" gradientUnits="userSpaceOnUse"><stop offset="0.0392" stop-color="#692F8B"></stop><stop offset="0.4468" stop-color="#168DCD"></stop><stop offset="0.656" stop-color="#E91F58"></stop><stop offset="1" stop-color="#FFCB05"></stop></linearGradient><linearGradient id="1-paint14_linear" x1="55.4396" y1="25.7368" x2="98.1792" y2="34.8469" gradientUnits="userSpaceOnUse"><stop offset="0.0392" stop-color="#692F8B"></stop><stop offset="0.4468" stop-color="#168DCD"></stop><stop offset="0.656" stop-color="#E91F58"></stop><stop offset="1" stop-color="#FFCB05"></stop></linearGradient><linearGradient id="1-paint15_linear" x1="51.2107" y1="13.9266" x2="112.24" y2="25.7613" gradientUnits="userSpaceOnUse"><stop offset="0.0392" stop-color="#692F8B"></stop><stop offset="0.4468" stop-color="#168DCD"></stop><stop offset="0.656" stop-color="#E91F58"></stop><stop offset="1" stop-color="#FFCB05"></stop></linearGradient><linearGradient id="1-paint16_linear" x1="39.804" y1="14.5048" x2="107.313" y2="27.596" gradientUnits="userSpaceOnUse"><stop offset="0.0392" stop-color="#692F8B"></stop><stop offset="0.4468" stop-color="#168DCD"></stop><stop offset="0.656" stop-color="#E91F58"></stop><stop offset="1" stop-color="#FFCB05"></stop></linearGradient><linearGradient id="1-paint17_linear" x1="33.4039" y1="20.0014" x2="79.8761" y2="29.0136" gradientUnits="userSpaceOnUse"><stop offset="0.0392" stop-color="#692F8B"></stop><stop offset="0.4468" stop-color="#168DCD"></stop><stop offset="0.656" stop-color="#E91F58"></stop><stop offset="1" stop-color="#FFCB05"></stop></linearGradient></defs></svg>